<?xml version="1.0" standalone="no"?>
<!DOCTYPE svg PUBLIC "-//W3C//DTD SVG 1.1//EN" "http://www.w3.org/Graphics/SVG/1.1/DTD/svg11.dtd" >
<svg xmlns="http://www.w3.org/2000/svg" xmlns:xlink="http://www.w3.org/1999/xlink" version="1.1">
<metadata>
Created by FontForge 20190801 at Fri May 22 18:55:38 2020
 By Jimmy Wärting
Billion Dreams (c) Subectype Studio. 2019. All Rights Reserved
</metadata>
<defs>
<font id="BillionDreams" horiz-adv-x="750" >
  <font-face 
    font-family="Billion Dreams"
    font-weight="400"
    font-stretch="normal"
    units-per-em="2048"
    panose-1="2 0 6 0 0 0 0 0 0 0"
    ascent="1638"
    descent="-410"
    x-height="892.5"
    cap-height="1498.5"
    bbox="-638.382 -452.722 5575.16 2072.21"
    underline-thickness="150"
    underline-position="-292"
    unicode-range="U+001D-E072"
  />
<missing-glyph horiz-adv-x="824" 
 />
    <glyph glyph-name="ar" unicode="ar" horiz-adv-x="1376" 
d="M1043 1023v0q117 -59 183.5 -131.5t42.5 -219.5q-15 -70 -63 -207q-44 -128 -83 -264.5t-38.5 -232t72.5 -102.5q-25 -44 -91.5 -28.5t-119.5 83.5t-36 181q35 152 107 341q43 116 66 194q32 105 11 174.5t-118 105.5q-2 -185 -117.5 -436t-261.5 -346q-40 -20 -102.5 -5
t-115 53t-63.5 86q-9 80 20 195q-33 -39 -74 -96q-79 -115 -182 -217q-28 -21 -79 -9t-92.5 45t-40.5 72q18 158 108.5 327t201.5 263q61 47 111.5 32.5t101.5 -52.5q19 -12 39 -25q9 13 21 32q12 18 24 35t21 27q25 22 66.5 7.5t70 -45.5t13.5 -61q-121 -204 -145.5 -349.5
t4.5 -172.5q34 -21 106.5 68.5t137.5 227.5t77.5 264t-74.5 178q-25 16 -15 51t39.5 69.5t62 49t52.5 -11.5q15 -22 25 -38q17 -30 40.5 -54t86.5 -58zM330 667v0q5 9 6.5 28.5t-4 37t-18.5 21t-36 -18.5q-90 -97 -151 -222t-65 -178q48 42 131.5 148.5t136.5 183.5z" />
    <glyph glyph-name="ir" unicode="ir" horiz-adv-x="1076" 
d="M362 1012v0q-17 -21 -53.5 -14t-66.5 27.5t-26 40.5q16 52 41.5 112t41.5 86q21 22 67.5 11.5t81.5 -36.5t23 -52q-17 -28 -50 -81t-59 -94zM787 1055v0q120 -59 185.5 -131.5t28.5 -219.5q-21 -71 -81 -208q-56 -128 -106.5 -264t-57 -231.5t70.5 -101.5
q-30 -45 -99.5 -29.5t-125.5 83.5t-30 181q48 152 137 341q54 116 84 195q41 104 28.5 173.5t-112.5 105.5q-14 -185 -162 -433.5t-327 -341.5q-45 -17 -109 -2t-116 52t-63 85q-7 64 28.5 192.5t85.5 252t86 172.5q23 26 69.5 17.5t86 -40.5t25.5 -63q-109 -186 -153 -335
t-8 -173q51 -15 132 62.5t160.5 204.5t108 245.5t-37.5 175.5q-22 20 -9.5 53t44 63t64 41.5t48.5 -11.5q16 -29 39 -53t86 -58z" />
    <glyph glyph-name="er" unicode="er" horiz-adv-x="1148" 
d="M854 1045v0q115 -55 180 -123.5t41 -207.5q-15 -66 -61 -194q-44 -121 -82 -250t-37.5 -219.5t71.5 -95.5q-24 -42 -89.5 -27.5t-122.5 78.5t-40 171q35 143 105 321q42 110 65 184q31 99 15.5 164t-110.5 99q-4 -165 -119.5 -419t-251.5 -368v-1q-12 -8 -24 -13
q-1 0 -2 -1q-6 -2 -11 -4q-63 -19 -158 14t-167.5 92.5t-81.5 134.5q-9 218 92 401t211 243q46 24 87 10.5t92 -45.5q16 -9 32 -19q46 -27 44 -69q-2 -33 -30.5 -108.5t-81 -148.5t-125.5 -98q-37 -11 -67 -7t-63 19q-40 -143 8.5 -213.5t111.5 -52.5q132 54 306 413v2v0
q8 21 18 51t12 37q52 176 -52 243q-25 15 -15 48t38.5 65.5t61 46t51.5 -10.5q15 -20 24 -36q17 -28 40 -50.5t85 -55.5zM376 885v0q-26 -21 -67.5 -74.5t-75 -106t-34.5 -68.5q46 -5 85 38.5t63.5 104t28.5 106.5z" />
    <glyph glyph-name="ur" unicode="ur" horiz-adv-x="1371" 
d="M1062 1075v0q121 -59 190 -131.5t44 -219.5q-16 -70 -65 -207q-46 -128 -86 -264.5t-40 -232t76 -101.5q-26 -45 -95.5 -29.5t-129 83.5t-42.5 181q47 152 122 341q44 116 68 195q32 104 10.5 173.5t-121.5 105.5q0 -187 -111.5 -446t-266.5 -339q-85 -26 -187.5 32
t-109.5 164q-30 -46 -64.5 -90.5t-89.5 -101.5q-33 -30 -90 -28.5t-105 28.5t-55 70q-3 76 36 210.5t88.5 253t79.5 146.5q22 16 63.5 4.5t72.5 -35t22 -44.5q-7 -12 -34 -66.5t-60.5 -128t-60 -142t-32.5 -107.5t22 -25q90 62 197 262.5t166 359.5q10 23 42.5 21.5
t68.5 -17.5t57.5 -39.5t10.5 -45.5q-124 -218 -143 -369t10 -164q52 -11 123 80t130 224.5t73 249.5t-49 154q-40 24 -34.5 60.5t37.5 68.5t69.5 41t61.5 -24q17 -30 41.5 -53.5t89.5 -57.5z" />
    <glyph glyph-name="dr" unicode="dr" horiz-adv-x="1389" 
d="M1074 1069v0q126 -46 197.5 -111.5t44.5 -215.5q-16 -72 -67 -214q-48 -133 -89.5 -273.5t-41 -236t78.5 -93.5q-27 -47 -98.5 -38.5t-128 71t-38.5 177.5q38 156 115 352q46 120 71 201q33 108 11 175.5t-126 93.5q29 -101 -32 -269.5t-166.5 -326.5t-208.5 -225
q-58 -31 -145 -12t-131 73q-50 72 -21 198q-44 -75 -102 -149t-109 -97q-57 -22 -128 -1.5t-80 90.5q2 154 118 383t278 298q45 13 90.5 2t87.5 -30q1 3 3 8q26 58 85 181.5t127 240t121 152.5q42 22 91 3t75.5 -53t1.5 -60q-107 -99 -233.5 -343t-201.5 -472t-26 -279
q36 -18 116.5 71t155 224t94 256t-64.5 167q-32 17 -23 56t41 78.5t69 57t61 -8.5q3 -5 7 -12q5 -14 28.5 -36.5t92.5 -52.5zM380 739v0q8 28 -1.5 44.5t-38.5 -1.5q-61 -46 -127.5 -155t-105.5 -208.5t-19 -118.5q21 -9 65 46t93.5 137.5t87 155.5t46.5 100z" />
    <glyph glyph-name="tr" unicode="tr" horiz-adv-x="981" 
d="M879 1284v0q57 -28 78.5 -81.5t14.5 -103.5t-33 -66q14 95 -138.5 137.5t-364.5 21.5q-108 -162 -196 -364.5t-122 -355.5t6 -196q34 -22 103 46t137.5 191.5t86.5 239t-61 169.5q-30 20 -21.5 58.5t38.5 74.5t64 50t56 -14q4 -6 7 -13q5 -15 27 -39t86 -61
q118 -59 184 -131t42 -220q-15 -70 -60 -198q-42 -120 -77 -244.5t-32 -211.5t76 -93q-25 -44 -92 -28.5t-119.5 83.5t-35.5 181q32 144 94 299q38 100 61 178q31 105 10.5 174t-117.5 105q27 -103 -29 -260t-152.5 -299.5t-192.5 -199.5q-55 -25 -135 3t-123 85
q-59 116 20.5 393.5t214.5 543.5q-103 -35 -181 -92q-15 -10 -34.5 7.5t-35 48t-20 57.5t10.5 36q152 71 351 108q68 112 125 165q33 25 78.5 2t73 -63t5.5 -65l-10 -10q202 6 332 -48z" />
    <glyph glyph-name="th" unicode="th" horiz-adv-x="1033" 
d="M1073 661v0q11 17 32.5 12t37 -22t9.5 -37q-51 -118 -154 -246.5t-186 -175.5q-36 -16 -84.5 -7t-87.5 33t-46 52q-8 64 24 164t56 160q7 18 10 26q-89 -81 -204.5 -248t-169.5 -271q-16 -24 -58.5 -19t-78.5 26.5t-31 47.5q42 142 161.5 418.5t256.5 522.5
q-70 -3 -141 -12q-151 -237 -258.5 -502t-123.5 -451t110 -186q-72 -72 -175 -26t-121 211q-1 134 92.5 388t229.5 515q-115 -35 -202 -88q-19 -10 -42 8t-40.5 48t-22 57.5t13.5 35.5q166 65 383 101q111 192 208 295q29 25 77.5 2t76.5 -67t-5 -82q-50 -51 -102 -117
q64 4 124 5q59 89 108 135q39 31 88.5 15.5t79.5 -50.5t12 -64q-20 -9 -56 -48q85 -12 149 -35q68 -28 91.5 -82t14 -104t-41.5 -66q17 66 -72 107t-242 54q-180 -239 -329 -607q70 97 152 195.5t154 146.5q38 21 84 7.5t75 -46t15 -68.5q-15 -32 -36 -73
q-44 -87 -87 -185.5t-48 -168.5q95 50 181 158.5t139 207.5z" />
    <glyph glyph-name="ll" unicode="ll" horiz-adv-x="654" 
d="M678 1425v0q24 29 70.5 17.5t79.5 -41t16 -54.5q-165 -205 -275.5 -478.5t-123.5 -486.5t112 -237q-8 -14 -48 -24.5t-91.5 -4.5t-93 40.5t-53 111t28.5 205.5q-17 -29 -36 -66q-33 -65 -67.5 -122.5t-62.5 -75.5q-57 -27 -127 -11q-97 30 -83.5 198t88 388t161 405
t135.5 248q28 30 80 24t87.5 -33.5t12.5 -62.5q-91 -121 -170.5 -283.5t-130.5 -310.5q-80 -246 -85.5 -360t44.5 -57q52 69 100 175.5t90 213.5q3 8 6 15q127 351 336 667z" />
    <glyph glyph-name="tt" unicode="tt" horiz-adv-x="642" 
d="M979 1229v0q61 -30 82 -84.5t12 -104.5t-38 -65q16 61 -53.5 103.5t-192.5 61.5q-158 -235 -266 -506t-127 -473.5t91 -233.5q-9 -16 -50 -24.5t-92 2t-89 54t-41 132.5t51 236q-20 -33 -43 -74q-40 -72 -81 -136.5t-71 -82.5q-59 -27 -129 -2q-88 39 -64 214t112 406.5
t191 438.5q-84 -29 -150 -71q-17 -10 -37 8.5t-36 49.5t-19.5 58.5t12.5 35.5q138 55 315 85q73 133 113 182q32 33 83.5 22t84 -45.5t5.5 -73.5q-22 -27 -44 -58q84 5 163 2q37 56 77 111q28 31 73 14.5t75 -53.5t10 -65q-13 -15 -27 -32q56 -13 100 -32zM339 653v0
q116 263 251 502q-86 -1 -174 -11q-139 -236 -230 -464q-108 -278 -125.5 -409.5t37.5 -69.5q60 75 119.5 193t111.5 238q5 10 10 21z" />
    <glyph glyph-name="lt" unicode="lt" horiz-adv-x="697" 
d="M1036 1170v0q49 -28 66 -80t4.5 -90.5t-52.5 -26.5q37 46 -43 81.5t-227 32.5q-146 -222 -238 -469t-98 -428.5t106 -206.5q-9 -15 -50.5 -24.5t-92.5 -1t-90.5 48.5t-45.5 123t44 222q-29 -48 -74.5 -107.5t-89.5 -108.5t-69 -64q-60 -27 -129 -6q-96 37 -70 219
t117 417.5t191.5 432.5t154.5 264q31 31 83 22.5t85 -40t8 -69.5q-58 -72 -115 -165q117 32 234 46q45 74 94 142q27 30 73 15.5t77 -48t12 -60.5q-16 -18 -32 -38q110 -5 167 -33zM108 228v0q177 234 323 557q64 134 134 266q-92 -27 -180 -81q-13 -7 -27.5 3t-27.5 31
q-90 -170 -150 -324q-99 -264 -112.5 -388t40.5 -64z" />
    <glyph glyph-name="tl" unicode="tl" horiz-adv-x="749" 
d="M786 1335v0q28 31 76 16.5t80.5 -49t12.5 -61.5q-189 -219 -318.5 -509t-152.5 -517t107 -259q-9 -15 -52 -24.5t-96.5 -0.5t-95 49t-47.5 125t46 227q-31 -49 -78 -110t-93 -111t-73 -65q-62 -27 -135 -6q-97 36 -74.5 211.5t111.5 406t192 432.5q-101 -20 -190 -77
q-16 -10 -36 8.5t-34.5 48.5t-17.5 57t13 34q180 61 340 70q69 123 108 169q32 32 86.5 23.5t89.5 -41t8 -70.5q-35 -42 -69 -91q65 -12 108 -33q34 -19 52 -52q62 105 132 199zM125 207v0q186 239 338 567q66 135 137 267q-56 44 -184 59q-132 -222 -215 -433
q-104 -268 -118.5 -394.5t42.5 -65.5z" />
    <glyph glyph-name="ti" unicode="ti" horiz-adv-x="685" 
d="M888 1271v0q71 -21 101 -71t26.5 -99t-34.5 -67q11 89 -146 117t-379 -6q-158 -218 -274.5 -485t-136.5 -461.5t114 -195.5q-70 -67 -174.5 -24t-126.5 196q-5 134 92 390.5t237 509.5q-115 -42 -204 -104q-18 -10 -42.5 4.5t-45.5 41.5t-28.5 51.5t9.5 33.5
q189 88 411 141q81 125 152 198q29 23 78 2t78 -62t-3 -77l-14 -14q175 14 310 -19zM711 672v0q15 16 34.5 12.5t32 -17t6.5 -26.5q-33 -58 -91.5 -162.5t-142 -182.5t-148.5 -100q-63 -16 -133 20.5t-69 103.5q11 89 73.5 243t139.5 261q19 19 66 9t83 -36.5t22 -54.5
q-233 -394 -160.5 -387.5t287.5 317.5zM638 883v0q-19 -20 -54.5 -15.5t-64.5 22.5t-27 39q15 59 41.5 114t42.5 79q23 23 72 14t85 -34.5t20 -54.5q-10 -14 -24 -35q-22 -32 -47 -67.5t-44 -61.5z" />
    <glyph glyph-name="it" unicode="it" horiz-adv-x="710" 
d="M770 1103v0q-145 -223 -240 -484t-96.5 -447t131.5 -186q-70 -72 -174 -26t-126 211q-7 92 27 238q-48 -74 -113.5 -136.5t-119.5 -73.5q-57 -3 -111 48.5t-52 114.5q13 93 87.5 274.5t146.5 292.5q18 20 61 9.5t75.5 -36.5t19.5 -55q-215 -390 -172 -449q27 -37 77 20
t106.5 159t101.5 198.5t63 137.5q38 88 79 170q-148 -28 -269 -109q-24 -8 -50.5 18.5t-45.5 68t-19.5 77.5t27.5 46q196 42 441 53q66 113 133 191q27 26 76.5 3t79 -67.5t-2.5 -82.5q-21 -22 -43 -47q105 -9 177 -32q69 -27 96 -82.5t20 -108t-38 -69.5q12 67 -90 111
t-263 50z" />
    <glyph glyph-name="a_t" unicode="at" horiz-adv-x="1110" 
d="M1554 934v0q8 65 -99.5 111t-278.5 64q-140 -226 -236 -508t-108.5 -493t99.5 -225q-30 -30 -88.5 -22.5t-113.5 60.5t-75 159q-13 109 25 284q-17 -18 -32 -33q-92 -105 -155 -137q-65 -25 -122.5 12.5t-66.5 89.5q-3 34 8.5 88.5t25.5 101.5q-33 -39 -73 -95
q-75 -109 -176 -210q-28 -21 -79 -9t-92.5 45t-40.5 72q18 158 108.5 327t200.5 263q61 47 112 32.5t102 -52.5q19 -12 39 -25q24 27 48 56q19 24 40 47q23 23 65 9.5t71.5 -44.5t15.5 -61q-133 -232 -168.5 -355t-4.5 -128q44 1 111 92t128.5 204t88.5 180q61 151 128 283
q-349 -3 -569 -155q-16 -11 -48.5 7.5t-61.5 51.5t-36.5 65t25.5 48q351 133 767 125q73 122 131 173q23 17 51.5 4t58.5 -35l10 -8q35 -25 47.5 -49t-5.5 -42q-28 -26 -56 -58q124 -15 197 -43q59 -28 88.5 -92t28.5 -119.5t-35 -55.5zM345 699v0q6 9 6 28t-7 36t-21 20.5
t-37 -18.5q-90 -97 -151 -222t-65 -178q49 42 135.5 149t139.5 185z" />
    <glyph glyph-name="et" unicode="et" horiz-adv-x="882" 
d="M950 1087v0q-134 -220 -224 -485t-101 -461.5t94 -212.5q-29 -28 -85.5 -19.5t-108.5 61t-70 155.5q-9 69 9 172q-93 -163 -171 -201q-100 -29 -216.5 36t-134.5 185q-9 216 83.5 402.5t200.5 265.5q-33 40 -49.5 83t6.5 57q291 117 644 112q82 146 144 200
q23 17 50.5 3.5t55.5 -36.5q5 -3 10 -7q33 -25 44.5 -49t-5.5 -40q-40 -36 -80 -84q139 -17 214 -53q51 -29 77 -93.5t25 -119t-32 -54.5q8 70 -101.5 119t-278.5 64zM353 852v0q-27 -21 -69 -78t-76.5 -112.5t-35.5 -72.5q47 -5 86.5 41t64.5 110t30 112zM195 231v0
q66 -28 147.5 77t158 259.5t128.5 274.5q19 41 32 71q41 89 87 178q-212 -11 -373 -94q27 -14 60 -34q15 -10 32 -20q47 -28 45 -73q-2 -35 -31.5 -115t-83 -157.5t-127.5 -104.5q-38 -11 -68.5 -6.5t-64.5 19.5q-32 -110 -10 -180.5t68 -94.5z" />
    <glyph glyph-name="ea" unicode="ea" horiz-adv-x="1255" 
d="M367 851q-27 -21 -68.5 -77t-75 -111t-34.5 -71q46 -5 85 40.5t63.5 108t29.5 110.5zM839 670q6 9 6 28t-7 35.5t-21 20t-36 -18.5q-89 -95 -149 -217.5t-64 -174.5q49 41 134 146t137 181zM382 295q-90 -88 -184 -141q-60 -27 -129.5 5.5t-105.5 71.5q-53 61 -40 171
t68.5 233t130.5 222.5t145 139.5q47 24 88 10t92 -48q15 -9 32 -19q46 -28 44 -72q-2 -34 -30.5 -113t-81.5 -155t-126 -102q-37 -11 -67.5 -7t-63.5 19q-14 -30 -29 -84t-16.5 -100.5t24.5 -53.5q45 -5 127 60t166 168q20 24 38 48q10 21 21 41q89 166 197 258
q60 46 109.5 32t100.5 -51q18 -12 38 -25q25 28 50 58q17 22 36 44q23 22 64.5 9t70.5 -43.5t15 -60.5q-131 -229 -165.5 -351t-3.5 -123q79 5 317 410q10 10 32 5.5t38 -19.5t8 -35q-50 -87 -117.5 -195t-142.5 -199t-149 -129q-64 -25 -120.5 12.5t-65.5 88.5
q-2 33 9 86.5t25 99.5q-32 -38 -72 -93q-73 -108 -173 -206q-27 -21 -77 -9t-91 44t-40 71q2 13 4 27z" />
    <glyph glyph-name="on" unicode="on" horiz-adv-x="1402" 
d="M1522.5 726.5q12.5 -17.5 4 -49.5t-44.5 -103.5t-117.5 -185t-161.5 -160.5q-38 -19 -89.5 -11.5t-93.5 32t-51 54.5q-9 45 6.5 123t39 155t37.5 119q5 15 7 22q-91 -89 -202 -268t-164 -291q-16 -27 -62.5 -22t-86 28t-35.5 51q13 47 46 141q47 134 90 284q27 97 35 170
v3q1 12 1 22q-3 67 -54.5 83t-115 0.5t-102.5 -41.5q107 -48 117 -159q5 -165 -77.5 -342.5t-165.5 -225.5q-92 -40 -208 -6t-144 153q-10 92 30.5 221.5t96.5 214.5q21 24 65.5 10.5t77.5 -44t18 -58.5q-27 -42 -62.5 -115.5t-54.5 -148.5t1 -122q9 -20 31.5 -17t59.5 43
q98 118 142 259t17.5 220t-138.5 12q-44 -24 -88.5 4t-61 71.5t24.5 69.5q126 69 307.5 103.5t335.5 -59.5q69 -46 91.5 -110t16.5 -133v0v0q-7 -59 -28 -119v0q-17 -49 -38 -97q11 16 23 34q73 110 163 232.5t161 174.5q37 21 85.5 7t81 -47.5t21.5 -68.5q-13 -29 -30 -70
q-46 -105 -95 -233t-49 -201q66 33 137.5 122.5t125.5 193.5q40 77 57 91q16 10 26 8q28 -6 40.5 -23.5z" />
    <glyph glyph-name="om" unicode="om" horiz-adv-x="1566" 
d="M1422 1052v0q55 32 106 -28q35 -36 44.5 -63.5t-11.5 -70.5q-28 -57 -79 -192.5t-98 -289.5t-49.5 -267t67.5 -125q-15 -37 -76.5 -25.5t-113 66t-51.5 146.5q10 137 68.5 315.5t94.5 257.5q-80 -76 -164 -207t-137 -266q-8 -15 -39 -11.5t-60.5 22t-33.5 49.5
q0 38 18 119.5t39 157.5t29 98q-52 -55 -143.5 -215t-164.5 -316q-13 -22 -59 -15t-85 31t-33 53q8 21 26 66q42 99 90.5 243t46.5 256q-12 56 -53 64t-107 -2t-117 -30q124 -38 126 -173t-73.5 -304t-166 -208t-199.5 -8t-135 142q-11 98 28 214t91 197q20 23 61.5 11
t72.5 -40.5t18 -54.5q-26 -40 -59.5 -109.5t-49.5 -144t-1 -110.5q9 -19 30 -16t55 41q92 113 132 248.5t15 210t-127 3.5q-28 -19 -59.5 -5t-55.5 44.5t-30.5 59.5t16.5 40q12 4 28 11q100 46 279 87t319 -45q106 -85 103.5 -189t-36.5 -187q19 31 46 76q59 101 128 209
t115 147q22 15 59 3t66 -38t27 -55q-1 -7 -10 -33.5t-22 -61.5q-12 -35 -23.5 -69t-18.5 -57.5t-5 -26.5q7 10 33 47q52 76 131.5 180t136.5 143z" />
    <glyph glyph-name="ms" unicode="ms" horiz-adv-x="2104" 
d="M863 985q33 -34 42 -60.5t-11 -69.5q-20 -44 -56.5 -142t-73.5 -219t-59.5 -234.5t-14.5 -189t62 -81.5q-14 -37 -72.5 -27.5t-112.5 60.5t-54 142q10 135 65.5 312.5t90.5 256.5q-76 -77 -156.5 -209.5t-130.5 -266.5q-8 -15 -37.5 -13t-57.5 19t-32 47q0 38 17 118.5
t37 156t28 97.5q-49 -55 -144 -214t-173 -315q-13 -21 -48.5 -17t-67 23t-33.5 41q11 137 80.5 352.5t135.5 317.5q12 15 38 10.5t53 -20t43 -34.5t8 -33q-25 -37 -65.5 -113t-73.5 -172q34 57 95 152.5t123 182.5t97 119q22 16 57 6t62.5 -35t25.5 -53q-1 -7 -8.5 -29
t-17.5 -51q-15 -43 -26.5 -79t-9.5 -42q6 8 22 31q44 63 119.5 160t132.5 139q52 33 101 -24zM1740 893v0q119 36 188 10.5t96 -79t20.5 -103t-37.5 -60.5q20 124 -125 108.5t-330.5 -100.5t-286.5 -168q137 -221 -169 -429q-77 -47 -165.5 -44.5t-135 52t1.5 144.5
q101 155 263 281q4 4 8 7q-14 18 -28 35q-66 69 -94 157q-21 104 25.5 207.5t136.5 173.5q31 21 73 17t80 -19.5t57 -28.5q104 173 153 214q14 10 42.5 -1t57.5 -32.5t42 -44t-4 -35.5q-59 -40 -125.5 -117t-107 -156.5t-22.5 -126.5q-9 -2 -37 17t-52 49t-22 60
q9 48 42 103q-52 -6 -92 -77t-47 -159.5t41 -147.5q331 224 553 293zM921 144v0q40 9 93 57t88.5 103.5t24.5 88.5q-17 -17 -36 -35q-54 -49 -104.5 -105t-65.5 -109z" />
    <glyph glyph-name="Dr" unicode="Dr" horiz-adv-x="2224" 
d="M813 965q237 157 468 268q11 52 -24 109t-136.5 64t-289.5 -91q26 -1 55 -15.5t46 -36t6 -44.5q-85 -157 -122 -249q-2 -2 -3 -5zM1274 1073q-51 -23 -168 -90t-236 -148.5t-174 -147.5q-54 -129 -93 -262.5t-62 -231.5q-11 -31 -50.5 -37t-77 8t-40.5 45q2 25 24.5 100
t45.5 149q3 9 6 17q-71 -59 -135.5 -140.5t-107 -162.5t-48 -139.5t41.5 -71.5q107 -20 267 71.5t328.5 258t299.5 371t179 411.5zM743 1264q-82 -44 -187 -137t-188.5 -196t-98.5 -177.5t84 -82.5q-46 -41 -112.5 -25t-106.5 79t-7 164q52 132 183 266t293.5 234.5
t306.5 132.5q111 21 219 -7t191.5 -87t118.5 -132q134 40 218.5 18t115 -76.5t1.5 -114.5q0 58 -82.5 80.5t-215.5 -39.5q20 -206 -137.5 -496.5t-439.5 -531.5q-233 -188 -443 -258t-336 -20.5t-107 218.5q15 113 119 282q71 111 161 198.5t190 170.5q31 27 64 55
q11 31 64.5 163t131.5 319zM1771 867v0v0q-25 -133 -99 -327.5t-179 -360t-223 -210.5q-98 -28 -178 8.5t-119.5 96.5t-15.5 103q14 -76 88.5 -85.5t150.5 37.5q207 151 330.5 448t68.5 467q-8 23 14.5 44t59 33t68.5 6t42 -39q23 -80 73.5 -120t103.5 -64t87 -55.5
t27 -92.5q-22 -116 -60 -233q-46 -135 -67 -271q-4 -29 11.5 -17.5t44 50.5t72.5 109.5t89 162.5t67 125q10 12 29 2.5t32.5 -27.5t5.5 -31q-114 -224 -170 -314q-130 -215 -175 -230q-55 0 -98.5 24t-69.5 53.5t-28 47.5q-4 42 18.5 123t52.5 173q26 82 45.5 151.5
t20.5 107.5q-2 28 -19.5 43.5t-45.5 29.5q-25 12 -54 32z" />
    <glyph glyph-name=".notdef" horiz-adv-x="824" 
 />
    <glyph glyph-name=".notdef" horiz-adv-x="824" 
 />
    <glyph glyph-name="space" unicode=" " horiz-adv-x="700" 
 />
    <glyph glyph-name="space" unicode="&#xa0;" horiz-adv-x="700" 
 />
    <glyph glyph-name="exclam" unicode="!" horiz-adv-x="833" 
 />
    <glyph glyph-name="quotedbl" unicode="&#x22;" horiz-adv-x="425" 
 />
    <glyph glyph-name="numbersign" unicode="#" horiz-adv-x="1514" 
 />
    <glyph glyph-name="dollar" unicode="$" horiz-adv-x="1285" 
 />
    <glyph glyph-name="percent" unicode="%" horiz-adv-x="1381" 
 />
    <glyph glyph-name="ampersand" unicode="&#x26;" horiz-adv-x="1487" 
 />
    <glyph glyph-name="quotesingle" unicode="'" horiz-adv-x="434" 
 />
    <glyph glyph-name="parenleft" unicode="(" horiz-adv-x="745" 
 />
    <glyph glyph-name="parenright" unicode=")" horiz-adv-x="872" 
 />
    <glyph glyph-name="asterisk" unicode="*" horiz-adv-x="523" 
 />
    <glyph glyph-name="plus" unicode="+" horiz-adv-x="803" 
 />
    <glyph glyph-name="comma" unicode="," horiz-adv-x="361" 
 />
    <glyph glyph-name="hyphen" unicode="-" horiz-adv-x="802" 
 />
    <glyph glyph-name="hyphen" unicode="&#xad;" horiz-adv-x="802" 
 />
    <glyph glyph-name="period" unicode="." horiz-adv-x="306" 
 />
    <glyph glyph-name="slash" unicode="/" horiz-adv-x="921" 
 />
    <glyph glyph-name="zero" unicode="0" horiz-adv-x="1162" 
 />
    <glyph glyph-name="one" unicode="1" horiz-adv-x="757" 
 />
    <glyph glyph-name="two" unicode="2" horiz-adv-x="1237" 
 />
    <glyph glyph-name="three" unicode="3" horiz-adv-x="1103" 
 />
    <glyph glyph-name="four" unicode="4" horiz-adv-x="1248" 
 />
    <glyph glyph-name="five" unicode="5" horiz-adv-x="1170" 
 />
    <glyph glyph-name="six" unicode="6" horiz-adv-x="1099" 
 />
    <glyph glyph-name="seven" unicode="7" horiz-adv-x="952" 
 />
    <glyph glyph-name="eight" unicode="8" horiz-adv-x="1105" 
 />
    <glyph glyph-name="nine" unicode="9" horiz-adv-x="1035" 
 />
    <glyph glyph-name="colon" unicode=":" horiz-adv-x="570" 
 />
    <glyph glyph-name="semicolon" unicode=";" horiz-adv-x="589" 
 />
    <glyph glyph-name="less" unicode="&#x3c;" horiz-adv-x="927" 
 />
    <glyph glyph-name="equal" unicode="=" horiz-adv-x="1083" 
 />
    <glyph glyph-name="greater" unicode="&#x3e;" horiz-adv-x="926" 
 />
    <glyph glyph-name="question" unicode="?" horiz-adv-x="1215" 
 />
    <glyph glyph-name="at" unicode="@" horiz-adv-x="1677" 
d="M986 1559v0q194 0 314 -72.5t177.5 -190t62.5 -258t-31.5 -281t-104.5 -258.5t-157.5 -190t-188.5 -72q-91 0 -159.5 62.5t-81.5 164.5q-71 -175 -174 -217t-184 29.5t-87 235.5q0 171 71.5 354.5t187.5 298.5q98 88 195.5 72t135.5 -132q30 59 81 101q48 27 108.5 -8.5
t91 -88.5t-8.5 -79q-43 -26 -87.5 -125.5t-73.5 -220t-25.5 -211t54.5 -97.5q44 -1 88 52.5t80.5 144.5t57.5 200.5t18 219t-37 201.5t-106.5 148.5t-193.5 56.5q-177 0 -317 -83.5t-237 -216t-146.5 -286t-46 -297.5t64 -250t182.5 -143q79 -21 173.5 3t119.5 101
q60 3 56 -44.5t-58 -110t-142 -105t-197 -29.5q-170 30 -270 131.5t-136 248t-14 314t97.5 331t198 298t286.5 216.5t363 82zM877 887v0q27 155 -22 169t-133 -159q-23 -54 -50 -130.5t-46 -152t-15.5 -127t45.5 -51.5q46 0 110 136.5t111 314.5z" />
    <glyph glyph-name="A" unicode="A" horiz-adv-x="1144" 
d="M890 963l10 22q39 88 76.5 174t57.5 142.5t8 57.5q-185 -125 -382 -403q64 16 115 15.5t102 -7.5q6 -1 13 -1zM823 785q-8 22 -71.5 19.5t-137 -23.5t-113.5 -54q-22 -32 -70 -124t-96 -211.5t-71 -234t4 -192.5q9 -23 -2.5 -33t-29 -9t-28.5 10q-47 38 -78 120
t-12.5 220.5t122.5 344.5q-3 -1 -31 -23.5t-64.5 -57t-64.5 -71.5t-31 -68q-30 -15 -64.5 20t-50.5 88t11 93q40 48 129.5 107.5t183.5 109.5t148 70q117 182 272 358.5t298 274.5q61 38 129 25t111 -56.5t31 -98.5q-15 -53 -40 -122.5t-48 -125.5q-107 -263 -217 -562.5
t-172 -546.5q-15 -46 -69 -52.5t-101 16t-39 64.5q105 358 262 725z" />
    <glyph glyph-name="B" unicode="B" horiz-adv-x="1252" 
d="M526 746q23 24 71 70q64 62 145 145.5t149.5 168.5t94 153t-21.5 98q-42 20 -137 -12.5t-182 -92.5q17 -2 40 -14.5t36 -32.5t3 -41q-65 -133 -132 -291q-36 -85 -66 -151zM339 -39q67 32 177.5 134.5t206.5 215.5t121 177q-83 -51 -192 -144.5t-198.5 -197
t-114.5 -185.5zM534 1211q-141 -113 -225.5 -225t-91.5 -183.5t85 -61.5q-15 -54 -79.5 -55t-123.5 46.5t-56 139.5q9 90 93 203t211 217.5t265 170t257 61.5q82 -7 151.5 -59t104 -125.5t10.5 -144.5q-40 -95 -112 -171t-126 -119q-7 -7 -13 -12q58 -8 112.5 -46t86.5 -92
q25 9 48 17q105 43 210 56q16 -1 20.5 -27.5t-4.5 -55t-34 -36.5q-136 -32 -221 -77q-30 -192 -192.5 -401t-376.5 -350q-136 -85 -232 -78t-120 84t54 202q118 172 311 332.5t352 247.5q6 4 5.5 24t-9 41.5t-29.5 30.5q-49 15 -121 -27.5t-147.5 -112.5t-135 -136.5
t-83.5 -98.5q-25 -31 -49 -33t-47 11q-27 13 -42.5 37t-5.5 58q50 152 142.5 380t157.5 368z" />
    <glyph glyph-name="C" unicode="C" horiz-adv-x="1026" 
d="M305 88q105 -7 218.5 64t219.5 183t189.5 227t127.5 196q23 37 50 37.5t40 -23.5t-7 -61q-137 -237 -288.5 -418.5t-315 -279t-337.5 -80.5q-110 14 -170.5 91t-77 199t4.5 270q29 201 112.5 410.5t205.5 380.5t266 256.5t295 39.5q91 -34 108 -155.5t-15 -283
t-90.5 -316.5t-118.5 -258q-13 -18 -46.5 -16.5t-67.5 19t-48 45.5t11 63q25 32 65.5 117t81.5 194.5t65.5 213t17 173.5t-63.5 76q-64 0 -146 -93.5t-164.5 -245t-147 -323.5t-93.5 -328t-3.5 -258.5t122.5 -115.5z" />
    <glyph glyph-name="D" unicode="D" horiz-adv-x="1534" 
d="M813 965q237 157 468 268q11 52 -24 109t-136.5 64t-289.5 -91q26 -1 55 -15.5t46 -36t6 -44.5q-85 -157 -122 -249q-2 -2 -3 -5zM1274 1073q-51 -23 -168 -90t-236 -148.5t-174 -147.5q-54 -129 -93 -262.5t-62 -231.5q-11 -31 -50.5 -37t-77 8t-40.5 45q2 25 24.5 100
t45.5 149q3 9 6 17q-71 -59 -135.5 -140.5t-107 -162.5t-48 -139.5t41.5 -71.5q107 -20 267 71.5t328.5 258t299.5 371t179 411.5zM743 1264q-82 -44 -187 -137t-188.5 -196t-98.5 -177.5t84 -82.5q-46 -41 -112.5 -25t-106.5 79t-7 164q52 132 183 266t293.5 234.5
t306.5 132.5q111 21 219 -7t191.5 -87t118.5 -132q134 40 218.5 18t115 -76.5t1.5 -114.5q0 58 -82.5 80.5t-215.5 -39.5q20 -206 -137.5 -496.5t-439.5 -531.5q-233 -188 -443 -258t-336 -20.5t-107 218.5q15 113 119 282q71 111 161 198.5t190 170.5q31 27 64 55
q11 31 64.5 163t131.5 319z" />
    <glyph glyph-name="E" unicode="E" horiz-adv-x="1164" 
d="M1156 492q-40 -85 -136.5 -185t-225.5 -189t-265 -141.5t-256 -42t-198 107.5q-55 74 -56.5 156.5t34.5 166.5q54 122 147.5 229t179.5 177.5t117 82.5q-8 8 -18 17q-53 45 -93 105.5t-14 144.5q29 73 92.5 140t127.5 115t93 65q150 85 238.5 78t136.5 -67
q68 -81 38.5 -191t-163.5 -211q-34 -20 -82.5 9t-68.5 72.5t32 67.5q33 14 74 45t64.5 65t6.5 56q-16 12 -86.5 -23.5t-157 -98t-148.5 -132.5t-61 -127q5 -34 34.5 -42t61.5 -4t44 8q36 8 69.5 -17.5t54.5 -64.5t21.5 -71t-30.5 -36q-49 -6 -144.5 -71t-197.5 -161
t-168.5 -195t-56.5 -173q21 -84 137 -65.5t273.5 107t303.5 216.5t226 265q15 24 25 11t13.5 -48.5t-0.5 -77t-18 -73.5z" />
    <glyph glyph-name="F" unicode="F" horiz-adv-x="1049" 
d="M321 1142q83 -34 123 -78t60 -150l128 359q-104 -44 -186 -78q-53 -23 -125 -53zM1035 1594q70 -5 104.5 -52.5t41 -104.5t-7 -89.5t-39.5 -6.5q-39 39 -124.5 35.5t-174.5 -28.5t-137 -49q30 3 59.5 -10t47 -32.5t12.5 -36.5l-193 -493q74 40 144 32t120.5 -41.5
t65.5 -68.5t-21 -50q-3 1 -7 3q-8 6 -27 11.5t-59 2t-110 -25.5t-178 -70l-212 -559q-19 -41 -70 -39.5t-91.5 31t-27.5 72.5l140 370q-12 -6 -37 -22.5t-51 -34.5q-29 -21 -45 -31q-31 -15 -70.5 14t-59.5 70t9 62q107 62 204 112q63 33 98 54q15 65 27.5 154t7 170.5
t-47 125.5t-135.5 20q-42 -8 -72 27t-33 79.5t36 64.5q107 47 211 94q214 100 396 170t306 70z" />
    <glyph glyph-name="G" unicode="G" horiz-adv-x="1285" 
d="M278 483q120 96 268 252.5t271 303.5t168 214q6 9 9 27.5t-1 38t-17 30.5q-60 45 -149 -11t-185.5 -172.5t-180.5 -253t-134.5 -254t-48.5 -175.5zM1076 1358q32 38 57 71q10 14 16 21q28 29 79 24.5t91.5 -28.5t37.5 -56q-36 -174 -98.5 -386.5t-151.5 -423t-204 -380
t-256 -258.5q-135 -78 -261.5 -81t-216.5 51.5t-115 147.5q-25 91 39 201q22 -118 78 -198.5t132 -78.5q134 14 282 169.5t277 404.5t204 545q-80 -101 -225 -271t-286.5 -314t-209.5 -166q-66 -13 -130 23t-103.5 89.5t-32.5 94.5q42 167 152 359t257 339t302 179
q82 13 157 -8.5t129 -69.5z" />
    <glyph glyph-name="H" unicode="H" horiz-adv-x="1799" 
d="M927 753q-91 -33 -251 -159t-320 -302q-169 -195 -181.5 -279t87.5 -45t268 213q133 143 234.5 299t162.5 273zM1416 129q1 -2 31.5 20.5t86.5 89t134.5 197t175.5 343.5q11 12 30.5 9t32.5 -17.5t4 -36.5q-126 -312 -254.5 -515.5t-222.5 -252.5q-38 -17 -86.5 -7
t-88 34.5t-50.5 53.5q-23 71 3 200t85 292t133 336q-59 4 -131.5 -7t-115.5 -28q-63 -170 -188.5 -384.5t-297.5 -389.5q-126 -122 -250.5 -179t-224 -54t-149.5 61q-40 46 -36.5 122.5t61.5 182.5q68 126 231 289q134 133 301.5 243.5t367.5 182.5q13 30 35.5 110.5t35 175
t-4.5 167t-84 86.5q-87 12 -209.5 -52.5t-240.5 -174.5t-191 -234.5t-60 -232.5q11 -56 62.5 -82.5t118.5 -3.5q-58 -47 -150 -51t-162.5 47t-64.5 168q14 119 102.5 257.5t225 254.5t295 168t312.5 -3q158 -61 212 -143t43.5 -183.5t-45.5 -223.5q160 14 238 -5
q170 361 259 482q20 22 53 13t64.5 -34t47 -53.5t-0.5 -47.5q-42 -43 -112 -164t-146.5 -279.5t-137.5 -316t-85.5 -274.5t8.5 -156z" />
    <glyph glyph-name="I" unicode="I" horiz-adv-x="692" 
d="M389 -130q-76 34 -196.5 24t-197.5 -46q-9 -2 -21 17.5t-20 49t-5 57t25 40.5q51 25 133 38q51 320 178.5 657t273.5 590q-71 -13 -120 -32q-16 -5 -30 17.5t-23 56t-11 61.5t6 34q43 22 176.5 41t265.5 23.5t173 -14.5q20 -14 23.5 -44.5t-3.5 -64t-17.5 -58.5
t-18.5 -28q-59 24 -151 28q-2 -4 -5 -7q-156 -185 -269 -424t-178 -462t-79 -360q78 -2 102 -18q20 -18 19 -55.5t-11.5 -73.5t-18.5 -47z" />
    <glyph glyph-name="J" unicode="J" horiz-adv-x="1404" 
d="M1036 832q-162 -95 -324 -245.5t-284 -302.5q-155 -200 -174 -301t89 -54t333 293q131 150 212 301.5t133 275.5q8 17 15 33zM500 668q-44 -43 -118.5 -66.5t-152.5 -18.5t-132.5 47.5t-58.5 131.5q1 122 86 274.5t230 291.5t324 221t368 61q161 -23 236.5 -95.5t89 -180
t-9.5 -235.5q67 8 114 -10.5t76 -50.5q-72 -15 -134.5 -39t-97.5 -49q-52 -181 -169 -410.5t-295 -435.5q-194 -209 -385 -280t-299 -8q-52 31 -68 95.5t15 160.5q46 157 249 398q125 146 314.5 286.5t416.5 249.5q10 31 29.5 115.5t25.5 182t-24.5 167t-120.5 71.5
q-104 -5 -239 -92t-259 -218t-193 -268.5t-40 -243.5q19 -54 83 -71t139 19z" />
    <glyph glyph-name="K" unicode="K" horiz-adv-x="1383" 
d="M419 898q-5 -39 12 -92.5t42 -100.5t44 -67q20 31 62.5 126.5t87.5 221.5q42 115 72.5 227t35 193t-30.5 105q-66 34 -161 -28.5t-194.5 -185.5t-180.5 -270.5t-119.5 -283.5t-11.5 -224.5t143 -92.5q-69 -35 -140 -33t-124 48q-40 36 -57 102q-11 41 -9 95q2 68 39 181
q43 131 125.5 281.5t195.5 278t249.5 188t288.5 11.5q111 -44 130 -167t-18.5 -277.5t-93.5 -292.5t-95 -211q29 23 125 117t215 221.5t216 252.5t129 211t-45 96q49 34 108.5 16t98 -69t23.5 -116q-42 -137 -204.5 -308.5t-359 -333t-342.5 -264.5q57 -62 183.5 -160
t262.5 -181t221 -100q43 -6 93 11t66 54q18 -2 6 -47t-49 -101t-95 -90t-132 -14q-121 41 -252.5 132.5t-243 192.5t-172.5 169q-32 -65 -94 -172.5t-113 -151.5q-23 -14 -78.5 -1t-98 40t-26.5 57q77 48 165 172q73 103 118 192q-22 31 -48 79t-41 107q-14 60 -0.5 126
t72.5 131z" />
    <glyph glyph-name="L" unicode="L" horiz-adv-x="1263" 
d="M1393 1603q69 -29 85 -93t-2.5 -143t-53 -153t-67.5 -123q-254 -390 -625 -557q-59 -167 -74 -290q207 29 348 -19q80 -30 141.5 -106.5t81 -155.5t-27.5 -116q-5 145 -154.5 204.5t-377.5 20.5t-467 -189q-28 -15 -68 20.5t-62.5 83t3.5 69.5q191 93 368 142
q18 128 66 292q-19 -4 -73 -7.5t-119 -1.5t-117 13q-101 27 -143 98.5t-40 139t32 82.5q0 -57 60.5 -94t149.5 -55t173.5 -18.5t132.5 13.5q54 156 125.5 312t174.5 316q53 86 133 174.5t181 135t216 5.5zM1138 1326q-103 -132 -197.5 -295t-149.5 -300q150 65 290.5 220
t214.5 316q92 207 49 234.5t-207 -175.5z" />
    <glyph glyph-name="M" unicode="M" horiz-adv-x="1687" 
d="M1541 -83q-72 -60 -156.5 -48t-139.5 94.5t-40 232.5q28 210 85 425.5t89 303.5q-23 -40 -95.5 -170.5t-142 -269.5t-85.5 -205q-4 -14 -31 -18.5t-62 3t-62 29t-30 59.5q-1 56 25 182t57 251.5t46 179.5q-145 -235 -255.5 -486.5t-175.5 -443.5q-10 -23 -46.5 -23
t-78.5 18t-66.5 51t-9.5 78l1 2q6 15 44 109t90 235t101.5 295.5t80 291t25.5 221.5t-63 86q-73 -5 -156 -98.5t-154.5 -232t-107.5 -279.5t-14 -242q13 -51 58.5 -67t99.5 17q-16 -46 -78 -67t-133 -4.5t-113.5 84.5t-19.5 201q35 178 128 359.5t225 304t286 126.5
q125 -4 168.5 -91t33.5 -214.5t-44 -253t-64 -206.5q73 142 190 346t184 292q25 26 72.5 5.5t82 -59t21.5 -69.5q-83 -150 -132 -322.5t-69 -269.5q-5 -25 -9 -39q27 56 128.5 239.5t216 369.5t178.5 251q22 16 64.5 -2t73.5 -50t19 -59q-48 -85 -120.5 -259t-140.5 -384
t-104.5 -400t-12 -306.5t137.5 -103.5z" />
    <glyph glyph-name="N" unicode="N" horiz-adv-x="1456" 
d="M1291 -83q-68 -56 -147.5 -49t-136 76t-55.5 197q6 130 48.5 285t95.5 312q60 175 97 324q36 159 6 194.5t-100.5 -28t-154.5 -201.5q-100 -161 -211.5 -404t-223.5 -587q-9 -23 -47 -22.5t-81 19.5t-66.5 52t-4.5 75q23 45 78 181.5t117.5 315t106.5 348.5t44.5 281
t-69.5 114q-72 -5 -155 -98.5t-153.5 -232t-106 -279.5t-14.5 -242q14 -51 59 -67t98 17q-16 -46 -77.5 -67t-132 -4.5t-112.5 84.5t-19 201q35 178 127 359.5t223 304t283 126.5q124 -4 166 -87.5t32.5 -199.5t-38.5 -219t-46 -146q1 3 3 7q32 70 92.5 185.5t143 226.5
t180 169.5t201.5 14.5q74 -31 84.5 -166.5t-70.5 -398.5q-6 -21 -13 -42q-54 -170 -102 -339t-70 -307t3 -216.5t118 -66.5z" />
    <glyph glyph-name="O" unicode="O" horiz-adv-x="1348" 
d="M559 -34q131 71 243.5 225.5t192 348t110 381t-3.5 324.5q-14 70 -68 102t-180 -20q-155 -70 -285 -201t-221.5 -291.5t-133 -317.5t-18.5 -279.5t123 -177.5q-63 144 -25 355.5t142.5 405.5t242.5 287q30 18 62.5 4.5t57 -42.5t33.5 -57.5t-6 -40.5q-98 -76 -175.5 -212
t-121 -292t-39.5 -291.5t70 -210.5zM1290 1206q41 -159 6.5 -364t-119.5 -408.5t-197.5 -355.5t-228.5 -205q-71 -28 -157.5 -12t-158.5 60t-100 98q-163 36 -239.5 132t-81.5 231q-5 207 106.5 438.5t287 412t362.5 235.5q112 26 223 -9t192 -105t105 -148z" />
    <glyph glyph-name="P" unicode="P" horiz-adv-x="1214" 
d="M490 422q80 -43 195 81t242 371q59 115 99 222.5t46.5 183.5t-34.5 98q-45 17 -145.5 -17t-191.5 -95q19 -1 40 -19.5t33 -43.5t2 -47q-24 -55 -62.5 -155t-81.5 -215q-44 -118 -82.5 -217.5t-59.5 -146.5zM585 1200q-145 -113 -231 -223t-91 -178.5t93 -55.5
q-16 -35 -84.5 -39.5t-132 31.5t-64.5 123q11 118 152.5 270t336.5 266t366 117q88 -4 165.5 -59.5t121 -133.5t30.5 -150q-18 -86 -67 -209t-123 -250.5t-167 -227t-200 -137.5t-222 18q-38 -101 -88.5 -203t-100.5 -171q-52 -69 -122 -89t-132.5 -6t-93 45t-5.5 64
q59 -34 129.5 38.5t144.5 212t143 304.5t124.5 315.5t88.5 244.5q21 61 29 83z" />
    <glyph glyph-name="Q" unicode="Q" horiz-adv-x="1404" 
d="M614 28q171 113 299.5 359t181.5 514t1 450q-18 68 -73.5 94.5t-178.5 -35.5q-190 -107 -334 -297.5t-220.5 -403.5t-62 -380.5t142.5 -228.5q-70 140 -42.5 353.5t123 415.5t228.5 308q30 21 63 9.5t59 -38t36.5 -54t-4.5 -41.5q-127 -116 -208.5 -323t-91.5 -406.5
t81 -295.5zM982 109l4 1q56 -2 106 -9q77 -18 140.5 -79t87 -129.5t-17.5 -107.5q-25 129 -155.5 144t-332.5 -42.5t-424 -206.5q-18 -14 -50.5 3.5t-64 50t-45.5 65t4 48.5q111 67 251 129q-64 35 -97 85q-265 40 -319.5 241t38 462.5t270 481t377.5 296.5
q172 52 330 -22.5t202 -191.5q64 -211 3.5 -500t-192.5 -538q-55 -105 -115 -181z" />
    <glyph glyph-name="R" unicode="R" horiz-adv-x="1173" 
d="M428 464q69 -34 158 22.5t175 168t148 243t78 247.5t-36 183q-36 30 -139 -3t-194 -95q19 -1 43.5 -12.5t39.5 -29.5t5 -40q-29 -57 -75 -171.5t-93 -237.5q-72 -189 -110 -275zM191 644q25 -40 69 -91l242 611q-216 -168 -252.5 -262t112.5 -73q-16 -35 -84 -39.5
t-131.5 31.5t-65.5 122q8 88 135.5 212.5t302.5 221t328 98.5q88 -5 166.5 -70.5t126 -154t42.5 -162.5q-11 -100 -71 -234.5t-157 -261t-217.5 -201.5t-251.5 -56q141 -122 285.5 -212t245.5 -101q51 -2 84 16t43 48q26 -6 14 -48.5t-52 -94t-97.5 -83t-122.5 -15.5
q-109 34 -261 143.5t-285 243.5l-134 -358q-8 -17 -38 -17t-65.5 11.5t-58 30.5t-16.5 40q54 138 152 399q10 28 21 56q-12 16 -22 32q-34 59 -30 124.5t43 93.5z" />
    <glyph glyph-name="S" unicode="S" horiz-adv-x="1260" 
d="M310 502q-53 -43 -96.5 -121t-56.5 -156.5t27.5 -122.5t157.5 -19q107 26 216.5 91.5t184.5 145.5t78 152q-5 88 -87.5 138t-192.5 88q-100 35 -182.5 81t-108.5 122q-24 92 32 207t161 221t228.5 170.5t235 55t180.5 -124.5q21 40 50.5 90.5t58 92t46.5 53.5
q28 15 81 -10t88 -64t9 -66q-59 -52 -131 -158t-134 -228t-90 -220t3 -133q-26 -23 -69.5 -7t-76.5 59t-29 103q14 87 52 191q30 83 48 161.5t-1 137.5q-18 37 -97.5 -1.5t-178.5 -121t-176 -178t-90 -172.5q-4 -59 58.5 -97.5t157.5 -75.5q90 -34 177.5 -81t144 -120.5
t51.5 -189.5q-10 -102 -127.5 -219t-288.5 -205t-341 -102q-139 -7 -203 36q-75 51 -73.5 144.5t50.5 199.5q84 174 202 288q14 11 30.5 6t24.5 -17.5t-3 -23.5z" />
    <glyph glyph-name="T" unicode="T" horiz-adv-x="764" 
d="M235 1101q90 -29 153.5 -89.5t79.5 -152.5l128 342l-236 -63q-53 -17 -125 -37zM1162 1412.5q45 -47.5 51.5 -105.5t-7 -89t-39.5 -1q-74 60 -265.5 39.5t-239.5 -38.5q30 -1 59.5 -17.5t55 -38.5t13.5 -47q-298 -614 -468 -1127q-19 -38 -70 -30t-91.5 43t-27.5 76
q75 189 117.5 304t62.5 199q15 63 27 146.5t-1 160t-76.5 133.5t-157.5 45q-42 -2 -72 37t-33 83.5t36 59.5q107 33 211 66q287 77 460.5 114t291.5 36t163 -48.5z" />
    <glyph glyph-name="U" unicode="U" horiz-adv-x="1538" 
d="M703 1480q-75 6 -171 -74.5t-185.5 -207.5t-143.5 -262t-45 -238q8 -53 52 -75.5t103 3.5q-22 -44 -87.5 -56t-135.5 15t-104.5 100.5t4.5 201.5q58 172 174.5 338.5t266 269t305.5 84.5q110 -19 149 -99.5t28.5 -195.5t-48 -237.5t-81.5 -224.5q-14 -35 -33 -80
q-63 -143 -124.5 -310t-59.5 -261q7 -61 66 1t148 203.5t189.5 318t191 343.5t150.5 282q38 71 57 106q24 36 74.5 26.5t87.5 -44.5t22 -76q-89 -194 -166 -422t-124.5 -439.5t-47 -354.5t66.5 -167q-41 -28 -98.5 1.5t-103.5 89t-54 120.5q8 156 46.5 307t76.5 267
q16 48 27 86q-21 -35 -67 -121q-50 -96 -119.5 -220.5t-144 -243t-141.5 -198.5t-111 -80q-57 0 -107 38t-83.5 95t-41.5 117q-4 58 33.5 177t90.5 250.5t95 228.5q14 33 24 58q50 117 93.5 242.5t52 216t-46.5 101.5z" />
    <glyph glyph-name="V" unicode="V" horiz-adv-x="1443" 
d="M614 1358q-79 -6 -161 -96t-147 -222.5t-91.5 -267t6.5 -229.5q20 -47 71 -61.5t107 18.5q-14 -44 -79.5 -65.5t-144.5 -7t-131.5 78t-40.5 188.5q22 170 106.5 343t217.5 292t300 126q114 0 168.5 -61.5t66.5 -161t0.5 -215t-29.5 -222.5q-2 -18 -5 -35q-6 -40 -16 -95
q-17 -100 -33.5 -217.5t-15 -211t36.5 -123.5q219 543 394.5 899t324.5 520q65 66 154 89t170.5 13t126 -43t19.5 -79q-23 44 -94.5 37t-153.5 -79q-157 -151 -321 -441.5t-304 -599t-225 -516.5q-92 -10 -184.5 45.5t-127.5 139.5q-20 61 -8.5 201t36 292t42.5 248
q22 116 37 235.5t2 201t-74 82.5z" />
    <glyph glyph-name="W" unicode="W" horiz-adv-x="1891" 
d="M662 1393q-75 -2 -172.5 -93t-188 -227.5t-145 -277t-45.5 -242.5q8 -52 52.5 -70t104.5 14q-23 -46 -89.5 -65t-137 0.5t-105.5 89.5t5 202q58 178 176 356.5t269.5 297t309.5 117.5q112 -7 148.5 -83t23 -191t-54 -240.5t-84.5 -232.5q-37 -90 -89.5 -232.5t-89 -270.5
t-25.5 -176q17 -47 75 39.5t137.5 251t160 353t143.5 346.5t88 230q19 41 80 30t109 -49.5t30 -79.5q-79 -191 -133.5 -385.5t-84.5 -356t-33 -253.5t22 -77q61 44 143.5 163.5t168.5 282t158 335.5t112.5 324.5t31 250t-85.5 111.5q41 33 117.5 0t129 -121t21.5 -222
q-43 -156 -146 -379t-227.5 -442.5t-233.5 -365.5t-163 -149q-87 5 -157 57.5t-90 138.5q-11 72 12 211.5t46 233.5q-30 -63 -68 -151q-50 -116 -108.5 -239t-117.5 -208.5t-111 -91.5q-88 0 -154.5 67t-80.5 158q-4 58 34.5 181.5t92.5 261t96 239.5q14 33 24 58
q50 122 94.5 252.5t53 222t-48.5 96.5z" />
    <glyph glyph-name="X" unicode="X" horiz-adv-x="1156" 
d="M156 -364q-24 -39 -76.5 0.5t-86.5 128.5t-5 198q38 112 132 255t200 276t180 217q-31 150 -55.5 310.5t-24.5 316.5q0 44 27 76t66 52.5t77 28.5t63.5 2.5t24.5 -25.5q-31 -126 -26.5 -300t23.5 -268q54 59 158 160t225.5 202.5t228.5 159.5q69 34 139 23t124 -44.5
t74.5 -68.5t-10.5 -49q-61 32 -167.5 -20t-235 -156t-256.5 -228t-234 -237q51 -220 135 -404t175 -283.5t167 -65.5q16 -40 -36.5 -59t-130 -13t-135.5 41q-75 52 -170 224.5t-161 382.5q-80 -86 -171.5 -203t-165 -239.5t-99.5 -226.5t27 -164z" />
    <glyph glyph-name="Y" unicode="Y" horiz-adv-x="1486" 
d="M666 1405q-92 -17 -176 -94t-147 -181t-92 -201t-11.5 -153.5t93.5 -39.5q-33 -57 -97 -42.5t-118 79t-54 157.5q5 96 74.5 205.5t177 202t227 139.5t223.5 18q95 -35 117.5 -127.5t-19.5 -187.5q-15 -32 -40 -85q-44 -90 -99.5 -211.5t-101 -240.5t-58.5 -201.5
t29 -94.5q54 -8 143.5 101t195 288.5t207 382.5t179.5 383q22 40 79.5 34t105 -39.5t39.5 -74.5q-40 -123 -89 -306q-47 -176 -106 -371.5t-133 -376t-167 -310.5q-147 -194 -290 -255t-253 -30t-157 112t-1 171q48 -141 153 -154.5t235 98t253.5 345.5t207.5 586
q-63 -120 -143.5 -258.5t-172 -256.5t-186.5 -175.5t-188 -14.5q-92 48 -112 141t9 211.5t83.5 244.5t110.5 241q78 156 109.5 252.5t-40.5 88.5z" />
    <glyph glyph-name="Z" unicode="Z" horiz-adv-x="1456" 
d="M128 54q28 7 85.5 32t115 56.5t88.5 57.5q-37 0 -99 -24t-118 -57.5t-72 -64.5zM906 344q122 -31 218.5 -106t127.5 -149q19 -54 3.5 -144.5t-54 -160.5t-86.5 -63q52 138 -7.5 240.5t-170.5 160.5t-215 60q-49 -39 -146 -104t-208 -121.5t-203 -69.5q-67 -6 -126 34
t-82 100.5t17 118.5q67 83 182.5 136t241.5 79t226 28q72 54 165 154.5t184 221t159 233t90.5 189.5t-21.5 90q-96 21 -214 -23t-232 -126t-200 -178t-117.5 -179t15.5 -129q-55 -15 -97.5 39t-53 139t30.5 165q67 116 192 220t267 175.5t259 89.5q113 12 191 -57.5
t109 -179.5t3 -219q-33 -110 -100.5 -219.5t-144.5 -204.5t-139 -164q-41 -47 -64 -76z" />
    <glyph glyph-name="bracketleft" unicode="[" horiz-adv-x="957" 
d="M1100 1632q26 0 36 -12q8 -10 7 -21v-3q-3 -12 -16 -24t-34 -12h-174l-648 -1712h177q25 0 40 -14q14 -13 12 -27v-3q-3 -17 -25 -31q-23 -14 -71 -14h-288q-53 0 -85 23q-31 24 -27 66q164 432 296 782q14 37 27 73q14 35 27 71q46 123 92 244l103 274q44 120 73 195
q30 73 30 75q11 30 55 50q45 20 92 20h301z" />
    <glyph glyph-name="backslash" unicode="\" horiz-adv-x="766" 
d="M275 1719v0q45 -134 109 -434.5t131 -643.5q112 -573 182 -846q9 -44 -31.5 -74t-90.5 -32t-71 40q-39 97 -92.5 317t-115.5 495q-72 325 -145 621t-135 452q-16 51 41.5 92t127 49.5t90.5 -36.5z" />
    <glyph glyph-name="bracketright" unicode="]" horiz-adv-x="1041" 
d="M-119 -211v0q-26 0 -36 12q-8 10 -7 21v3q3 12 16 24t34 12h174l648 1712h-177q-25 0 -40 14q-14 13 -12 27v3q3 17 25 31q23 14 71 14h288q53 0 85 -23q31 -24 27 -66q-164 -432 -296 -782q-14 -37 -27 -73q-14 -35 -27 -71q-46 -123 -92 -244l-103 -274
q-44 -120 -73 -195q-30 -73 -30 -75q-11 -30 -55 -50q-45 -20 -92 -20h-301z" />
    <glyph glyph-name="asciicircum" unicode="^" horiz-adv-x="778" 
d="M709 1161v0q-10 -25 -39 -41.5t-62.5 -24t-56.5 -5.5t-20 14q4 14 -1 61.5t-17 104t-26 99.5t-28 49q-13 2 -59 -38.5t-102 -98t-99 -108t-51 -69.5q-7 -16 -31.5 -12t-53 21.5t-46 42.5t-9.5 51q12 31 79 96.5t154 137t160 120t99 44.5q31 -14 84.5 -107t93.5 -195
t31 -142z" />
    <glyph glyph-name="underscore" unicode="_" horiz-adv-x="1215" 
d="M1083 245v0q45 0 58.5 -29.5t1.5 -66.5t-45.5 -66.5t-81.5 -29.5q-161 0 -324 1q-301 3 -598 0q-70 3 -82 49t19 94t87 48q249 2 497 0q233 -2 468 0z" />
    <glyph glyph-name="grave" unicode="`" horiz-adv-x="487" 
d="M184 1559v0q43 -38 116 -132t113 -174q14 -36 -8 -65t-55.5 -40.5t-53.5 5.5q-33 36 -109.5 107t-154.5 125q-32 32 -5 82t75 82t82 10z" />
    <glyph glyph-name="a" unicode="a" 
d="M779 746q10 10 32 5.5t38 -19.5t8 -35q-50 -87 -117.5 -195t-142.5 -199t-149 -129q-64 -25 -120.5 12.5t-65.5 88.5q-2 33 9 86.5t25 99.5q-32 -38 -72 -93q-73 -108 -173 -206q-27 -21 -77 -9t-91 44t-40 71q18 155 107 321t197 258q60 46 109.5 32t100.5 -51
q18 -12 38 -25q25 28 50 58q17 22 36 44q23 22 64.5 9t70.5 -43.5t15 -60.5q-131 -229 -165.5 -351t-3.5 -123q79 5 317 410zM304 670q6 9 6 28t-7 35.5t-21 20t-36 -18.5q-89 -95 -149 -217.5t-64 -174.5q49 41 134 146t137 181z" />
    <glyph glyph-name="b" unicode="b" horiz-adv-x="696" 
d="M557 671q111 67 185.5 74t121.5 -35q-49 -14 -128.5 -60.5t-151.5 -103.5t-98 -102q-29 -58 -108.5 -174.5t-174.5 -191.5q-42 -31 -81.5 -39t-73.5 17q-53 43 -36.5 98.5t72.5 114.5t120 115q68 60 107 106q28 36 47 88t23.5 96.5t-10.5 58.5q-84 -42 -157 -142
t-125.5 -213.5t-74.5 -192.5q-12 -29 -59 -24.5t-86 32t-27 67.5q48 125 103 282q79 231 171.5 458t200.5 369q20 22 58 15t74 -31.5t51 -52.5t-10 -48q-66 -50 -141.5 -180.5t-130.5 -277.5l14 10q37 29 73 43t88 -3q31 -10 55 -17q64 -15 88 -41.5t21 -114.5z" />
    <glyph glyph-name="c" unicode="c" horiz-adv-x="571" 
d="M585 734q6 7 18 3.5t25 -13.5t20.5 -20.5t3.5 -17.5q-16 -26 -36 -61q-47 -82 -111.5 -181t-141.5 -179.5t-162 -106.5q-50 -11 -117 9t-120 59.5t-60 85.5q-8 109 45 253t137.5 259t170.5 138q18 4 34 -2t39 -18l28 -14l10 15q13 18 26 35.5t19 20.5q34 12 74.5 -12
t64 -58.5t7.5 -52.5q-78 -73 -124.5 -162.5t-35.5 -137.5q-13 -14 -44.5 -6t-60 34.5t-31.5 67.5q1 37 20.5 89t37.5 84q-43 -22 -92.5 -113t-82.5 -198.5t-27.5 -180t72.5 -58.5q79 24 159 119t165 220q34 50 70 100z" />
    <glyph glyph-name="d" unicode="d" horiz-adv-x="634" 
d="M702 1383q38 18 84 -4.5t71.5 -58t1.5 -57.5q-96 -77 -186.5 -229t-160 -335t-103.5 -352.5t-17 -281.5t100 -122q-27 -29 -81 -24t-105.5 54t-73.5 151.5t14 268.5q1 7 -1.5 8t-6.5 -6q-30 -57 -76 -118.5t-80 -76.5q-32 -11 -76 -3.5t-78.5 34t-38.5 72.5
q-3 72 26 176.5t82 209.5t121.5 177.5t144.5 80.5q37 1 72 -13t66 -33q20 48 73 151t116 201.5t112 129.5zM329 759q7 26 0 41.5t-36 6.5q-42 -18 -87.5 -82.5t-82 -144t-51 -142t6.5 -75.5q15 -3 52 46.5t80.5 122t77 137t40.5 90.5z" />
    <glyph glyph-name="e" unicode="e" horiz-adv-x="540" 
d="M468 707q11 10 29 4t29.5 -21.5t2.5 -33.5q-55 -156 -176.5 -292.5t-249.5 -209.5q-60 -27 -129.5 5.5t-105.5 71.5q-53 61 -40 171t68.5 233t130.5 222.5t145 139.5q47 24 88 10t92 -48q15 -9 32 -19q46 -28 44 -72q-2 -34 -30.5 -113t-81.5 -155t-126 -102
q-37 -11 -67.5 -7t-63.5 19q-14 -30 -29 -84t-16.5 -100.5t24.5 -53.5q45 -5 127 60t166 167.5t137 207.5zM272 851q-27 -21 -68.5 -77t-75 -111t-34.5 -71q46 -5 85 40.5t63.5 108t29.5 110.5z" />
    <glyph glyph-name="f" unicode="f" horiz-adv-x="429" 
d="M489 656q16 10 27 -8t10 -43t-21 -39q-65 -50 -151 -64t-175 2q58 -46 67.5 -123.5t-13 -167t-59.5 -169.5t-71 -129q-39 -56 -91.5 -64.5t-118.5 8.5q-74 22 -87.5 85.5t-4.5 126.5q11 85 61.5 243.5t128 339.5t169.5 332.5t184 220.5q29 16 72 -12t67.5 -69.5
t-0.5 -66.5q-99 -73 -182 -190t-129 -237q78 -35 165 -28.5t152 52.5zM-21 -22q52 65 96.5 177.5t43.5 199.5q1 44 -25 89q-10 -21 -25 -62.5t-29 -84t-21 -65.5q-20 -60 -32 -125.5t-8 -128.5z" />
    <glyph glyph-name="g" unicode="g" horiz-adv-x="701" 
d="M718 675q27 13 33.5 -10t-7 -57.5t-44.5 -58.5q-149 -89 -268 -189q-26 -21 -40 -51q-52 -111 -128.5 -245.5t-159.5 -241t-156 -133.5q-37 -10 -102 14.5t-103 78t5 128.5q60 93 162.5 188t195.5 171q111 90 132 122q20 41 40 90.5t35 91.5q-55 -71 -134 -156.5
t-151 -135.5q-31 -17 -78.5 -3.5t-83.5 46t-32 70.5q32 149 131.5 297t212.5 231q63 43 109 27.5t91 -53.5q9 -7 19 -14q5 6 12 17q9 13 18 25.5t15 17.5q24 17 60 10.5t63 -26.5t24 -45q-27 -125 -74 -264q-17 -53 -29 -93q135 95 232 151zM-159 -185q65 49 129.5 130.5
t115.5 166.5q-77 -73 -156.5 -162t-88.5 -135zM302 739q13 22 18.5 47.5t-4 35.5t-41.5 -17q-81 -71 -149.5 -172.5t-94.5 -173.5q-2 -18 9 -17q28 4 104.5 88t157.5 209z" />
    <glyph glyph-name="h" unicode="h" horiz-adv-x="714" 
d="M742 715q11 17 32 12.5t37 -21.5t10 -37q-67 -154 -169 -288.5t-181 -178.5q-35 -16 -83 -7.5t-87 32.5t-47 52q-10 62 18.5 160t51.5 157q7 18 9 26q-86 -79 -194.5 -243.5t-158.5 -266.5q-15 -24 -57 -19t-78 26.5t-32 47.5q35 127 132.5 373t216.5 482t215 334
q37 31 86 16t80 -50t13 -63q-35 -18 -117.5 -127.5t-176 -278t-161.5 -361.5q65 95 143.5 191.5t147.5 144.5q37 21 82.5 7.5t75 -45.5t16.5 -68q-14 -31 -34 -73q-41 -85 -80 -181.5t-42 -164.5q91 48 176.5 163t155.5 249z" />
    <glyph glyph-name="i" unicode="i" horiz-adv-x="344" 
d="M364 691q13 17 30.5 14.5t29.5 -14.5t7 -26q-30 -64 -90.5 -164t-130.5 -188t-127 -115q-35 -14 -79 -4t-76.5 39t-31.5 72q6 88 56 243.5t114 265.5q17 21 59.5 14t76 -30t21.5 -52q-89 -174 -122.5 -274t-22.5 -128q17 -39 96.5 58t189.5 289zM240 898q-16 -22 -48 -20
t-59 17.5t-26 36.5q11 59 32.5 114.5t35.5 80.5q19 24 63 19t77.5 -28t20.5 -52q-8 -15 -21 -38q-18 -33 -38.5 -69t-36.5 -61z" />
    <glyph glyph-name="j" unicode="j" horiz-adv-x="291" 
d="M202 875q-14 -21 -48.5 -17t-63.5 21.5t-27 37.5q11 51 30 110t32 85q19 21 61.5 13t75.5 -32t24 -50q-7 -14 -19 -37q-15 -31 -32.5 -67t-32.5 -64zM274 609q20 6 32 -10.5t13 -39t-14 -36.5q-51 -41 -134 -120t-154 -153.5t-85 -102.5q-3 -6 -6 -13
q-48 -109 -104 -222.5t-117.5 -200t-125.5 -113.5q-34 -11 -97 13t-101.5 77t1.5 129q56 91 136.5 170t149.5 137q82 69 101 99q38 80 89 207.5t93 234.5q29 75 43 109q18 36 63 36t81 -23.5t28 -57.5q-29 -78 -72 -175q-39 -89 -60 -147q27 26 78.5 71.5t99 84.5t62.5 46z
M-534 -279q101 89 190 253q-70 -70 -126.5 -139.5t-63.5 -113.5z" />
    <glyph glyph-name="k" unicode="k" horiz-adv-x="587" 
d="M591 1290q-64 -31 -171 -184.5t-197.5 -315.5t-102.5 -219q60 80 142.5 176t154.5 157q14 12 32.5 20.5t35.5 1.5q58 -25 81 -50.5t-2 -67.5q-53 -83 -160 -202.5t-170 -181.5q65 2 120 -8.5t76 -31.5q7 -9 0.5 -34.5t-22 -53.5t-35 -43.5t-36.5 -3.5q-57 42 -154 47
t-180 -45q-26 -83 -36 -129q-9 -26 -50.5 -22.5t-78.5 23.5t-34 46q35 126 136 369.5t226.5 481.5t235.5 349q32 31 62.5 26t72.5 -34q9 -5 17 -10q22 -11 34.5 -24.5t2.5 -36.5zM330 744q-83 -68 -162.5 -169t-111.5 -166q78 77 161.5 183.5t112.5 151.5z" />
    <glyph glyph-name="l" unicode="l" horiz-adv-x="313" 
d="M157 -85q-13 -1 -51.5 2t-99 51t-84.5 148q-4 21 -5 44q-8 144 68.5 391.5t201.5 495t229 339.5q13 10 29 11q30 1 88 -37l12 -6q55 -34 56 -63q1 -12 -10 -23q-107 -97 -202 -258.5t-163.5 -345t-99.5 -348.5q-23 -121 -18 -210q2 -32 15 -98t98 -69q-23 -22 -64 -24z
" />
    <glyph glyph-name="m" unicode="m" horiz-adv-x="993" 
d="M1038 672v0q13 -5 24.5 -13t18.5 -16t5 -13q-48 -104 -134 -251.5t-175 -201.5q-35 -16 -82.5 -7.5t-86 32t-46.5 51.5q-10 49 10 137.5t51 178.5t55 144q-78 -75 -159 -204.5t-136 -280.5q-8 -15 -38 -13t-59 19t-33 47q0 37 17.5 117t38 155t28.5 97
q-51 -55 -147.5 -212.5t-177.5 -312.5q-13 -21 -49.5 -17t-69 22.5t-33.5 41.5q11 135 82 349t139 315q13 15 39.5 11t54 -20t44 -34.5t8.5 -32.5q-26 -37 -67.5 -112.5t-75.5 -170.5q35 57 97.5 151.5t126 181t99.5 118.5q22 16 58 5.5t64 -35t26 -52.5q-1 -7 -8.5 -29
t-17.5 -50q-15 -42 -27 -78t-10 -42q6 8 23 31q45 64 122 159.5t135 136.5q54 33 104 -24q33 -33 42.5 -59.5t-10.5 -68.5q-28 -59 -73 -169.5t-81 -218t-38 -157.5q80 48 156 164t131 221q0 2 2 4z" />
    <glyph glyph-name="n" unicode="n" horiz-adv-x="735" 
d="M748 680q7 12 21.5 11.5t30 -9.5t25 -19t7.5 -16q-58 -120 -154.5 -256.5t-184.5 -188.5q-36 -16 -83.5 -7.5t-86.5 32.5t-47 52q-9 45 5.5 119t34.5 142.5t30 96.5q1 3 2 5q-85 -78 -184.5 -229t-148.5 -251q-15 -24 -57 -19t-78 26.5t-32 46.5q26 102 90 291.5
t155 362.5q16 27 45.5 28t59.5 -14t48 -35.5t12 -36.5q-40 -80 -81 -153q-46 -82 -55 -109q65 93 140 173.5t144 124.5q35 18 80 3.5t75 -46t19 -63.5q-8 -19 -18 -43q-40 -90 -83.5 -204.5t-47.5 -191.5q80 46 166 150.5t151 226.5z" />
    <glyph glyph-name="o" unicode="o" horiz-adv-x="597" 
d="M542 447q20 2 26 -18.5t0.5 -42t-19.5 -24.5q-43 -6 -84 -3t-92 20l-9 -18q-22 -51 -65.5 -121t-108.5 -109q-45 -21 -111.5 -5t-123.5 56.5t-74 92.5q-17 72 3 156.5t57.5 157.5t75.5 109q13 13 29 24l14 10q-8 42 -8.5 84t18.5 80q28 43 109.5 43.5t159.5 -48.5
t95 -153q8 -71 -1.5 -138.5t-27.5 -137.5q20 -11 58 -16.5t79 1.5zM46 224q74 44 112.5 104t64.5 129q-69 45 -105 119q-14 -16 -36.5 -82.5t-36 -143.5t0.5 -126zM253 569q14 38 15.5 90.5t-5.5 98t-19 63.5q-59 -87 9 -252z" />
    <glyph glyph-name="p" unicode="p" horiz-adv-x="692" 
d="M540 668q101 57 169.5 66.5t128.5 -28.5q-47 -14 -125 -59t-146.5 -94.5t-84.5 -77.5q-26 -53 -102.5 -150.5t-164.5 -166.5q-39 -30 -76 -37t-70 16q-53 43 -30.5 100.5t83.5 118t122 111.5q58 49 83 78q19 24 33.5 67.5t17.5 83t-12 52.5q-90 -28 -182 -166
t-172.5 -318t-135 -334t-69.5 -213q-11 -28 -55.5 -23t-82 30.5t-27.5 63.5q37 99 132 337t193 481t144 357q10 22 37 24t56.5 -9.5t48 -28.5t12.5 -33v-1q-9 -17 -19.5 -42t-25.5 -67q7 5 13 10q34 27 67.5 40t83.5 -2q15 -5 28 -9q76 -20 104.5 -50.5t23.5 -126.5z" />
    <glyph glyph-name="q" unicode="q" horiz-adv-x="663" 
d="M467 921q22 20 63 8t70.5 -40t17.5 -56q-20 -38 -79.5 -188t-132 -341t-130.5 -352q31 32 59.5 39.5t49.5 1t30 -18.5t0 -19q-74 -60 -141.5 -163t-97.5 -170q-21 -39 -75 -45t-95.5 20t-24.5 82q36 100 97.5 258t119.5 303q38 96 63 159.5t28 74.5q-30 -36 -69 -89
q-74 -108 -169 -202q-25 -20 -71.5 -8.5t-84.5 41t-37 65.5q18 147 107.5 322.5t191.5 263.5q55 43 101 30t93 -47q18 -12 36 -23q23 25 45 52q17 21 35 42zM262 650q6 8 14 33t12 50.5t-2 36t-27 -8.5q-71 -75 -134.5 -195t-82.5 -192q6 3 31.5 34t60 75.5t68.5 88.5
q38 50 60 78z" />
    <glyph glyph-name="r" unicode="r" horiz-adv-x="545" 
d="M444 536q3 -19 11 -26.5t16 -9.5q6 -3 9.5 -6t1.5 -11q-7 -19 -52.5 -17.5t-91.5 19t-55 44.5q-10 46 -9 100v47q-102 -112 -176.5 -245.5t-118.5 -306.5q-10 -27 -49 -22t-74 28.5t-33 53.5q37 216 125.5 448t188.5 397q10 16 27.5 20t36.5 -3q91 -31 68 -89
q-16 -36 -35 -73q-38 -77 -80 -177q1 1 16 24t36 54t38 56.5t22 32.5q17 24 29.5 28t39.5 -8q22 -8 40 -15q45 -15 63.5 -27t20 -36t-5.5 -74q-2 -17 -5 -38q-11 -84 -4 -168z" />
    <glyph glyph-name="s" unicode="s" horiz-adv-x="570" 
d="M552 717q29 2 62 -14.5t50 -31.5q-5 -6 -8 -8t-5.5 -1.5t-5.5 1.5q-3 2 -9.5 3t-18.5 -1q-42 -11 -123 -59.5t-157 -102.5t-102 -80q6 -10 12 -19q14 -20 27 -41q38 -70 20 -140t-73.5 -130.5t-128.5 -101.5q-76 -39 -164.5 -34t-134.5 55.5t7 149.5q45 74 115.5 139
t145.5 122q-14 19 -27 36q-31 39 -56 78.5t-37 84.5q-22 103 23 199.5t132 156.5q29 18 69 11.5t76.5 -24.5t55.5 -33q51 81 89 124t63 62q14 8 36 -6t43.5 -39.5t31 -49.5t-2.5 -34q-44 -32 -101.5 -99t-95 -138t-21.5 -115q-24 -5 -60.5 20t-49.5 69q-6 34 8.5 77t26.5 64
q-50 -1 -87.5 -67.5t-42 -153t42.5 -147.5q32 21 73 50q75 54 158 105t144 63zM-80 78q40 5 90.5 49.5t83.5 100.5t19 93q-6 -7 -13 -13q-57 -52 -106 -107.5t-74 -122.5z" />
    <glyph glyph-name="t" unicode="t" horiz-adv-x="322" 
d="M519 1225q81 -14 127.5 -29.5t69.5 -44.5q12 -17 23.5 -49t12.5 -59.5t-16 -32.5q-29 38 -117 62q-135 30 -201 25q-31 -44 -62 -95q-93 -156 -164 -335.5t-107 -342.5t-23 -268.5t89 -112.5q-28 -28 -83.5 -19.5t-107 60t-68.5 152.5q-14 152 73 413t212 501
q10 20 20 38h-1q-20 -1 -55 -8t-65.5 -17.5t-38.5 -22.5q-10 -17 -21.5 -10.5t-22.5 25t-19.5 38t-10.5 28.5q-7 22 4 39t31 27q55 24 128.5 35t128.5 15q9 1 31 3q60 89 128 164q22 16 56 8t66.5 -37t39 -55.5t-8.5 -36.5q-31 -39 -48 -58z" />
    <glyph glyph-name="u" unicode="u" horiz-adv-x="684" 
d="M686 664q5 10 17.5 9t26 -8t22.5 -16.5t6 -15.5q-3 -8 -7 -16q-24 -55 -64.5 -139.5t-91.5 -166t-105 -129t-104 -28.5q-62 25 -94 66t-25 115q-1 -1 -1 -2q-33 -51 -66.5 -97.5t-89.5 -106.5q-32 -30 -86 -28t-99.5 28t-51.5 69q-3 75 33.5 207t84 248.5t75.5 144.5
q21 15 57.5 6t63.5 -29.5t18 -40.5q-23 -41 -61.5 -137t-71 -195t-36.5 -148q22 8 84 103t138.5 234t141.5 277q19 33 61.5 24.5t75.5 -36.5t24 -54q-30 -65 -66.5 -172t-60 -210.5t-16.5 -157.5q77 57 151.5 184t116.5 218z" />
    <glyph glyph-name="v" unicode="v" horiz-adv-x="595" 
d="M302 1005q49 20 106 -18t89 -113t7 -168q-48 -151 -153.5 -327t-196.5 -249q-35 -24 -88.5 -22.5t-99 25t-55.5 65.5q-11 75 13.5 207t60.5 248.5t61 144.5q20 15 57.5 6t66.5 -29.5t22 -40.5q-19 -41 -48.5 -139t-52.5 -199t-22 -151q13 5 60.5 66t104 155t97 198.5
t39.5 195.5t-68 145z" />
    <glyph glyph-name="w" unicode="w" horiz-adv-x="873" 
d="M531 984q11 21 54 21.5t93 -24.5t82.5 -81.5t22.5 -148.5q-19 -123 -83 -249t-133.5 -220t-103.5 -123q-53 -41 -105.5 0t-109.5 134q-28 -31 -52 -60q-44 -55 -86 -93q-33 -24 -84 -2t-92 68.5t-45 95.5q1 74 42.5 198.5t96 236t92.5 147.5q28 20 70 -2t67.5 -60
t3.5 -65q-39 -42 -86 -131t-80 -179.5t-30 -136.5q70 56 151 178t135 220q20 30 52.5 15.5t57 -45.5t20.5 -52q-9 -28 -33 -89t-44.5 -118.5t-18.5 -77.5q78 77 139 177t90.5 198.5t12 171.5t-95.5 96z" />
    <glyph glyph-name="x" unicode="x" horiz-adv-x="461" 
d="M483 662q12 8 30 6.5t32.5 -9.5t16.5 -20q-66 -110 -149 -212t-165.5 -167t-146.5 -63q-39 1 -69.5 29.5t-40.5 105.5q-57 -70 -98 -155t-51 -157t28 -104q-82 -5 -137 58t-24 169q33 89 93.5 183.5t120.5 177.5q25 35 46 65q30 267 63 326q17 21 56.5 18t72.5 -20.5
t29 -41.5q-3 -12 -10 -34q-4 -13 -7.5 -25t-5.5 -20l-2 -8q25 28 74 78t101.5 96.5t86.5 63.5q29 11 61 -14t47.5 -59t-4.5 -50q-70 -48 -192.5 -160t-195.5 -216q-15 -132 18.5 -150.5t93 33.5t122.5 131.5t106 144.5z" />
    <glyph glyph-name="y" unicode="y" horiz-adv-x="752" 
d="M745 676q26 12 35 -9t-2 -54t-44 -58q-150 -89 -268 -189q-26 -21 -41 -51q-51 -110 -127 -239.5t-165.5 -235t-180.5 -143.5q-37 -12 -96.5 11t-93 75t9.5 127q61 93 163.5 188t195.5 171q110 90 132 122q21 43 47 112.5t42 114.5q-63 -100 -145.5 -194t-154.5 -143
q-30 -17 -78 -3.5t-84 46t-31 70.5q21 107 79 242.5t136 232.5q20 19 62.5 7.5t72 -38t9.5 -53.5q-25 -29 -58 -85.5t-61.5 -117t-40 -101.5t6.5 -39q39 15 125 132.5t168.5 246.5t111.5 178q17 23 57.5 14.5t74.5 -33t32 -49.5q-12 -62 -37 -147t-49 -162q-17 -55 -28 -93
q71 50 122 83.5t103 63.5zM-135 -185q66 50 136 134t121 169q-77 -73 -162 -164.5t-95 -138.5z" />
    <glyph glyph-name="z" unicode="z" horiz-adv-x="632" 
d="M652 520q14 0 25.5 -19.5t12.5 -43t-16 -36.5q-145 -54 -267 -134q-80 -166 -202 -325.5t-248 -238.5q-87 -46 -155.5 -15.5t-89 102t35.5 147.5q114 130 270.5 237t229.5 143q16 25 30.5 54.5t29.5 75.5q-56 5 -118 -50.5t-104 -104.5q-11 -13 -19 -22q-19 -17 -51 -6.5
t-62 36.5t-44 54t3 45l103 100q-2 2 -5 4q-40 28 -71.5 70t-2.5 103q57 97 186.5 203t222.5 147q37 12 83.5 -19.5t76 -79.5t17.5 -87q-19 -44 -64.5 -106t-89.5 -116q-27 -34 -44 -57q8 -5 20 -11q38 -17 77.5 -49t36.5 -83q34 21 95 47.5t98 34.5zM35 540q18 18 42 43
q47 49 103.5 112t98.5 125q-9 0 -47.5 -31.5t-85.5 -78.5t-80 -93.5t-31 -76.5zM-208 -181q67 21 149 98t146.5 154.5t79.5 101.5q-43 -26 -128 -98t-160 -146.5t-87 -109.5z" />
    <glyph glyph-name="braceleft" unicode="{" horiz-adv-x="974" 
d="M653 1691v0q113 99 233.5 95.5t202 -60t77.5 -116.5q-4 -32 -49 -54q-1 0 -5 8q-6 13 -20.5 31.5t-42 28.5t-72.5 -3q-108 -41 -185 -177t-140 -294q-59 -147 -118.5 -249t-132.5 -97q48 -46 29 -168q-25 -139 -81 -315q-58 -183 -85 -338q-14 -92 3.5 -153.5t83.5 -72.5
q43 -4 76.5 19t57.5 49l7 7q47 -21 40 -56q-12 -56 -100.5 -103.5t-197.5 -37.5q-75 9 -135.5 68t-88.5 186q-10 66 19 170t71 224q41 112 72 220t32 191.5t-49 125.5q-21 17 -24.5 44.5t9.5 46.5t42 12q13 -5 25 -7q80 -7 146 82.5t119 222t94 256.5q54 171 87 214z" />
    <glyph glyph-name="bar" unicode="|" horiz-adv-x="453" 
d="M117 1669v0q4 53 71 72.5t134 5t71 -63.5l-49 -1958q-4 -44 -52 -60.5t-96 -2.5t-52 60z" />
    <glyph glyph-name="braceright" unicode="}" horiz-adv-x="971" 
d="M901 1530v0q10 -66 -18.5 -170t-71.5 -224q-40 -113 -71.5 -220.5t-32.5 -191t49 -125.5q21 -17 24.5 -44.5t-9.5 -46.5t-42 -12q-13 5 -25 7q-80 7 -146 -82.5t-119 -222t-93 -256.5q-55 -171 -88 -214q-113 -99 -233.5 -95.5t-202 60t-77.5 116.5q4 32 49 54q2 0 5 -8
q6 -13 20.5 -31.5t42.5 -28.5t73 3q107 41 184 177t140 294q59 147 119 249t132 97q-48 46 -28 168q24 139 80 315q59 183 86 338q14 92 -4 153.5t-84 72.5q-43 4 -76 -19t-57 -49q-4 -4 -8 -7q-47 21 -40 56q12 56 100.5 103.5t197.5 36.5q75 -8 135.5 -67.5t88.5 -185.5z
" />
    <glyph glyph-name="asciitilde" unicode="~" horiz-adv-x="955" 
d="M875 892v0q20 0 16 -36t-27 -88.5t-61.5 -104.5t-89 -88t-108.5 -36q-83 0 -151.5 33.5t-125.5 72.5q-42 27 -78.5 46.5t-68.5 19.5q-42 0 -69.5 -21.5t-47.5 -44.5q-11 -13 -21 -21.5t-18 -8.5q-25 0 -12.5 48.5t52 109t96.5 102.5t122 35q45 -11 114 -55
q57 -36 125 -68t143 -37q41 0 69.5 15t48.5 36.5t36 42.5q14 20 27.5 34t28.5 14z" />
    <glyph glyph-name="cent" unicode="&#xa2;" horiz-adv-x="1236" 
d="M1064 728v0q13 20 42 16.5t49.5 -21.5t9.5 -42q-61 -116 -167.5 -244t-258.5 -215t-350 -78l-6 -18q-5 -19 -13 -44t-17 -44t-18 -19q-19 0 -37 14t-24 47t10 88q-163 56 -223.5 182t-33.5 282.5t125.5 305.5t253 252t348.5 122q34 63 47 90q16 27 53.5 21t61 -37
t-2.5 -80q149 -27 193 -114.5t22.5 -180.5t-69.5 -138q-84 -72 -173 -76.5t-135 26.5t-2 67q37 -39 96.5 -2t100.5 111q28 51 32.5 103t-21.5 87.5t-93 35.5q-74 -121 -190.5 -358t-241.5 -593q111 -37 244.5 29t242 185t145.5 240zM330 334v0q69 217 168 444.5t190 406.5
q-120 -60 -220.5 -169t-161 -237.5t-59.5 -247t83 -197.5z" />
    <glyph glyph-name="sterling" unicode="&#xa3;" horiz-adv-x="1460" 
d="M1007 1690v0q63 27 137 4t136.5 -73t90.5 -106q29 -67 11.5 -159t-61.5 -176t-93 -129q-54 -44 -120 -39.5t-108 37t-24 72.5q28 -23 66.5 -2t78.5 70.5t72 111.5t47 120t4 97t-59 39q-57 0 -119 -71.5t-122.5 -181t-112 -229t-88.5 -219.5q64 2 107 4q73 6 96 -1t13 -45
q-25 -109 -82.5 -130.5t-139.5 -13.5q-30 2 -61 2q-74 -196 -112 -399q76 -8 150 -14t141 -6q108 0 185.5 25.5t99.5 95.5q0 1 5 3.5t12 5t14 2.5t12.5 -4.5t6.5 -16t-3 -32.5q-19 -75 -87 -168t-150 -114q-84 -12 -191.5 0t-221.5 31q-119 20 -223.5 31t-175.5 -6t-88 -80
q-50 6 -42.5 62.5t52.5 117.5t107 84q52 12 115 6q25 -1 50 -1q40 183 112 378q-36 -1 -63 -2q-53 -3 -73.5 3t-13.5 36q26 111 70 132t105 12q18 -2 37 -2q128 316 253 545t248 293z" />
    <glyph glyph-name="yen" unicode="&#xa5;" horiz-adv-x="1306" 
d="M1020 1616v0q1 38 36 44t81 -11t77.5 -46.5t24.5 -63.5q-48 -174 -175 -394.5t-257 -376.5h134q35 0 45.5 -28.5t1 -65.5t-35 -65.5t-63.5 -28.5q-127 0 -257 1q-14 -35 -28 -66q118 -1 235 0q35 0 45.5 -28.5t1.5 -65.5t-35 -65.5t-64 -28.5q-130 0 -262 1
q-27 -65 -60 -151q-24 -46 -96.5 -57t-132 11t-43.5 72q28 71 51 126q-86 0 -171 -2q-54 3 -63.5 48.5t15 92.5t66.5 47q117 2 233 2q11 26 23 55l4 10q-89 0 -177 -1q-54 2 -63 47.5t15 92.5t67 47q76 2 152 2q-10 113 25.5 296t85 341t84.5 196q28 22 81.5 9.5t94 -42.5
t30.5 -58q-28 -57 -76.5 -188t-81.5 -274.5t-13 -237.5q77 40 181 193t183.5 328.5t80.5 282.5z" />
    <glyph glyph-name="copyright" unicode="&#xa9;" horiz-adv-x="1761" 
d="M1011 1589v0q210 0 353 -71.5t222 -191t97 -266t-22 -300t-134 -292.5q-144 -201 -373 -315.5t-459 -114.5q-174 0 -311 70.5t-216 207.5t-79 339q0 162 61 327t178.5 302t289 221t393.5 84zM1530 905v0q35 159 -31 298t-205 219.5t-323 62.5q-259 -35 -421.5 -163.5
t-236 -305t-66.5 -355.5q9 -160 73.5 -264.5t168.5 -155.5t226 -51q160 0 327.5 83t298.5 242t189 390zM931 1320v0q94 0 160 -43t99 -106t29 -128q-10 -95 -60 -146t-110 -66t-100 -2t-29 45q42 4 73.5 49.5t46.5 104t8.5 102.5t-40.5 44q-72 -7 -154.5 -93.5
t-143.5 -204.5t-71.5 -222t60.5 -147q85 -38 202 47.5t197 231.5q60 -38 37 -122.5t-103 -169t-191.5 -121.5t-229.5 20q-150 84 -160 234t69 308.5t197 271.5t214 113z" />
    <glyph glyph-name="registered" unicode="&#xae;" horiz-adv-x="1759" 
d="M1005 1574v0q207 0 347.5 -70.5t220.5 -186.5t103 -257t-5.5 -285t-104.5 -270q-144 -231 -356 -349t-427 -118q-156 0 -294.5 62.5t-235.5 189.5t-133 319q-31 180 27 351t184 309.5t300 221.5t374 83zM1403 562v0q79 122 104 275t-13.5 296.5t-148.5 237t-301 95.5
q-207 -4 -356.5 -75t-244 -186.5t-136.5 -253.5t-34 -275.5t64.5 -252t159 -185t247.5 -70.5q131 0 257 56.5t230 145.5t172 192zM1101 1333v0q205 -27 256 -120t-6 -206t-177.5 -199.5t-258.5 -99.5q6 -15 41.5 -51t84 -72t92 -50.5t64.5 14.5q29 0 24.5 -25t-31 -57.5
t-64.5 -58t-74 -25.5q-42 0 -84 39t-78.5 92.5t-64.5 99.5q-34 59 -49 70q-1 -3 -5 -9q-19 -31 -56 -102.5t-49.5 -136t39.5 -75.5q0 -26 -36 -26q-42 0 -105.5 45t-71.5 112q5 85 104.5 245t210 297.5t146.5 157.5q28 10 52.5 -7.5t35.5 -44.5t0 -45q-67 -63 -210 -309
q73 13 147 63t131.5 117t81.5 131.5t-2 108.5t-122 44q-130 0 -234 -47.5t-166.5 -108t-70.5 -108t54 -47.5q-7 -34 -57 -34t-102.5 27.5t-65.5 77t54 115.5q123 112 293.5 167.5t328.5 40.5z" />
    <glyph glyph-name="macron" unicode="&#xaf;" horiz-adv-x="802" 
 />
    <glyph glyph-name="degree" unicode="&#xb0;" horiz-adv-x="644" 
d="M283 1689v0q74 7 139 -26.5t105 -88t40 -110.5q-4 -81 -57.5 -150.5t-136.5 -87.5q-54 -9 -118 8.5t-113.5 51.5t-60.5 75q-15 64 7.5 136.5t73.5 126.5t121 65zM222 1301v0q37 -17 82 17.5t82 93t48 112.5t-20 77q-32 15 -79 -18.5t-87.5 -91t-52 -111.5t26.5 -79z" />
    <glyph glyph-name="plusminus" unicode="&#xb1;" horiz-adv-x="803" 
d="M690 177v0q52 -3 47.5 -46t-41.5 -87t-76 -44h-556q-45 0 -54.5 25t3 57.5t37.5 58t50 25.5q74 1 147 2q222 5 443 9z" />
    <glyph glyph-name="acute" unicode="&#xb4;" horiz-adv-x="620" 
d="M495 1483v0q27 11 64.5 -17t57 -67.5t-7.5 -63.5q-67 -40 -151.5 -117.5t-140.5 -154.5q-15 -18 -37.5 -13.5t-37.5 22t-7 39.5q20 44 64 122.5t97 151t99 98.5z" />
    <glyph glyph-name="cedilla" unicode="&#xb8;" horiz-adv-x="321" 
d="M395 -27q13 -50 -12.5 -108t-79.5 -106t-125 -66q-48 -11 -98 -4t-87 26t-47 43q-11 27 30 54q1 -35 49.5 -42.5t92.5 2t91 50.5q33 31 52.5 66t16.5 57t-25.5 27.5t-49.5 -4t-50.5 -30.5t-36.5 -33q-7 -7 -8 -7q-28 0 -64.5 17.5t-45.5 37.5q4 18 29 63q20 35 41 71
q7 12 14 23q111 -11 93 -36q-3 -3 -5 -6q-21 -29 -39 -58.5t-24 -44.5q22 23 51 43.5t61 28.5q33 7 70.5 2t68 -25t37.5 -41z" />
    <glyph glyph-name="Agrave" unicode="&#xc0;" horiz-adv-x="1144" 
d="M890 963l10 22q39 88 76.5 174t57.5 142.5t8 57.5q-185 -125 -382 -403q64 16 115 15.5t102 -7.5q6 -1 13 -1zM823 785q-8 22 -71.5 19.5t-137 -23.5t-113.5 -54q-22 -32 -70 -124t-96 -211.5t-71 -234t4 -192.5q9 -23 -2.5 -33t-29 -9t-28.5 10q-47 38 -78 120
t-12.5 220.5t122.5 344.5q-3 -1 -31 -23.5t-64.5 -57t-64.5 -71.5t-31 -68q-30 -15 -64.5 20t-50.5 88t11 93q40 48 129.5 107.5t183.5 109.5t148 70q117 182 272 358.5t298 274.5q61 38 129 25t111 -56.5t31 -98.5q-15 -53 -40 -122.5t-48 -125.5q-107 -263 -217 -562.5
t-172 -546.5q-15 -46 -69 -52.5t-101 16t-39 64.5q105 358 262 725zM1020 2069q46 -26 99 -98.5t97 -151t64 -122.5q8 -22 -7 -39.5t-37.5 -22t-37.5 13.5q-56 77 -140.5 154.5t-151.5 117.5q-27 24 -7.5 63.5t57 67.5t64.5 17v0z" />
    <glyph glyph-name="Aacute" unicode="&#xc1;" horiz-adv-x="1144" 
d="M890 963l10 22q39 88 76.5 174t57.5 142.5t8 57.5q-185 -125 -382 -403q64 16 115 15.5t102 -7.5q6 -1 13 -1zM823 785q-8 22 -71.5 19.5t-137 -23.5t-113.5 -54q-22 -32 -70 -124t-96 -211.5t-71 -234t4 -192.5q9 -23 -2.5 -33t-29 -9t-28.5 10q-47 38 -78 120
t-12.5 220.5t122.5 344.5q-3 -1 -31 -23.5t-64.5 -57t-64.5 -71.5t-31 -68q-30 -15 -64.5 20t-50.5 88t11 93q40 48 129.5 107.5t183.5 109.5t148 70q117 182 272 358.5t298 274.5q61 38 129 25t111 -56.5t31 -98.5q-15 -53 -40 -122.5t-48 -125.5q-107 -263 -217 -562.5
t-172 -546.5q-15 -46 -69 -52.5t-101 16t-39 64.5q105 358 262 725zM1199 2020v0q27 11 64.5 -17t57 -67.5t-7.5 -63.5q-67 -40 -151.5 -117.5t-140.5 -154.5q-15 -18 -37.5 -13.5t-37.5 22t-7 39.5q20 44 64 122.5t97 151t99 98.5z" />
    <glyph glyph-name="Acircumflex" unicode="&#xc2;" horiz-adv-x="1144" 
d="M890 963l10 22q39 88 76.5 174t57.5 142.5t8 57.5q-185 -125 -382 -403q64 16 115 15.5t102 -7.5q6 -1 13 -1zM823 785q-8 22 -71.5 19.5t-137 -23.5t-113.5 -54q-22 -32 -70 -124t-96 -211.5t-71 -234t4 -192.5q9 -23 -2.5 -33t-29 -9t-28.5 10q-47 38 -78 120
t-12.5 220.5t122.5 344.5q-3 -1 -31 -23.5t-64.5 -57t-64.5 -71.5t-31 -68q-30 -15 -64.5 20t-50.5 88t11 93q40 48 129.5 107.5t183.5 109.5t148 70q117 182 272 358.5t298 274.5q61 38 129 25t111 -56.5t31 -98.5q-15 -53 -40 -122.5t-48 -125.5q-107 -263 -217 -562.5
t-172 -546.5q-15 -46 -69 -52.5t-101 16t-39 64.5q105 358 262 725zM1499 1695v0q-9 -21 -33.5 -35t-53 -20.5t-48 -5t-16.5 12.5q3 12 -1.5 52t-14 88.5t-22 85t-24.5 41.5q-11 1 -50 -33.5t-86.5 -83.5t-84 -91.5t-43.5 -58.5q-5 -14 -26 -10.5t-45 18.5t-39 36t-8 44
q10 26 66.5 81.5t130.5 116.5t136 101.5t84 37.5q27 -12 72 -91t79 -165.5t27 -120.5z" />
    <glyph glyph-name="Atilde" unicode="&#xc3;" horiz-adv-x="1144" 
d="M890 963l10 22q39 88 76.5 174t57.5 142.5t8 57.5q-185 -125 -382 -403q64 16 115 15.5t102 -7.5q6 -1 13 -1zM823 785q-8 22 -71.5 19.5t-137 -23.5t-113.5 -54q-22 -32 -70 -124t-96 -211.5t-71 -234t4 -192.5q9 -23 -2.5 -33t-29 -9t-28.5 10q-47 38 -78 120
t-12.5 220.5t122.5 344.5q-3 -1 -31 -23.5t-64.5 -57t-64.5 -71.5t-31 -68q-30 -15 -64.5 20t-50.5 88t11 93q40 48 129.5 107.5t183.5 109.5t148 70q117 182 272 358.5t298 274.5q61 38 129 25t111 -56.5t31 -98.5q-15 -53 -40 -122.5t-48 -125.5q-107 -263 -217 -562.5
t-172 -546.5q-15 -46 -69 -52.5t-101 16t-39 64.5q105 358 262 725zM1561 1859v0q13 0 10.5 -25t-18.5 -61t-43 -72.5t-62 -61t-75 -24.5q-57 0 -104.5 23t-86.5 50q-29 19 -54.5 32.5t-47.5 13.5q-29 0 -48.5 -15.5t-32.5 -30.5q-8 -9 -14.5 -15t-12.5 -6q-18 0 -9 33.5
t36 75.5t66.5 71t85.5 24q30 -7 79 -38q39 -25 86 -47t99 -25q28 0 48 10t34 25t24 30q10 14 19.5 23.5t20.5 9.5z" />
    <glyph glyph-name="Adieresis" unicode="&#xc4;" horiz-adv-x="1144" 
d="M890 963l10 22q39 88 76.5 174t57.5 142.5t8 57.5q-185 -125 -382 -403q64 16 115 15.5t102 -7.5q6 -1 13 -1zM823 785q-8 22 -71.5 19.5t-137 -23.5t-113.5 -54q-22 -32 -70 -124t-96 -211.5t-71 -234t4 -192.5q9 -23 -2.5 -33t-29 -9t-28.5 10q-47 38 -78 120
t-12.5 220.5t122.5 344.5q-3 -1 -31 -23.5t-64.5 -57t-64.5 -71.5t-31 -68q-30 -15 -64.5 20t-50.5 88t11 93q40 48 129.5 107.5t183.5 109.5t148 70q117 182 272 358.5t298 274.5q61 38 129 25t111 -56.5t31 -98.5q-15 -53 -40 -122.5t-48 -125.5q-107 -263 -217 -562.5
t-172 -546.5q-15 -46 -69 -52.5t-101 16t-39 64.5q105 358 262 725zM1300 1781v0q54 74 109 82t89.5 -33t23.5 -113q-17 -81 -65.5 -104t-98.5 -4t-72 66t14 106zM1022 1792v0q53 75 108.5 83t89.5 -33t24 -114q-17 -80 -65.5 -103.5t-99 -4t-72 66t14.5 105.5z" />
    <glyph glyph-name="Aring" unicode="&#xc5;" horiz-adv-x="1236" 
d="M1012 963l10 22q39 88 76.5 174t57.5 142.5t8 57.5q-185 -125 -382 -403q64 16 115 15.5t102 -7.5q6 -1 13 -1zM1190 1580q36 -17 81 17.5t82 93t48.5 112.5t-20.5 77q-31 15 -78.5 -18.5t-88 -91t-52 -111.5t27.5 -79zM1321 1503q9 -7 17 -15q43 -44 31 -99
q-15 -53 -40 -122.5t-48 -125.5q-107 -263 -217 -562.5t-172 -546.5q-15 -46 -69 -52.5t-101 16t-39 64.5q105 358 262 725q-8 22 -71.5 19.5t-137 -23.5t-113.5 -54q-22 -32 -70 -124t-96 -211.5t-71 -234t4 -192.5q9 -23 -2.5 -33t-29 -9t-28.5 10q-47 38 -78 120
t-12.5 220.5t122.5 344.5q-3 -1 -31 -23.5t-64.5 -57t-64.5 -71.5t-31 -68q-30 -15 -64.5 20t-50.5 88t11 93q40 48 129.5 107.5t183.5 109.5t148 70q117 182 272 358.5t298 274.5q25 15 50 22q-21 11 -39 24q-50 34 -61 75q-15 64 7.5 136.5t73.5 126.5t121 65
q74 7 139 -26.5t105 -88t40 -110.5q-4 -81 -57.5 -150.5t-135.5 -87.5q-10 -2 -20 -2z" />
    <glyph glyph-name="AE" unicode="&#xc6;" horiz-adv-x="1895" 
d="M1617 1470v0q-23 -90 -82.5 -224.5t-112.5 -245.5q-12 -26 -23 -48q-59 -126 -117 -254l245 -3q29 -3 26.5 -39.5t-24.5 -73.5t-53 -40q-114 12 -256 9q-26 -48 -55.5 -122.5t-47.5 -129.5q-28 -80 -44 -148q98 -7 223.5 1.5t210.5 18.5q46 1 48 -44t-23 -92t-60 -52
q-48 -2 -137 -5t-150 -3h-24q-154 -5 -291 20q-79 18 -76 71q15 90 84.5 244.5t118.5 242.5q-77 2 -188 -1t-195 -12q-21 -30 -40 -57q-130 -178 -179.5 -271.5t2.5 -128.5q8 -6 -6.5 -10t-39 -6t-48 -2t-33.5 1q-60 9 -103 41q-48 39 -31 102q14 35 52.5 93t81.5 114.5
t68 87.5q-82 -9 -179 -39q-24 -7 -50 -14q-22 -11 -47.5 13t-43 63t-13.5 74t41 46q55 12 154.5 19t174.5 10q14 1 26 2q18 1 34 1q18 1 33 2q109 131 272 311q125 140 302 319t308 275q67 42 171 53t193 10l350 1q37 -2 38 -45.5t-24.5 -89t-66.5 -45.5h-394zM1068 693v0
l13 26q32 63 86.5 173.5t107 226.5t78 195t-0.5 79q-31 -8 -115.5 -91.5t-170.5 -179t-123 -139.5q-139 -162 -226 -291z" />
    <glyph glyph-name="Ccedilla" unicode="&#xc7;" horiz-adv-x="1128" 
d="M351 -69l-20 2q-154 22 -212 160.5t-37.5 343t102 423t205.5 400t273 274.5t305 46q91 -34 108 -155.5t-15 -283t-90.5 -316.5t-118.5 -258q-13 -18 -46.5 -16.5t-67.5 19t-48 45.5t11 63q25 32 65.5 117t81.5 194.5t65.5 213t17 173.5t-63.5 76q-64 0 -146 -93.5
t-164.5 -245t-147 -323.5t-93.5 -328t-3.5 -258.5t122.5 -115.5q105 -7 215.5 64t212.5 183t182.5 227t124.5 196q23 37 55 37.5t49.5 -23.5t-1.5 -61q-137 -237 -288.5 -418.5t-314.5 -278.5q-98 -59 -199 -76q-1 -2 -2 -3q-3 -3 -5 -6q-21 -29 -39 -58.5t-24 -44.5
q21 23 50 43.5t61 28.5q33 7 71 2t68.5 -25t37.5 -41q13 -50 -12.5 -108t-79.5 -106t-125 -66q-48 -11 -98 -4t-87 26t-47 43q-11 27 30 54q1 -35 49.5 -42.5t92 2t91.5 50.5q33 31 52.5 66t16.5 57t-25.5 27.5t-50 -4t-50.5 -30.5t-36 -33q-7 -7 -8 -7q-28 0 -65 17.5
t-46 37.5q5 18 30 63q15 27 31 54z" />
    <glyph glyph-name="Egrave" unicode="&#xc8;" horiz-adv-x="1164" 
d="M1156 492q-40 -85 -136.5 -185t-225.5 -189t-265 -141.5t-256 -42t-198 107.5q-55 74 -56.5 156.5t34.5 166.5q54 122 147.5 229t179.5 177.5t117 82.5q-8 8 -18 17q-53 45 -93 105.5t-14 144.5q29 73 92.5 140t127.5 115t93 65q150 85 238.5 78t136.5 -67
q68 -81 38.5 -191t-163.5 -211q-34 -20 -82.5 9t-68.5 72.5t32 67.5q33 14 74 45t64.5 65t6.5 56q-16 12 -86.5 -23.5t-157 -98t-148.5 -132.5t-61 -127q5 -34 34.5 -42t61.5 -4t44 8q36 8 69.5 -17.5t54.5 -64.5t21.5 -71t-30.5 -36q-49 -6 -144.5 -71t-197.5 -161
t-168.5 -195t-56.5 -173q21 -84 137 -65.5t273.5 107t303.5 216.5t226 265q15 24 25 11t13.5 -48.5t-0.5 -77t-18 -73.5zM734 2011q46 -26 99 -98.5t97 -151t64 -122.5q8 -22 -7 -39.5t-37.5 -22t-37.5 13.5q-56 77 -140.5 154.5t-151.5 117.5q-27 24 -7.5 63.5t57 67.5
t64.5 17v0z" />
    <glyph glyph-name="Eacute" unicode="&#xc9;" horiz-adv-x="1164" 
d="M1156 492q-40 -85 -136.5 -185t-225.5 -189t-265 -141.5t-256 -42t-198 107.5q-55 74 -56.5 156.5t34.5 166.5q54 122 147.5 229t179.5 177.5t117 82.5q-8 8 -18 17q-53 45 -93 105.5t-14 144.5q29 73 92.5 140t127.5 115t93 65q150 85 238.5 78t136.5 -67
q68 -81 38.5 -191t-163.5 -211q-34 -20 -82.5 9t-68.5 72.5t32 67.5q33 14 74 45t64.5 65t6.5 56q-16 12 -86.5 -23.5t-157 -98t-148.5 -132.5t-61 -127q5 -34 34.5 -42t61.5 -4t44 8q36 8 69.5 -17.5t54.5 -64.5t21.5 -71t-30.5 -36q-49 -6 -144.5 -71t-197.5 -161
t-168.5 -195t-56.5 -173q21 -84 137 -65.5t273.5 107t303.5 216.5t226 265q15 24 25 11t13.5 -48.5t-0.5 -77t-18 -73.5zM874 1933v0q27 11 64.5 -17t57 -67.5t-7.5 -63.5q-67 -40 -151.5 -117.5t-140.5 -154.5q-15 -18 -37.5 -13.5t-37.5 22t-7 39.5q20 44 64 122.5t97 151
t99 98.5z" />
    <glyph glyph-name="Ecircumflex" unicode="&#xca;" horiz-adv-x="1164" 
d="M1156 492q-40 -85 -136.5 -185t-225.5 -189t-265 -141.5t-256 -42t-198 107.5q-55 74 -56.5 156.5t34.5 166.5q54 122 147.5 229t179.5 177.5t117 82.5q-8 8 -18 17q-53 45 -93 105.5t-14 144.5q29 73 92.5 140t127.5 115t93 65q150 85 238.5 78t136.5 -67
q68 -81 38.5 -191t-163.5 -211q-34 -20 -82.5 9t-68.5 72.5t32 67.5q33 14 74 45t64.5 65t6.5 56q-16 12 -86.5 -23.5t-157 -98t-148.5 -132.5t-61 -127q5 -34 34.5 -42t61.5 -4t44 8q36 8 69.5 -17.5t54.5 -64.5t21.5 -71t-30.5 -36q-49 -6 -144.5 -71t-197.5 -161
t-168.5 -195t-56.5 -173q21 -84 137 -65.5t273.5 107t303.5 216.5t226 265q15 24 25 11t13.5 -48.5t-0.5 -77t-18 -73.5zM1142 1608v0q-9 -21 -33.5 -35t-53 -20.5t-48 -5t-16.5 12.5q3 12 -1.5 52t-14 88.5t-22 85t-24.5 41.5q-11 1 -50 -33.5t-86.5 -83.5t-84 -91.5
t-43.5 -58.5q-5 -14 -26 -10.5t-45 18.5t-39 36t-8 44q10 26 66.5 81.5t130.5 116.5t136 101.5t84 37.5q27 -12 72 -91t79 -165.5t27 -120.5z" />
    <glyph glyph-name="Edieresis" unicode="&#xcb;" horiz-adv-x="1164" 
d="M1156 492q-40 -85 -136.5 -185t-225.5 -189t-265 -141.5t-256 -42t-198 107.5q-55 74 -56.5 156.5t34.5 166.5q54 122 147.5 229t179.5 177.5t117 82.5q-8 8 -18 17q-53 45 -93 105.5t-14 144.5q29 73 92.5 140t127.5 115t93 65q150 85 238.5 78t136.5 -67
q68 -81 38.5 -191t-163.5 -211q-34 -20 -82.5 9t-68.5 72.5t32 67.5q33 14 74 45t64.5 65t6.5 56q-16 12 -86.5 -23.5t-157 -98t-148.5 -132.5t-61 -127q5 -34 34.5 -42t61.5 -4t44 8q36 8 69.5 -17.5t54.5 -64.5t21.5 -71t-30.5 -36q-49 -6 -144.5 -71t-197.5 -161
t-168.5 -195t-56.5 -173q21 -84 137 -65.5t273.5 107t303.5 216.5t226 265q15 24 25 11t13.5 -48.5t-0.5 -77t-18 -73.5zM877 1727v0q54 74 109 82t89.5 -33t23.5 -113q-17 -81 -65.5 -104t-98.5 -4t-72 66t14 106zM599 1738v0q53 75 108.5 83t89.5 -33t24 -114
q-17 -80 -65.5 -103.5t-99 -4t-72 66t14.5 105.5z" />
    <glyph glyph-name="Igrave" unicode="&#xcc;" horiz-adv-x="692" 
d="M389 -130q-76 34 -196.5 24t-197.5 -46q-9 -2 -21 17.5t-20 49t-5 57t25 40.5q51 25 133 38q51 320 178.5 657t273.5 590q-71 -13 -120 -32q-16 -5 -30 17.5t-23 56t-11 61.5t6 34q43 22 176.5 41t265.5 23.5t173 -14.5q20 -14 23.5 -44.5t-3.5 -64t-17.5 -58.5
t-18.5 -28q-59 24 -151 28q-2 -4 -5 -7q-156 -185 -269 -424t-178 -462t-79 -360q78 -2 102 -18q20 -18 19 -55.5t-11.5 -73.5t-18.5 -47zM738 1978q46 -26 99 -98.5t97 -151t64 -122.5q8 -22 -7 -39.5t-37.5 -22t-37.5 13.5q-56 77 -140.5 154.5t-151.5 117.5
q-27 24 -7.5 63.5t57 67.5t64.5 17v0z" />
    <glyph glyph-name="Iacute" unicode="&#xcd;" horiz-adv-x="692" 
d="M389 -130q-76 34 -196.5 24t-197.5 -46q-9 -2 -21 17.5t-20 49t-5 57t25 40.5q51 25 133 38q51 320 178.5 657t273.5 590q-71 -13 -120 -32q-16 -5 -30 17.5t-23 56t-11 61.5t6 34q43 22 176.5 41t265.5 23.5t173 -14.5q20 -14 23.5 -44.5t-3.5 -64t-17.5 -58.5
t-18.5 -28q-59 24 -151 28q-2 -4 -5 -7q-156 -185 -269 -424t-178 -462t-79 -360q78 -2 102 -18q20 -18 19 -55.5t-11.5 -73.5t-18.5 -47zM878 1948v0q27 11 64.5 -17t57 -67.5t-7.5 -63.5q-67 -40 -151.5 -117.5t-140.5 -154.5q-15 -18 -37.5 -13.5t-37.5 22t-7 39.5
q20 44 64 122.5t97 151t99 98.5z" />
    <glyph glyph-name="Icircumflex" unicode="&#xce;" horiz-adv-x="692" 
d="M389 -130q-76 34 -196.5 24t-197.5 -46q-9 -2 -21 17.5t-20 49t-5 57t25 40.5q51 25 133 38q51 320 178.5 657t273.5 590q-71 -13 -120 -32q-16 -5 -30 17.5t-23 56t-11 61.5t6 34q43 22 176.5 41t265.5 23.5t173 -14.5q20 -14 23.5 -44.5t-3.5 -64t-17.5 -58.5
t-18.5 -28q-59 24 -151 28q-2 -4 -5 -7q-156 -185 -269 -424t-178 -462t-79 -360q78 -2 102 -18q20 -18 19 -55.5t-11.5 -73.5t-18.5 -47zM1067 1604v0q-9 -21 -33.5 -35t-53 -20.5t-48 -5t-16.5 12.5q3 12 -1.5 52t-14 88.5t-22 85t-24.5 41.5q-11 1 -50 -33.5t-86.5 -83.5
t-84 -91.5t-43.5 -58.5q-5 -14 -26 -10.5t-45 18.5t-39 36t-8 44q10 26 66.5 81.5t130.5 116.5t136 101.5t84 37.5q27 -12 72 -91t79 -165.5t27 -120.5z" />
    <glyph glyph-name="Idieresis" unicode="&#xcf;" horiz-adv-x="692" 
d="M389 -130q-76 34 -196.5 24t-197.5 -46q-9 -2 -21 17.5t-20 49t-5 57t25 40.5q51 25 133 38q51 320 178.5 657t273.5 590q-71 -13 -120 -32q-16 -5 -30 17.5t-23 56t-11 61.5t6 34q43 22 176.5 41t265.5 23.5t173 -14.5q20 -14 23.5 -44.5t-3.5 -64t-17.5 -58.5
t-18.5 -28q-59 24 -151 28q-2 -4 -5 -7q-156 -185 -269 -424t-178 -462t-79 -360q78 -2 102 -18q20 -18 19 -55.5t-11.5 -73.5t-18.5 -47zM803 1749v0q54 74 109 82t89.5 -33t23.5 -113q-17 -81 -65.5 -104t-98.5 -4t-72 66t14 106zM525 1760v0q53 75 108.5 83t89.5 -33
t24 -114q-17 -80 -65.5 -103.5t-99 -4t-72 66t14.5 105.5z" />
    <glyph glyph-name="Eth" unicode="&#xd0;" horiz-adv-x="1594" 
d="M902 943q244 135 481 225q13 51 -19 111.5t-133 76t-294 -65.5q26 -3 54.5 -20t44 -40t3.5 -45q-92 -149 -134 -237q-2 -3 -3 -5zM427 635q64 51 133 100q33 24 67 49q13 30 73 157t147 306q-84 -37 -193.5 -120.5t-198 -179t-107.5 -168.5t80 -89q-49 -37 -114.5 -15
t-102 88.5t1.5 163.5q58 128 196 250t305 208t313 105q111 11 217.5 -26.5t187 -104t112.5 -141.5q135 28 218 -1t110.5 -86.5t-3.5 -115.5q3 58 -78 88t-217 -20q10 -207 -162.5 -483t-465.5 -492q-242 -167 -455 -218t-336.5 9t-96.5 227q21 112 133 271q38 52 80 97h-150
q-51 1 -60 35t14 69.5t64 35.5q144 2 288 1zM751 634h98q33 0 43 -21.5t1 -49t-33.5 -49t-59.5 -21.5h-108q-14 -35 -27 -71q-46 -129 -74 -225q-12 -30 -52 -33t-76.5 15t-37.5 48q2 25 28.5 98t53.5 144q4 9 7 17q-74 -53 -142.5 -128.5t-115 -152.5t-55 -134.5
t37.5 -74.5q106 -30 270.5 47t340.5 228t317.5 344t200.5 394q-53 -18 -173 -74t-242.5 -127t-181.5 -132z" />
    <glyph glyph-name="Ntilde" unicode="&#xd1;" horiz-adv-x="1456" 
d="M1291 -83q-68 -56 -147.5 -49t-136 76t-55.5 197q6 130 48.5 285t95.5 312q60 175 97 324q36 159 6 194.5t-100.5 -28t-154.5 -201.5q-100 -161 -211.5 -404t-223.5 -587q-9 -23 -47 -22.5t-81 19.5t-66.5 52t-4.5 75q23 45 78 181.5t117.5 315t106.5 348.5t44.5 281
t-69.5 114q-72 -5 -155 -98.5t-153.5 -232t-106 -279.5t-14.5 -242q14 -51 59 -67t98 17q-16 -46 -77.5 -67t-132 -4.5t-112.5 84.5t-19 201q35 178 127 359.5t223 304t283 126.5q124 -4 166 -87.5t32.5 -199.5t-38.5 -219t-46 -146q1 3 3 7q32 70 92.5 185.5t143 226.5
t180 169.5t201.5 14.5q74 -31 84.5 -166.5t-70.5 -398.5q-6 -21 -13 -42q-54 -170 -102 -339t-70 -307t3 -216.5t118 -66.5zM1209 1745v0q13 0 10.5 -25t-18.5 -61t-43 -72.5t-62 -61t-75 -24.5q-57 0 -104.5 23t-86.5 50q-29 19 -54.5 32.5t-47.5 13.5q-29 0 -48.5 -15.5
t-32.5 -30.5q-8 -9 -14.5 -15t-12.5 -6q-18 0 -9 33.5t36 75.5t66.5 71t85.5 24q30 -7 79 -38q39 -25 86 -47t99 -25q28 0 48 10t34 25t24 30q10 14 19.5 23.5t20.5 9.5z" />
    <glyph glyph-name="Ograve" unicode="&#xd2;" horiz-adv-x="1348" 
d="M559 -34q131 71 243.5 225.5t192 348t110 381t-3.5 324.5q-14 70 -68 102t-180 -20q-155 -70 -285 -201t-221.5 -291.5t-133 -317.5t-18.5 -279.5t123 -177.5q-63 144 -25 355.5t142.5 405.5t242.5 287q30 18 62.5 4.5t57 -42.5t33.5 -57.5t-6 -40.5q-98 -76 -175.5 -212
t-121 -292t-39.5 -291.5t70 -210.5zM1290 1206q41 -159 6.5 -364t-119.5 -408.5t-197.5 -355.5t-228.5 -205q-71 -28 -157.5 -12t-158.5 60t-100 98q-163 36 -239.5 132t-81.5 231q-5 207 106.5 438.5t287 412t362.5 235.5q112 26 223 -9t192 -105t105 -148zM780 1956
q46 -26 99 -98.5t97 -151t64 -122.5q8 -22 -7 -39.5t-37.5 -22t-37.5 13.5q-56 77 -140.5 154.5t-151.5 117.5q-27 24 -7.5 63.5t57 67.5t64.5 17v0z" />
    <glyph glyph-name="Oacute" unicode="&#xd3;" horiz-adv-x="1348" 
d="M559 -34q131 71 243.5 225.5t192 348t110 381t-3.5 324.5q-14 70 -68 102t-180 -20q-155 -70 -285 -201t-221.5 -291.5t-133 -317.5t-18.5 -279.5t123 -177.5q-63 144 -25 355.5t142.5 405.5t242.5 287q30 18 62.5 4.5t57 -42.5t33.5 -57.5t-6 -40.5q-98 -76 -175.5 -212
t-121 -292t-39.5 -291.5t70 -210.5zM1290 1206q41 -159 6.5 -364t-119.5 -408.5t-197.5 -355.5t-228.5 -205q-71 -28 -157.5 -12t-158.5 60t-100 98q-163 36 -239.5 132t-81.5 231q-5 207 106.5 438.5t287 412t362.5 235.5q112 26 223 -9t192 -105t105 -148zM882 1952v0
q27 11 64.5 -17t57 -67.5t-7.5 -63.5q-67 -40 -151.5 -117.5t-140.5 -154.5q-15 -18 -37.5 -13.5t-37.5 22t-7 39.5q20 44 64 122.5t97 151t99 98.5z" />
    <glyph glyph-name="Ocircumflex" unicode="&#xd4;" horiz-adv-x="1348" 
d="M559 -34q131 71 243.5 225.5t192 348t110 381t-3.5 324.5q-14 70 -68 102t-180 -20q-155 -70 -285 -201t-221.5 -291.5t-133 -317.5t-18.5 -279.5t123 -177.5q-63 144 -25 355.5t142.5 405.5t242.5 287q30 18 62.5 4.5t57 -42.5t33.5 -57.5t-6 -40.5q-98 -76 -175.5 -212
t-121 -292t-39.5 -291.5t70 -210.5zM1290 1206q41 -159 6.5 -364t-119.5 -408.5t-197.5 -355.5t-228.5 -205q-71 -28 -157.5 -12t-158.5 60t-100 98q-163 36 -239.5 132t-81.5 231q-5 207 106.5 438.5t287 412t362.5 235.5q112 26 223 -9t192 -105t105 -148zM1131 1563v0
q-9 -21 -33.5 -35t-53 -20.5t-48 -5t-16.5 12.5q3 12 -1.5 52t-14 88.5t-22 85t-24.5 41.5q-11 1 -50 -33.5t-86.5 -83.5t-84 -91.5t-43.5 -58.5q-5 -14 -26 -10.5t-45 18.5t-39 36t-8 44q10 26 66.5 81.5t130.5 116.5t136 101.5t84 37.5q27 -12 72 -91t79 -165.5t27 -120.5
z" />
    <glyph glyph-name="Otilde" unicode="&#xd5;" horiz-adv-x="1348" 
d="M559 -34q131 71 243.5 225.5t192 348t110 381t-3.5 324.5q-14 70 -68 102t-180 -20q-155 -70 -285 -201t-221.5 -291.5t-133 -317.5t-18.5 -279.5t123 -177.5q-63 144 -25 355.5t142.5 405.5t242.5 287q30 18 62.5 4.5t57 -42.5t33.5 -57.5t-6 -40.5q-98 -76 -175.5 -212
t-121 -292t-39.5 -291.5t70 -210.5zM1290 1206q41 -159 6.5 -364t-119.5 -408.5t-197.5 -355.5t-228.5 -205q-71 -28 -157.5 -12t-158.5 60t-100 98q-163 36 -239.5 132t-81.5 231q-5 207 106.5 438.5t287 412t362.5 235.5q112 26 223 -9t192 -105t105 -148zM1143 1779v0
q13 0 10.5 -25t-18.5 -61t-43 -72.5t-62 -61t-75 -24.5q-57 0 -104.5 23t-86.5 50q-29 19 -54.5 32.5t-47.5 13.5q-29 0 -48.5 -15.5t-32.5 -30.5q-8 -9 -14.5 -15t-12.5 -6q-18 0 -9 33.5t36 75.5t66.5 71t85.5 24q30 -7 79 -38q39 -25 86 -47t99 -25q28 0 48 10t34 25
t24 30q10 14 19.5 23.5t20.5 9.5z" />
    <glyph glyph-name="Odieresis" unicode="&#xd6;" horiz-adv-x="1348" 
d="M559 -34q131 71 243.5 225.5t192 348t110 381t-3.5 324.5q-14 70 -68 102t-180 -20q-155 -70 -285 -201t-221.5 -291.5t-133 -317.5t-18.5 -279.5t123 -177.5q-63 144 -25 355.5t142.5 405.5t242.5 287q30 18 62.5 4.5t57 -42.5t33.5 -57.5t-6 -40.5q-98 -76 -175.5 -212
t-121 -292t-39.5 -291.5t70 -210.5zM1290 1206q41 -159 6.5 -364t-119.5 -408.5t-197.5 -355.5t-228.5 -205q-71 -28 -157.5 -12t-158.5 60t-100 98q-163 36 -239.5 132t-81.5 231q-5 207 106.5 438.5t287 412t362.5 235.5q112 26 223 -9t192 -105t105 -148zM879 1715v0
q54 74 109 82t89.5 -33t23.5 -113q-17 -81 -65.5 -104t-98.5 -4t-72 66t14 106zM601 1726v0q53 75 108.5 83t89.5 -33t24 -114q-17 -80 -65.5 -103.5t-99 -4t-72 66t14.5 105.5z" />
    <glyph glyph-name="Oslash" unicode="&#xd8;" horiz-adv-x="1412" 
d="M1160 1394q27 -19 52 -40q81 -70 105 -148q41 -159 6.5 -364t-119.5 -408.5t-197.5 -355.5t-228.5 -205q-71 -28 -157 -12l-59 -164q-18 -49 -50.5 -54.5t-54 20.5t-10.5 75q21 72 49 164q-17 9 -34 19q-72 44 -100 98q-163 36 -239.5 132t-81.5 231q-5 207 106.5 438.5
t287 412t362.5 235.5q107 25 214 -6q24 76 43 133q20 52 63 53.5t74.5 -33t14.5 -91.5q-21 -60 -46 -130zM540 43q40 124 90 277q108 327 215 646q-94 -75 -168 -206q-78 -136 -121.5 -292t-39.5 -291q2 -77 24 -134zM859 1009q8 23 16 47q57 170 101 300q-41 -6 -96 -29
q-155 -70 -285 -201t-221.5 -291.5t-133 -317.5t-18.5 -279.5t123 -177.5q-63 144 -25 355.5t142.5 405.5t242.5 287q30 18 62.5 4.5t57 -42.5t33.5 -57zM1119 1277q-54 -151 -121 -342l-253 -722l-65 -183q78 64 150 162q112 154 191.5 347.5t110 381t-3.5 324.5
q-3 17 -9 32z" />
    <glyph glyph-name="Ugrave" unicode="&#xd9;" horiz-adv-x="1538" 
d="M703 1480q-75 6 -171 -74.5t-185.5 -207.5t-143.5 -262t-45 -238q8 -53 52 -75.5t103 3.5q-22 -44 -87.5 -56t-135.5 15t-104.5 100.5t4.5 201.5q58 172 174.5 338.5t266 269t305.5 84.5q110 -19 149 -99.5t28.5 -195.5t-48 -237.5t-81.5 -224.5q-14 -35 -33 -80
q-63 -143 -124.5 -310t-59.5 -261q7 -61 66 1t148 203.5t189.5 318t191 343.5t150.5 282q38 71 57 106q24 36 74.5 26.5t87.5 -44.5t22 -76q-89 -194 -166 -422t-124.5 -439.5t-47 -354.5t66.5 -167q-41 -28 -98.5 1.5t-103.5 89t-54 120.5q8 156 46.5 307t76.5 267
q16 48 27 86q-21 -35 -67 -121q-50 -96 -119.5 -220.5t-144 -243t-141.5 -198.5t-111 -80q-57 0 -107 38t-83.5 95t-41.5 117q-4 58 33.5 177t90.5 250.5t95 228.5q14 33 24 58q50 117 93.5 242.5t52 216t-46.5 101.5zM1052 1929q46 -26 99 -98.5t97 -151t64 -122.5
q8 -22 -7 -39.5t-37.5 -22t-37.5 13.5q-56 77 -140.5 154.5t-151.5 117.5q-27 24 -7.5 63.5t57 67.5t64.5 17v0z" />
    <glyph glyph-name="Uacute" unicode="&#xda;" horiz-adv-x="1538" 
d="M703 1480q-75 6 -171 -74.5t-185.5 -207.5t-143.5 -262t-45 -238q8 -53 52 -75.5t103 3.5q-22 -44 -87.5 -56t-135.5 15t-104.5 100.5t4.5 201.5q58 172 174.5 338.5t266 269t305.5 84.5q110 -19 149 -99.5t28.5 -195.5t-48 -237.5t-81.5 -224.5q-14 -35 -33 -80
q-63 -143 -124.5 -310t-59.5 -261q7 -61 66 1t148 203.5t189.5 318t191 343.5t150.5 282q38 71 57 106q24 36 74.5 26.5t87.5 -44.5t22 -76q-89 -194 -166 -422t-124.5 -439.5t-47 -354.5t66.5 -167q-41 -28 -98.5 1.5t-103.5 89t-54 120.5q8 156 46.5 307t76.5 267
q16 48 27 86q-21 -35 -67 -121q-50 -96 -119.5 -220.5t-144 -243t-141.5 -198.5t-111 -80q-57 0 -107 38t-83.5 95t-41.5 117q-4 58 33.5 177t90.5 250.5t95 228.5q14 33 24 58q50 117 93.5 242.5t52 216t-46.5 101.5zM1345 1903v0q27 11 64.5 -17t57 -67.5t-7.5 -63.5
q-67 -40 -151.5 -117.5t-140.5 -154.5q-15 -18 -37.5 -13.5t-37.5 22t-7 39.5q20 44 64 122.5t97 151t99 98.5z" />
    <glyph glyph-name="Ucircumflex" unicode="&#xdb;" horiz-adv-x="1538" 
d="M703 1480q-75 6 -171 -74.5t-185.5 -207.5t-143.5 -262t-45 -238q8 -53 52 -75.5t103 3.5q-22 -44 -87.5 -56t-135.5 15t-104.5 100.5t4.5 201.5q58 172 174.5 338.5t266 269t305.5 84.5q110 -19 149 -99.5t28.5 -195.5t-48 -237.5t-81.5 -224.5q-14 -35 -33 -80
q-63 -143 -124.5 -310t-59.5 -261q7 -61 66 1t148 203.5t189.5 318t191 343.5t150.5 282q38 71 57 106q24 36 74.5 26.5t87.5 -44.5t22 -76q-89 -194 -166 -422t-124.5 -439.5t-47 -354.5t66.5 -167q-41 -28 -98.5 1.5t-103.5 89t-54 120.5q8 156 46.5 307t76.5 267
q16 48 27 86q-21 -35 -67 -121q-50 -96 -119.5 -220.5t-144 -243t-141.5 -198.5t-111 -80q-57 0 -107 38t-83.5 95t-41.5 117q-4 58 33.5 177t90.5 250.5t95 228.5q14 33 24 58q50 117 93.5 242.5t52 216t-46.5 101.5zM1482 1690v0q-9 -21 -33.5 -35t-53 -20.5t-48 -5
t-16.5 12.5q3 12 -1.5 52t-14 88.5t-22 85t-24.5 41.5q-11 1 -50 -33.5t-86.5 -83.5t-84 -91.5t-43.5 -58.5q-5 -14 -26 -10.5t-45 18.5t-39 36t-8 44q10 26 66.5 81.5t130.5 116.5t136 101.5t84 37.5q27 -12 72 -91t79 -165.5t27 -120.5z" />
    <glyph glyph-name="Udieresis" unicode="&#xdc;" horiz-adv-x="1538" 
d="M703 1480q-75 6 -171 -74.5t-185.5 -207.5t-143.5 -262t-45 -238q8 -53 52 -75.5t103 3.5q-22 -44 -87.5 -56t-135.5 15t-104.5 100.5t4.5 201.5q58 172 174.5 338.5t266 269t305.5 84.5q110 -19 149 -99.5t28.5 -195.5t-48 -237.5t-81.5 -224.5q-14 -35 -33 -80
q-63 -143 -124.5 -310t-59.5 -261q7 -61 66 1t148 203.5t189.5 318t191 343.5t150.5 282q38 71 57 106q24 36 74.5 26.5t87.5 -44.5t22 -76q-89 -194 -166 -422t-124.5 -439.5t-47 -354.5t66.5 -167q-41 -28 -98.5 1.5t-103.5 89t-54 120.5q8 156 46.5 307t76.5 267
q16 48 27 86q-21 -35 -67 -121q-50 -96 -119.5 -220.5t-144 -243t-141.5 -198.5t-111 -80q-57 0 -107 38t-83.5 95t-41.5 117q-4 58 33.5 177t90.5 250.5t95 228.5q14 33 24 58q50 117 93.5 242.5t52 216t-46.5 101.5zM1248 1760v0q54 74 109 82t89.5 -33t23.5 -113
q-17 -81 -65.5 -104t-98.5 -4t-72 66t14 106zM970 1771v0q53 75 108.5 83t89.5 -33t24 -114q-17 -80 -65.5 -103.5t-99 -4t-72 66t14.5 105.5z" />
    <glyph glyph-name="Yacute" unicode="&#xdd;" horiz-adv-x="1486" 
d="M666 1405q-92 -17 -176 -94t-147 -181t-92 -201t-11.5 -153.5t93.5 -39.5q-33 -57 -97 -42.5t-118 79t-54 157.5q5 96 74.5 205.5t177 202t227 139.5t223.5 18q95 -35 117.5 -127.5t-19.5 -187.5q-15 -32 -40 -85q-44 -90 -99.5 -211.5t-101 -240.5t-58.5 -201.5
t29 -94.5q54 -8 143.5 101t195 288.5t207 382.5t179.5 383q22 40 79.5 34t105 -39.5t39.5 -74.5q-40 -123 -89 -306q-47 -176 -106 -371.5t-133 -376t-167 -310.5q-147 -194 -290 -255t-253 -30t-157 112t-1 171q48 -141 153 -154.5t235 98t253.5 345.5t207.5 586
q-63 -120 -143.5 -258.5t-172 -256.5t-186.5 -175.5t-188 -14.5q-92 48 -112 141t9 211.5t83.5 244.5t110.5 241q78 156 109.5 252.5t-40.5 88.5zM1208 1922v0q27 11 64.5 -17t57 -67.5t-7.5 -63.5q-67 -40 -151.5 -117.5t-140.5 -154.5q-15 -18 -37.5 -13.5t-37.5 22
t-7 39.5q20 44 64 122.5t97 151t99 98.5z" />
    <glyph glyph-name="germandbls" unicode="&#xdf;" horiz-adv-x="1208" 
d="M662 792v0q38 -3 74 -5q89 1 161.5 -28t130.5 -148q32 -77 -7 -192.5t-120.5 -238t-177 -218t-176.5 -131.5q-81 -29 -147.5 13t-93 99t13.5 74q61 -30 148 25.5t175 156t153.5 204.5t84.5 171q15 57 -17 70.5t-92 13.5q-65 -1 -143 17.5t-146 92.5q-26 35 5 115
t90.5 179t121.5 191q49 75 82 130v0q-2 2 -4 5q-289 -363 -437 -681.5t-263 -780.5q-14 -50 -43 -47t-49 68t-7.5 201.5t80.5 353.5q58 181 172.5 407.5t251 425.5t262.5 298q60 38 132.5 -16t113.5 -144t7 -160q-56 -95 -138 -211q-108 -150 -198 -310z" />
    <glyph glyph-name="agrave" unicode="&#xe0;" 
d="M779 746q10 10 32 5.5t38 -19.5t8 -35q-50 -87 -117.5 -195t-142.5 -199t-149 -129q-64 -25 -120.5 12.5t-65.5 88.5q-2 33 9 86.5t25 99.5q-32 -38 -72 -93q-73 -108 -173 -206q-27 -21 -77 -9t-91 44t-40 71q18 155 107 321t197 258q60 46 109.5 32t100.5 -51
q18 -12 38 -25q25 28 50 58q17 22 36 44q23 22 64.5 9t70.5 -43.5t15 -60.5q-131 -229 -165.5 -351t-3.5 -123q79 5 317 410zM304 670q6 9 6 28t-7 35.5t-21 20t-36 -18.5q-89 -95 -149 -217.5t-64 -174.5q49 41 134 146t137 181zM267 1388q46 -26 99 -98.5t97 -151
t64 -122.5q8 -22 -7 -39.5t-37.5 -22t-37.5 13.5q-56 77 -140.5 154.5t-151.5 117.5q-27 24 -7.5 63.5t57 67.5t64.5 17v0z" />
    <glyph glyph-name="aacute" unicode="&#xe1;" 
d="M779 746q10 10 32 5.5t38 -19.5t8 -35q-50 -87 -117.5 -195t-142.5 -199t-149 -129q-64 -25 -120.5 12.5t-65.5 88.5q-2 33 9 86.5t25 99.5q-32 -38 -72 -93q-73 -108 -173 -206q-27 -21 -77 -9t-91 44t-40 71q18 155 107 321t197 258q60 46 109.5 32t100.5 -51
q18 -12 38 -25q25 28 50 58q17 22 36 44q23 22 64.5 9t70.5 -43.5t15 -60.5q-131 -229 -165.5 -351t-3.5 -123q79 5 317 410zM304 670q6 9 6 28t-7 35.5t-21 20t-36 -18.5q-89 -95 -149 -217.5t-64 -174.5q49 41 134 146t137 181zM436 1347v0q27 11 64.5 -17t57 -67.5
t-7.5 -63.5q-67 -40 -151.5 -117.5t-140.5 -154.5q-15 -18 -37.5 -13.5t-37.5 22t-7 39.5q20 44 64 122.5t97 151t99 98.5z" />
    <glyph glyph-name="acircumflex" unicode="&#xe2;" 
d="M779 746q10 10 32 5.5t38 -19.5t8 -35q-50 -87 -117.5 -195t-142.5 -199t-149 -129q-64 -25 -120.5 12.5t-65.5 88.5q-2 33 9 86.5t25 99.5q-32 -38 -72 -93q-73 -108 -173 -206q-27 -21 -77 -9t-91 44t-40 71q18 155 107 321t197 258q60 46 109.5 32t100.5 -51
q18 -12 38 -25q25 28 50 58q17 22 36 44q23 22 64.5 9t70.5 -43.5t15 -60.5q-131 -229 -165.5 -351t-3.5 -123q79 5 317 410zM304 670q6 9 6 28t-7 35.5t-21 20t-36 -18.5q-89 -95 -149 -217.5t-64 -174.5q49 41 134 146t137 181zM701 1005v0q-9 -21 -33.5 -35t-53 -20.5
t-48 -5t-16.5 12.5q3 12 -1.5 52t-14 88.5t-22 85t-24.5 41.5q-11 1 -50 -33.5t-86.5 -83.5t-84 -91.5t-43.5 -58.5q-5 -14 -26 -10.5t-45 18.5t-39 36t-8 44q10 26 66.5 81.5t130.5 116.5t136 101.5t84 37.5q27 -12 72 -91t79 -165.5t27 -120.5z" />
    <glyph glyph-name="atilde" unicode="&#xe3;" 
d="M779 746q10 10 32 5.5t38 -19.5t8 -35q-50 -87 -117.5 -195t-142.5 -199t-149 -129q-64 -25 -120.5 12.5t-65.5 88.5q-2 33 9 86.5t25 99.5q-32 -38 -72 -93q-73 -108 -173 -206q-27 -21 -77 -9t-91 44t-40 71q18 155 107 321t197 258q60 46 109.5 32t100.5 -51
q18 -12 38 -25q25 28 50 58q17 22 36 44q23 22 64.5 9t70.5 -43.5t15 -60.5q-131 -229 -165.5 -351t-3.5 -123q79 5 317 410zM304 670q6 9 6 28t-7 35.5t-21 20t-36 -18.5q-89 -95 -149 -217.5t-64 -174.5q49 41 134 146t137 181zM725 1218v0q13 0 10.5 -25t-18.5 -61
t-43 -72.5t-62 -61t-75 -24.5q-57 0 -104.5 23t-86.5 50q-29 19 -54.5 32.5t-47.5 13.5q-29 0 -48.5 -15.5t-32.5 -30.5q-8 -9 -14.5 -15t-12.5 -6q-18 0 -9 33.5t36 75.5t66.5 71t85.5 24q30 -7 79 -38q39 -25 86 -47t99 -25q28 0 48 10t34 25t24 30q10 14 19.5 23.5
t20.5 9.5z" />
    <glyph glyph-name="adieresis" unicode="&#xe4;" 
d="M779 746q10 10 32 5.5t38 -19.5t8 -35q-50 -87 -117.5 -195t-142.5 -199t-149 -129q-64 -25 -120.5 12.5t-65.5 88.5q-2 33 9 86.5t25 99.5q-32 -38 -72 -93q-73 -108 -173 -206q-27 -21 -77 -9t-91 44t-40 71q18 155 107 321t197 258q60 46 109.5 32t100.5 -51
q18 -12 38 -25q25 28 50 58q17 22 36 44q23 22 64.5 9t70.5 -43.5t15 -60.5q-131 -229 -165.5 -351t-3.5 -123q79 5 317 410zM304 670q6 9 6 28t-7 35.5t-21 20t-36 -18.5q-89 -95 -149 -217.5t-64 -174.5q49 41 134 146t137 181zM446 1158v0q54 74 109 82t89.5 -33
t23.5 -113q-17 -81 -65.5 -104t-98.5 -4t-72 66t14 106zM168 1169v0q53 75 108.5 83t89.5 -33t24 -114q-17 -80 -65.5 -103.5t-99 -4t-72 66t14.5 105.5z" />
    <glyph glyph-name="aring" unicode="&#xe5;" 
d="M311 670q6 9 6 28t-7 35.5t-21 20t-36 -18.5q-89 -95 -149 -217.5t-64 -174.5q49 41 134 146t137 181zM314 949q36 -17 81 17.5t82 93t48.5 112.5t-20.5 77q-31 15 -78.5 -18.5t-88 -91t-52 -111.5t27.5 -79zM553 914q41 -13 70 -43q29 -31 15 -61q-131 -229 -165.5 -351
t-3.5 -123q79 5 317 410q10 10 32 5.5t38 -19.5t8 -35q-50 -87 -117.5 -195t-142.5 -199t-149 -129q-64 -25 -120.5 12.5t-65.5 88.5q-2 33 9 86.5t25 99.5q-32 -38 -72 -93q-73 -108 -173 -206q-27 -21 -77 -9t-91 44t-40 71q18 155 107 321t197 258q60 46 109.5 32
t100.5 -51q18 -12 38 -25q25 28 50 58q5 6 10 13q-54 -8 -116 9q-64 17 -113.5 51t-60.5 75q-15 64 7.5 136.5t73.5 126.5t121 65q74 7 139 -26.5t105 -88t40 -110.5q-4 -81 -57 -150q-22 -28 -48 -48z" />
    <glyph glyph-name="ae" unicode="&#xe6;" horiz-adv-x="834" 
d="M645 805q-27 -21 -68.5 -77t-75 -111t-34.5 -71q46 -5 85 40.5t63.5 108t29.5 110.5zM199 322q-62 -83 -141 -160q-27 -21 -77 -9t-91 44t-40 71q18 155 107 321t197 258q60 46 109.5 32t100.5 -51q15 -10 32 -21q2 2 4 5q75 99 145 139q47 24 88 10t92 -48q15 -9 32 -19
q46 -28 44 -72q-2 -34 -30.5 -113t-81.5 -155t-126 -102q-37 -11 -67.5 -7t-63.5 19q-14 -30 -29 -84t-16.5 -100.5t24.5 -53.5q45 -5 127 60t166 167.5t137 207.5q11 10 29 4t29.5 -21.5t2.5 -33.5q-55 -156 -176.5 -292.5t-249.5 -209.5q-60 -27 -129.5 5.5t-105.5 71.5
q-45 51 -42 137zM304 661q6 10 11 19q2 8 2 18q0 19 -7 35.5t-21 20t-36 -18.5q-89 -95 -149 -217.5t-64 -174.5q49 41 134 146q80 99 130 172z" />
    <glyph glyph-name="ccedilla" unicode="&#xe7;" horiz-adv-x="571" 
d="M51 184q-40 17 -74 43q-53 39 -60 85q-8 109 45 253t137.5 259t170.5 138q18 4 34 -2t39 -18l28 -14l10 15q13 18 26 35.5t19 20.5q34 12 74.5 -12t64 -58.5t7.5 -52.5q-78 -73 -124.5 -162.5t-35.5 -137.5q-13 -14 -44.5 -6t-60 34.5t-31.5 67.5q1 37 20.5 89t37.5 84
q-43 -22 -92.5 -113t-82.5 -198.5t-27.5 -180t72.5 -58.5q79 24 159 119t165 220q34 50 70 100q6 7 18 3.5t25 -13.5t20.5 -20.5t3.5 -17.5q-16 -26 -36 -61q-47 -82 -111.5 -181t-141.5 -179.5t-162 -106.5q-30 -7 -65 -2l-3 -3q-21 -29 -39 -58.5t-23 -44.5q21 23 50 43.5
t61 28.5q33 7 71 2t68 -25t38 -41q12 -50 -13.5 -108t-79 -106t-125.5 -66q-48 -11 -98 -4t-87 26t-47 43q-11 27 30 54q1 -35 49.5 -42.5t92.5 2t91 50.5q33 31 52.5 66t16.5 57t-25.5 27.5t-49.5 -4t-50.5 -30.5t-35.5 -33q-8 -7 -9 -7q-28 0 -64.5 17.5t-45.5 37.5
q5 18 30 63q19 35 40 71z" />
    <glyph glyph-name="egrave" unicode="&#xe8;" horiz-adv-x="540" 
d="M468 707q11 10 29 4t29.5 -21.5t2.5 -33.5q-55 -156 -176.5 -292.5t-249.5 -209.5q-60 -27 -129.5 5.5t-105.5 71.5q-53 61 -40 171t68.5 233t130.5 222.5t145 139.5q47 24 88 10t92 -48q15 -9 32 -19q46 -28 44 -72q-2 -34 -30.5 -113t-81.5 -155t-126 -102
q-37 -11 -67.5 -7t-63.5 19q-14 -30 -29 -84t-16.5 -100.5t24.5 -53.5q45 -5 127 60t166 167.5t137 207.5zM272 851q-27 -21 -68.5 -77t-75 -111t-34.5 -71q46 -5 85 40.5t63.5 108t29.5 110.5zM247 1466q46 -26 99 -98.5t97 -151t64 -122.5q8 -22 -7 -39.5t-37.5 -22
t-37.5 13.5q-56 77 -140.5 154.5t-151.5 117.5q-27 24 -7.5 63.5t57 67.5t64.5 17v0z" />
    <glyph glyph-name="eacute" unicode="&#xe9;" horiz-adv-x="540" 
d="M468 707q11 10 29 4t29.5 -21.5t2.5 -33.5q-55 -156 -176.5 -292.5t-249.5 -209.5q-60 -27 -129.5 5.5t-105.5 71.5q-53 61 -40 171t68.5 233t130.5 222.5t145 139.5q47 24 88 10t92 -48q15 -9 32 -19q46 -28 44 -72q-2 -34 -30.5 -113t-81.5 -155t-126 -102
q-37 -11 -67.5 -7t-63.5 19q-14 -30 -29 -84t-16.5 -100.5t24.5 -53.5q45 -5 127 60t166 167.5t137 207.5zM272 851q-27 -21 -68.5 -77t-75 -111t-34.5 -71q46 -5 85 40.5t63.5 108t29.5 110.5zM386 1443v0q27 11 64.5 -17t57 -67.5t-7.5 -63.5q-67 -40 -151.5 -117.5
t-140.5 -154.5q-15 -18 -37.5 -13.5t-37.5 22t-7 39.5q20 44 64 122.5t97 151t99 98.5z" />
    <glyph glyph-name="ecircumflex" unicode="&#xea;" horiz-adv-x="540" 
d="M468 707q11 10 29 4t29.5 -21.5t2.5 -33.5q-55 -156 -176.5 -292.5t-249.5 -209.5q-60 -27 -129.5 5.5t-105.5 71.5q-53 61 -40 171t68.5 233t130.5 222.5t145 139.5q47 24 88 10t92 -48q15 -9 32 -19q46 -28 44 -72q-2 -34 -30.5 -113t-81.5 -155t-126 -102
q-37 -11 -67.5 -7t-63.5 19q-14 -30 -29 -84t-16.5 -100.5t24.5 -53.5q45 -5 127 60t166 167.5t137 207.5zM272 851q-27 -21 -68.5 -77t-75 -111t-34.5 -71q46 -5 85 40.5t63.5 108t29.5 110.5zM637 1049v0q-9 -21 -33.5 -35t-53 -20.5t-48 -5t-16.5 12.5q3 12 -1.5 52
t-14 88.5t-22 85t-24.5 41.5q-11 1 -50 -33.5t-86.5 -83.5t-84 -91.5t-43.5 -58.5q-5 -14 -26 -10.5t-45 18.5t-39 36t-8 44q10 26 66.5 81.5t130.5 116.5t136 101.5t84 37.5q27 -12 72 -91t79 -165.5t27 -120.5z" />
    <glyph glyph-name="edieresis" unicode="&#xeb;" horiz-adv-x="540" 
d="M468 707q11 10 29 4t29.5 -21.5t2.5 -33.5q-55 -156 -176.5 -292.5t-249.5 -209.5q-60 -27 -129.5 5.5t-105.5 71.5q-53 61 -40 171t68.5 233t130.5 222.5t145 139.5q47 24 88 10t92 -48q15 -9 32 -19q46 -28 44 -72q-2 -34 -30.5 -113t-81.5 -155t-126 -102
q-37 -11 -67.5 -7t-63.5 19q-14 -30 -29 -84t-16.5 -100.5t24.5 -53.5q45 -5 127 60t166 167.5t137 207.5zM272 851q-27 -21 -68.5 -77t-75 -111t-34.5 -71q46 -5 85 40.5t63.5 108t29.5 110.5zM376 1229v0q54 74 109 82t89.5 -33t23.5 -113q-17 -81 -65.5 -104t-98.5 -4
t-72 66t14 106zM98 1240v0q53 75 108.5 83t89.5 -33t24 -114q-17 -80 -65.5 -103.5t-99 -4t-72 66t14.5 105.5z" />
    <glyph glyph-name="igrave" unicode="&#xec;" horiz-adv-x="353" 
d="M371 691q12 17 30 14.5t30 -14.5t8 -26q-27 -64 -84 -164t-124 -188t-122 -115q-35 -14 -79.5 -4t-78 39t-34.5 72q4 88 47.5 243.5t104.5 265.5q15 21 58 14t77 -30t24 -52q-83 -174 -112.5 -274t-17.5 -128q19 -39 94.5 58t178.5 289zM117 1269q46 -26 99 -98.5
t97 -151t64 -122.5q8 -22 -7 -39.5t-37.5 -22t-37.5 13.5q-56 77 -140.5 154.5t-151.5 117.5q-27 24 -7.5 63.5t57 67.5t64.5 17v0z" />
    <glyph glyph-name="iacute" unicode="&#xed;" horiz-adv-x="353" 
d="M371 691q12 17 30 14.5t30 -14.5t8 -26q-27 -64 -84 -164t-124 -188t-122 -115q-35 -14 -79.5 -4t-78 39t-34.5 72q4 88 47.5 243.5t104.5 265.5q15 21 58 14t77 -30t24 -52q-83 -174 -112.5 -274t-17.5 -128q19 -39 94.5 58t178.5 289zM328 1333v0q27 11 64.5 -17
t57 -67.5t-7.5 -63.5q-67 -40 -151.5 -117.5t-140.5 -154.5q-15 -18 -37.5 -13.5t-37.5 22t-7 39.5q20 44 64 122.5t97 151t99 98.5z" />
    <glyph glyph-name="icircumflex" unicode="&#xee;" horiz-adv-x="353" 
d="M371 691q12 17 30 14.5t30 -14.5t8 -26q-27 -64 -84 -164t-124 -188t-122 -115q-35 -14 -79.5 -4t-78 39t-34.5 72q4 88 47.5 243.5t104.5 265.5q15 21 58 14t77 -30t24 -52q-83 -174 -112.5 -274t-17.5 -128q19 -39 94.5 58t178.5 289zM480 947q-7 -19 -27 -31t-43 -18
t-39 -4.5t-13 11.5q2 10 -1.5 45.5t-11.5 78.5t-18 75t-20 36q-9 1 -40.5 -29.5t-70 -73.5t-68 -80.5t-35.5 -51.5q-5 -13 -22 -10t-36.5 16.5t-31 32t-6.5 38.5q9 23 54.5 72t105.5 103t110.5 90t68.5 33q21 -11 58 -80.5t64.5 -146t21.5 -106.5z" />
    <glyph glyph-name="idieresis" unicode="&#xef;" horiz-adv-x="353" 
d="M371 691q12 17 30 14.5t30 -14.5t8 -26q-27 -64 -84 -164t-124 -188t-122 -115q-35 -14 -79.5 -4t-78 39t-34.5 72q4 88 47.5 243.5t104.5 265.5q15 21 58 14t77 -30t24 -52q-83 -174 -112.5 -274t-17.5 -128q19 -39 94.5 58t178.5 289zM302 1078v0q54 74 109 82
t89.5 -33t23.5 -113q-17 -81 -65.5 -104t-98.5 -4t-72 66t14 106zM24 1089v0q53 75 108.5 83t89.5 -33t24 -114q-17 -80 -65.5 -103.5t-99 -4t-72 66t14.5 105.5z" />
    <glyph glyph-name="eth" unicode="&#xf0;" horiz-adv-x="714" 
d="M513 1033v0q43 -27 84.5 -75.5t57.5 -121.5q21 -117 -26 -246t-131.5 -239t-178.5 -170q-108 -63 -207 -38t-141.5 115t18.5 221q87 156 237 274t233 139q7 18 2 46t-16 40q-17 -14 -43 -36q-49 -44 -102.5 -84.5t-77.5 -37.5q-10 4 -19 7q-45 12 -55 26t26.5 54
t130.5 129q-38 10 -88 1.5t-83 -26.5t-20 -37q-19 -16 -45 -3t-45.5 42t-18 61t38.5 53q83 37 184.5 19.5t148.5 -43.5q15 11 31 23q51 44 109.5 63.5t136.5 -34.5q-4 -19 -41 -48.5t-73 -54.5q-16 -11 -27 -19zM123 292v0q97 62 200.5 221.5t122.5 270.5
q-84 -59 -165 -155.5t-128.5 -191t-29.5 -145.5z" />
    <glyph glyph-name="ntilde" unicode="&#xf1;" horiz-adv-x="735" 
d="M748 680q7 12 21.5 11.5t30 -9.5t25 -19t7.5 -16q-58 -120 -154.5 -256.5t-184.5 -188.5q-36 -16 -83.5 -7.5t-86.5 32.5t-47 52q-9 45 5.5 119t34.5 142.5t30 96.5q1 3 2 5q-85 -78 -184.5 -229t-148.5 -251q-15 -24 -57 -19t-78 26.5t-32 46.5q26 102 90 291.5
t155 362.5q16 27 45.5 28t59.5 -14t48 -35.5t12 -36.5q-40 -80 -81 -153q-46 -82 -55 -109q65 93 140 173.5t144 124.5q35 18 80 3.5t75 -46t19 -63.5q-8 -19 -18 -43q-40 -90 -83.5 -204.5t-47.5 -191.5q80 46 166 150.5t151 226.5zM716 1194v0q13 0 10.5 -25t-18.5 -61
t-43 -72.5t-62 -61t-75 -24.5q-57 0 -104.5 23t-86.5 50q-29 19 -54.5 32.5t-47.5 13.5q-29 0 -48.5 -15.5t-32.5 -30.5q-8 -9 -14.5 -15t-12.5 -6q-18 0 -9 33.5t36 75.5t66.5 71t85.5 24q30 -7 79 -38q39 -25 86 -47t99 -25q28 0 48 10t34 25t24 30q10 14 19.5 23.5
t20.5 9.5z" />
    <glyph glyph-name="ograve" unicode="&#xf2;" horiz-adv-x="597" 
d="M542 447q20 2 26 -18.5t0.5 -42t-19.5 -24.5q-43 -6 -84 -3t-92 20l-9 -18q-22 -51 -65.5 -121t-108.5 -109q-45 -21 -111.5 -5t-123.5 56.5t-74 92.5q-17 72 3 156.5t57.5 157.5t75.5 109q13 13 29 24l14 10q-8 42 -8.5 84t18.5 80q28 43 109.5 43.5t159.5 -48.5
t95 -153q8 -71 -1.5 -138.5t-27.5 -137.5q20 -11 58 -16.5t79 1.5zM46 224q74 44 112.5 104t64.5 129q-69 45 -105 119q-14 -16 -36.5 -82.5t-36 -143.5t0.5 -126zM253 569q14 38 15.5 90.5t-5.5 98t-19 63.5q-59 -87 9 -252zM177 1351q46 -26 99 -98.5t97 -151t64 -122.5
q8 -22 -7 -39.5t-37.5 -22t-37.5 13.5q-56 77 -140.5 154.5t-151.5 117.5q-27 24 -7.5 63.5t57 67.5t64.5 17v0z" />
    <glyph glyph-name="oacute" unicode="&#xf3;" horiz-adv-x="597" 
d="M542 447q20 2 26 -18.5t0.5 -42t-19.5 -24.5q-43 -6 -84 -3t-92 20l-9 -18q-22 -51 -65.5 -121t-108.5 -109q-45 -21 -111.5 -5t-123.5 56.5t-74 92.5q-17 72 3 156.5t57.5 157.5t75.5 109q13 13 29 24l14 10q-8 42 -8.5 84t18.5 80q28 43 109.5 43.5t159.5 -48.5
t95 -153q8 -71 -1.5 -138.5t-27.5 -137.5q20 -11 58 -16.5t79 1.5zM46 224q74 44 112.5 104t64.5 129q-69 45 -105 119q-14 -16 -36.5 -82.5t-36 -143.5t0.5 -126zM253 569q14 38 15.5 90.5t-5.5 98t-19 63.5q-59 -87 9 -252zM349 1388v0q27 11 64.5 -17t57 -67.5
t-7.5 -63.5q-67 -40 -151.5 -117.5t-140.5 -154.5q-15 -18 -37.5 -13.5t-37.5 22t-7 39.5q20 44 64 122.5t97 151t99 98.5z" />
    <glyph glyph-name="ocircumflex" unicode="&#xf4;" horiz-adv-x="597" 
d="M542 447q20 2 26 -18.5t0.5 -42t-19.5 -24.5q-43 -6 -84 -3t-92 20l-9 -18q-22 -51 -65.5 -121t-108.5 -109q-45 -21 -111.5 -5t-123.5 56.5t-74 92.5q-17 72 3 156.5t57.5 157.5t75.5 109q13 13 29 24l14 10q-8 42 -8.5 84t18.5 80q28 43 109.5 43.5t159.5 -48.5
t95 -153q8 -71 -1.5 -138.5t-27.5 -137.5q20 -11 58 -16.5t79 1.5zM46 224q74 44 112.5 104t64.5 129q-69 45 -105 119q-14 -16 -36.5 -82.5t-36 -143.5t0.5 -126zM253 569q14 38 15.5 90.5t-5.5 98t-19 63.5q-59 -87 9 -252zM572 1025v0q-9 -21 -33.5 -35t-53 -20.5t-48 -5
t-16.5 12.5q3 12 -1.5 52t-14 88.5t-22 85t-24.5 41.5q-11 1 -50 -33.5t-86.5 -83.5t-84 -91.5t-43.5 -58.5q-5 -14 -26 -10.5t-45 18.5t-39 36t-8 44q10 26 66.5 81.5t130.5 116.5t136 101.5t84 37.5q27 -12 72 -91t79 -165.5t27 -120.5z" />
    <glyph glyph-name="otilde" unicode="&#xf5;" horiz-adv-x="597" 
d="M542 447q20 2 26 -18.5t0.5 -42t-19.5 -24.5q-43 -6 -84 -3t-92 20l-9 -18q-22 -51 -65.5 -121t-108.5 -109q-45 -21 -111.5 -5t-123.5 56.5t-74 92.5q-17 72 3 156.5t57.5 157.5t75.5 109q13 13 29 24l14 10q-8 42 -8.5 84t18.5 80q28 43 109.5 43.5t159.5 -48.5
t95 -153q8 -71 -1.5 -138.5t-27.5 -137.5q20 -11 58 -16.5t79 1.5zM46 224q74 44 112.5 104t64.5 129q-69 45 -105 119q-14 -16 -36.5 -82.5t-36 -143.5t0.5 -126zM253 569q14 38 15.5 90.5t-5.5 98t-19 63.5q-59 -87 9 -252zM630 1243v0q13 0 10.5 -25t-18.5 -61t-43 -72.5
t-62 -61t-75 -24.5q-57 0 -104.5 23t-86.5 50q-29 19 -54.5 32.5t-47.5 13.5q-29 0 -48.5 -15.5t-32.5 -30.5q-8 -9 -14.5 -15t-12.5 -6q-18 0 -9 33.5t36 75.5t66.5 71t85.5 24q30 -7 79 -38q39 -25 86 -47t99 -25q28 0 48 10t34 25t24 30q10 14 19.5 23.5t20.5 9.5z" />
    <glyph glyph-name="odieresis" unicode="&#xf6;" horiz-adv-x="597" 
d="M542 447q20 2 26 -18.5t0.5 -42t-19.5 -24.5q-43 -6 -84 -3t-92 20l-9 -18q-22 -51 -65.5 -121t-108.5 -109q-45 -21 -111.5 -5t-123.5 56.5t-74 92.5q-17 72 3 156.5t57.5 157.5t75.5 109q13 13 29 24l14 10q-8 42 -8.5 84t18.5 80q28 43 109.5 43.5t159.5 -48.5
t95 -153q8 -71 -1.5 -138.5t-27.5 -137.5q20 -11 58 -16.5t79 1.5zM46 224q74 44 112.5 104t64.5 129q-69 45 -105 119q-14 -16 -36.5 -82.5t-36 -143.5t0.5 -126zM253 569q14 38 15.5 90.5t-5.5 98t-19 63.5q-59 -87 9 -252zM329 1193v0q54 74 109 82t89.5 -33t23.5 -113
q-17 -81 -65.5 -104t-98.5 -4t-72 66t14 106zM51 1204v0q53 75 108.5 83t89.5 -33t24 -114q-17 -80 -65.5 -103.5t-99 -4t-72 66t14.5 105.5z" />
    <glyph glyph-name="divide" unicode="&#xf7;" horiz-adv-x="802" 
d="M690 837v0q52 -3 47.5 -46t-41.5 -87t-76 -44h-556q-45 0 -54.5 25t3 57.5t37.5 58t50 25.5q74 1 147 2q222 5 443 9z" />
    <glyph glyph-name="oslash" unicode="&#xf8;" horiz-adv-x="597" 
d="M156 543q-10 16 -18 33q-14 -16 -36.5 -82.5t-35.5 -143.5q-13 -72 -2 -119q17 60 39 132q26 90 53 180zM337 904q11 -6 22 -13q78 -49 95 -153q8 -71 -1.5 -138.5t-27.5 -137.5q20 -11 58 -16.5t79 1.5q20 2 26 -18.5t0.5 -42t-19.5 -24.5q-43 -6 -84 -3t-92 20l-9 -18
q-22 -51 -65.5 -121t-108.5 -109q-45 -21 -111 -5l-8 2q-13 -44 -23 -74q-8 -25 -22 -28.5t-23 9t-3 36.5q9 33 20 75q-34 14 -65 37q-57 40 -74 92q-17 72 3 156.5t57.5 157.5t75.5 109q13 13 29 24l14 10q-8 42 -8.5 84t18.5 80q28 43 110 44q36 0 72 -10q13 42 22 74
q9 26 28 27.5t32 -14.5t5 -45q-10 -31 -22 -68zM140 280q22 23 39 48q38 60 64 129q-21 13 -38 29q-28 -87 -55 -173q-5 -17 -10 -33zM251 632q8 -30 22 -63q14 38 16 91q1 42 -4 80q-9 -31 -20 -64z" />
    <glyph glyph-name="ugrave" unicode="&#xf9;" horiz-adv-x="684" 
d="M686 664q5 10 17.5 9t26 -8t22.5 -16.5t6 -15.5q-3 -8 -7 -16q-24 -55 -64.5 -139.5t-91.5 -166t-105 -129t-104 -28.5q-62 25 -94 66t-25 115q-1 -1 -1 -2q-33 -51 -66.5 -97.5t-89.5 -106.5q-32 -30 -86 -28t-99.5 28t-51.5 69q-3 75 33.5 207t84 248.5t75.5 144.5
q21 15 57.5 6t63.5 -29.5t18 -40.5q-23 -41 -61.5 -137t-71 -195t-36.5 -148q22 8 84 103t138.5 234t141.5 277q19 33 61.5 24.5t75.5 -36.5t24 -54q-30 -65 -66.5 -172t-60 -210.5t-16.5 -157.5q77 57 151.5 184t116.5 218zM271 1404q46 -26 99 -98.5t97 -151t64 -122.5
q8 -22 -7 -39.5t-37.5 -22t-37.5 13.5q-56 77 -140.5 154.5t-151.5 117.5q-27 24 -7.5 63.5t57 67.5t64.5 17v0z" />
    <glyph glyph-name="uacute" unicode="&#xfa;" horiz-adv-x="684" 
d="M686 664q5 10 17.5 9t26 -8t22.5 -16.5t6 -15.5q-3 -8 -7 -16q-24 -55 -64.5 -139.5t-91.5 -166t-105 -129t-104 -28.5q-62 25 -94 66t-25 115q-1 -1 -1 -2q-33 -51 -66.5 -97.5t-89.5 -106.5q-32 -30 -86 -28t-99.5 28t-51.5 69q-3 75 33.5 207t84 248.5t75.5 144.5
q21 15 57.5 6t63.5 -29.5t18 -40.5q-23 -41 -61.5 -137t-71 -195t-36.5 -148q22 8 84 103t138.5 234t141.5 277q19 33 61.5 24.5t75.5 -36.5t24 -54q-30 -65 -66.5 -172t-60 -210.5t-16.5 -157.5q77 57 151.5 184t116.5 218zM431 1340v0q27 11 64.5 -17t57 -67.5t-7.5 -63.5
q-67 -40 -151.5 -117.5t-140.5 -154.5q-15 -18 -37.5 -13.5t-37.5 22t-7 39.5q20 44 64 122.5t97 151t99 98.5z" />
    <glyph glyph-name="ucircumflex" unicode="&#xfb;" horiz-adv-x="684" 
d="M686 664q5 10 17.5 9t26 -8t22.5 -16.5t6 -15.5q-3 -8 -7 -16q-24 -55 -64.5 -139.5t-91.5 -166t-105 -129t-104 -28.5q-62 25 -94 66t-25 115q-1 -1 -1 -2q-33 -51 -66.5 -97.5t-89.5 -106.5q-32 -30 -86 -28t-99.5 28t-51.5 69q-3 75 33.5 207t84 248.5t75.5 144.5
q21 15 57.5 6t63.5 -29.5t18 -40.5q-23 -41 -61.5 -137t-71 -195t-36.5 -148q22 8 84 103t138.5 234t141.5 277q19 33 61.5 24.5t75.5 -36.5t24 -54q-30 -65 -66.5 -172t-60 -210.5t-16.5 -157.5q77 57 151.5 184t116.5 218zM645 995v0q-9 -21 -33.5 -35t-53 -20.5t-48 -5
t-16.5 12.5q3 12 -1.5 52t-14 88.5t-22 85t-24.5 41.5q-11 1 -50 -33.5t-86.5 -83.5t-84 -91.5t-43.5 -58.5q-5 -14 -26 -10.5t-45 18.5t-39 36t-8 44q10 26 66.5 81.5t130.5 116.5t136 101.5t84 37.5q27 -12 72 -91t79 -165.5t27 -120.5z" />
    <glyph glyph-name="udieresis" unicode="&#xfc;" horiz-adv-x="684" 
d="M686 664q5 10 17.5 9t26 -8t22.5 -16.5t6 -15.5q-3 -8 -7 -16q-24 -55 -64.5 -139.5t-91.5 -166t-105 -129t-104 -28.5q-62 25 -94 66t-25 115q-1 -1 -1 -2q-33 -51 -66.5 -97.5t-89.5 -106.5q-32 -30 -86 -28t-99.5 28t-51.5 69q-3 75 33.5 207t84 248.5t75.5 144.5
q21 15 57.5 6t63.5 -29.5t18 -40.5q-23 -41 -61.5 -137t-71 -195t-36.5 -148q22 8 84 103t138.5 234t141.5 277q19 33 61.5 24.5t75.5 -36.5t24 -54q-30 -65 -66.5 -172t-60 -210.5t-16.5 -157.5q77 57 151.5 184t116.5 218zM399 1154v0q54 74 109 82t89.5 -33t23.5 -113
q-17 -81 -65.5 -104t-98.5 -4t-72 66t14 106zM121 1165v0q53 75 108.5 83t89.5 -33t24 -114q-17 -80 -65.5 -103.5t-99 -4t-72 66t14.5 105.5z" />
    <glyph glyph-name="yacute" unicode="&#xfd;" horiz-adv-x="752" 
d="M745 676q26 12 35 -9t-2 -54t-44 -58q-150 -89 -268 -189q-26 -21 -41 -51q-51 -110 -127 -239.5t-165.5 -235t-180.5 -143.5q-37 -12 -96.5 11t-93 75t9.5 127q61 93 163.5 188t195.5 171q110 90 132 122q21 43 47 112.5t42 114.5q-63 -100 -145.5 -194t-154.5 -143
q-30 -17 -78 -3.5t-84 46t-31 70.5q21 107 79 242.5t136 232.5q20 19 62.5 7.5t72 -38t9.5 -53.5q-25 -29 -58 -85.5t-61.5 -117t-40 -101.5t6.5 -39q39 15 125 132.5t168.5 246.5t111.5 178q17 23 57.5 14.5t74.5 -33t32 -49.5q-12 -62 -37 -147t-49 -162q-17 -55 -28 -93
q71 50 122 83.5t103 63.5zM-135 -185q66 50 136 134t121 169q-77 -73 -162 -164.5t-95 -138.5zM493 1395v0q27 11 64.5 -17t57 -67.5t-7.5 -63.5q-67 -40 -151.5 -117.5t-140.5 -154.5q-15 -18 -37.5 -13.5t-37.5 22t-7 39.5q20 44 64 122.5t97 151t99 98.5z" />
    <glyph glyph-name="ydieresis" unicode="&#xff;" horiz-adv-x="752" 
d="M745 676q26 12 35 -9t-2 -54t-44 -58q-150 -89 -268 -189q-26 -21 -41 -51q-51 -110 -127 -239.5t-165.5 -235t-180.5 -143.5q-37 -12 -96.5 11t-93 75t9.5 127q61 93 163.5 188t195.5 171q110 90 132 122q21 43 47 112.5t42 114.5q-63 -100 -145.5 -194t-154.5 -143
q-30 -17 -78 -3.5t-84 46t-31 70.5q21 107 79 242.5t136 232.5q20 19 62.5 7.5t72 -38t9.5 -53.5q-25 -29 -58 -85.5t-61.5 -117t-40 -101.5t6.5 -39q39 15 125 132.5t168.5 246.5t111.5 178q17 23 57.5 14.5t74.5 -33t32 -49.5q-12 -62 -37 -147t-49 -162q-17 -55 -28 -93
q71 50 122 83.5t103 63.5zM-135 -185q66 50 136 134t121 169q-77 -73 -162 -164.5t-95 -138.5zM429 1217v0q54 74 109 82t89.5 -33t23.5 -113q-17 -81 -65.5 -104t-98.5 -4t-72 66t14 106zM151 1228v0q53 75 108.5 83t89.5 -33t24 -114q-17 -80 -65.5 -103.5t-99 -4t-72 66
t14.5 105.5z" />
    <glyph glyph-name="dotlessi" unicode="&#x131;" horiz-adv-x="353" 
d="M371 691q12 17 30 14.5t30 -14.5t8 -26q-27 -64 -84 -164t-124 -188t-122 -115q-35 -14 -79.5 -4t-78 39t-34.5 72q4 88 47.5 243.5t104.5 265.5q15 21 58 14t77 -30t24 -52q-83 -174 -112.5 -274t-17.5 -128q19 -39 94.5 58t178.5 289z" />
    <glyph glyph-name="gravecomb" unicode="&#x300;" horiz-adv-x="620" 
d="M362 1483q46 -26 99 -98.5t97 -151t64 -122.5q8 -22 -7 -39.5t-37.5 -22t-37.5 13.5q-56 77 -140.5 154.5t-151.5 117.5q-27 24 -7.5 63.5t57 67.5t64.5 17v0z" />
    <glyph glyph-name="acutecomb" unicode="&#x301;" horiz-adv-x="620" 
d="M495 1483v0q27 11 64.5 -17t57 -67.5t-7.5 -63.5q-67 -40 -151.5 -117.5t-140.5 -154.5q-15 -18 -37.5 -13.5t-37.5 22t-7 39.5q20 44 64 122.5t97 151t99 98.5z" />
    <glyph glyph-name="uni0302" unicode="&#x302;" horiz-adv-x="696" 
d="M603 1150v0q-9 -21 -33.5 -35t-53 -20.5t-48 -5t-16.5 12.5q3 12 -1.5 52t-14 88.5t-22 85t-24.5 41.5q-11 1 -50 -33.5t-86.5 -83.5t-84 -91.5t-43.5 -58.5q-5 -14 -26 -10.5t-45 18.5t-39 36t-8 44q10 26 66.5 81.5t130.5 116.5t136 101.5t84 37.5q27 -12 72 -91
t79 -165.5t27 -120.5z" />
    <glyph glyph-name="tildecomb" unicode="&#x303;" horiz-adv-x="685" 
d="M598 1516v0q13 0 10.5 -25t-18.5 -61t-43 -72.5t-62 -61t-75 -24.5q-57 0 -104.5 23t-86.5 50q-29 19 -54.5 32.5t-47.5 13.5q-29 0 -48.5 -15.5t-32.5 -30.5q-8 -9 -14.5 -15t-12.5 -6q-18 0 -9 33.5t36 75.5t66.5 71t85.5 24q30 -7 79 -38q39 -25 86 -47t99 -25
q28 0 48 10t34 25t24 30q10 14 19.5 23.5t20.5 9.5z" />
    <glyph glyph-name="uni0308" unicode="&#x308;" horiz-adv-x="570" 
d="M399 1434v0q54 74 109 82t89.5 -33t23.5 -113q-17 -81 -65.5 -104t-98.5 -4t-72 66t14 106zM121 1445v0q53 75 108.5 83t89.5 -33t24 -114q-17 -80 -65.5 -103.5t-99 -4t-72 66t14.5 105.5z" />
    <glyph glyph-name="uni030A" unicode="&#x30a;" horiz-adv-x="644" 
d="M283 1689v0q74 7 139 -26.5t105 -88t40 -110.5q-4 -81 -57.5 -150.5t-136.5 -87.5q-54 -9 -118 8.5t-113.5 51.5t-60.5 75q-15 64 7.5 136.5t73.5 126.5t121 65zM222 1301v0q37 -17 82 17.5t82 93t48 112.5t-20 77q-32 15 -79 -18.5t-87.5 -91t-52 -111.5t26.5 -79z" />
    <glyph glyph-name="uni0327" unicode="&#x327;" horiz-adv-x="321" 
d="M395 -27q13 -50 -12.5 -108t-79.5 -106t-125 -66q-48 -11 -98 -4t-87 26t-47 43q-11 27 30 54q1 -35 49.5 -42.5t92.5 2t91 50.5q33 31 52.5 66t16.5 57t-25.5 27.5t-49.5 -4t-50.5 -30.5t-36.5 -33q-7 -7 -8 -7q-28 0 -64.5 17.5t-45.5 37.5q4 18 29 63q20 35 41 71
q7 12 14 23q111 -11 93 -36q-3 -3 -5 -6q-21 -29 -39 -58.5t-24 -44.5q22 23 51 43.5t61 28.5q33 7 70.5 2t68 -25t37.5 -41z" />
    <glyph glyph-name="endash" unicode="&#x2013;" horiz-adv-x="1024" 
d="M866 609v0q36 0 47 -29t1.5 -66.5t-36 -66.5t-65.5 -29q-129 0 -259 1q-241 2 -479 -1q-56 3 -65.5 49t15.5 94t69 48q200 3 398 0q187 -2 374 0z" />
    <glyph glyph-name="emdash" unicode="&#x2014;" horiz-adv-x="2048" 
d="M1733 609v0q72 0 93.5 -29t2.5 -66.5t-72.5 -66.5t-130.5 -29q-258 0 -519 1q-482 2 -957 -1q-112 3 -131 49t31 94t139 48q398 3 795 0q374 -2 749 0z" />
    <glyph glyph-name="quoteleft" unicode="&#x2018;" horiz-adv-x="361" 
d="M216 1100v0q-13 -51 -65 -61.5t-99 12t-46 71.5q7 52 46.5 132.5t86.5 156t77 113.5q16 17 38.5 12t36.5 -23t5 -39q-44 -82 -71.5 -178t-8.5 -196z" />
    <glyph glyph-name="quoteright" unicode="&#x2019;" horiz-adv-x="361" 
d="M290 1419v0q14 50 65.5 60.5t99 -12t45.5 -70.5q-7 -52 -46 -132.5t-86.5 -156t-77.5 -113.5q-15 -17 -37.5 -12t-37 23t-4.5 39q43 82 70.5 178t8.5 196z" />
    <glyph glyph-name="quotesinglbase" unicode="&#x201a;" horiz-adv-x="361" 
d="M89 378v0q14 50 65.5 60.5t99 -12t45.5 -70.5q-7 -52 -46 -132.5t-86.5 -156t-77.5 -113.5q-15 -17 -37.5 -12t-37 23t-4.5 39q43 82 70.5 178t8.5 196z" />
    <glyph glyph-name="quotedblleft" unicode="&#x201c;" horiz-adv-x="361" 
d="M455 1104v0q-13 -51 -65 -61.5t-99 12t-46 71.5q7 52 46.5 132.5t86.5 156t77 113.5q16 17 38.5 12t36.5 -23t5 -39q-44 -82 -71.5 -178t-8.5 -196zM216 1100v0q-13 -51 -65 -61.5t-99 12t-46 71.5q7 52 46.5 132.5t86.5 156t77 113.5q16 17 38.5 12t36.5 -23t5 -39
q-44 -82 -71.5 -178t-8.5 -196z" />
    <glyph glyph-name="quotedblright" unicode="&#x201d;" horiz-adv-x="361" 
d="M89 1473v0q14 50 65.5 60.5t99 -12t45.5 -70.5q-7 -52 -46 -132.5t-86.5 -156t-77.5 -113.5q-15 -17 -37.5 -12t-37 23t-4.5 39q43 82 70.5 178t8.5 196zM328 1477v0q14 50 65.5 60.5t99 -12t45.5 -70.5q-7 -52 -46 -132.5t-86.5 -156t-77.5 -113.5q-15 -17 -37.5 -12
t-37 23t-4.5 39q43 82 70.5 178t8.5 196z" />
    <glyph glyph-name="quotedblbase" unicode="&#x201e;" horiz-adv-x="627" 
d="M89 378v0q14 50 65.5 60.5t99 -12t45.5 -70.5q-7 -52 -46 -132.5t-86.5 -156t-77.5 -113.5q-15 -17 -37.5 -12t-37 23t-4.5 39q43 82 70.5 178t8.5 196zM313 367v0q14 50 65.5 60.5t99 -12t45.5 -70.5q-7 -52 -46 -132.5t-86.5 -156t-77.5 -113.5q-15 -17 -37.5 -12
t-37 23t-4.5 39q43 82 70.5 178t8.5 196z" />
    <glyph glyph-name="lira" unicode="&#x20a4;" horiz-adv-x="1851" 
d="M3600 1690v0q63 27 137 4t136 -73t90 -106q30 -67 12 -159t-61.5 -176t-92.5 -129q-55 -44 -120.5 -39.5t-107.5 37t-24 72.5q27 -23 65.5 -2t78.5 70.5t72.5 111.5t47.5 120t3.5 97t-59.5 39q-62 0 -133 -87.5t-141.5 -225.5t-133.5 -298q39 0 77 1q39 1 77 1
q53 -3 54 -47.5t-30.5 -91t-71.5 -46.5h-175q-17 -47 -32 -93q94 1 189 3q53 -3 54 -47.5t-30.5 -91t-71.5 -46.5h-199q-40 -137 -54 -215q76 -8 150.5 -14t140.5 -6q109 0 186 25.5t99 95.5q1 1 5.5 3.5t11.5 5t14.5 2.5t12.5 -4.5t6.5 -16t-3.5 -32.5q-19 -75 -86.5 -168
t-149.5 -114q-84 -12 -192 0t-222 31q-118 20 -223 31t-176 -6t-87 -80q-50 6 -43 62.5t52 117.5t108 84q52 12 115 6q25 -1 49 -1q19 81 53 193h-131q-45 0 -58.5 26.5t-5 60.5t30.5 60.5t48 26.5q86 1 173 3q17 48 35 98h-157q-45 0 -58 26.5t-5 60.5t30 60.5t48 26.5
l204 4h5q104 263 225.5 475t238.5 274z" />
    <glyph glyph-name="Euro" unicode="&#x20ac;" horiz-adv-x="1453" 
d="M5127 1633v0q107 17 224.5 -47t184 -198t21.5 -328q-28 -95 -98 -135t-130.5 -35t-61.5 46q56 11 96.5 123t24.5 258q-21 125 -94.5 120.5t-158.5 -84t-140 -179.5q68 9 131 -31.5t94 -90.5t4 -69q-10 15 -58 11.5t-110 -17t-114.5 -28.5t-71.5 -23q-25 -12 -36 -29.5
t-21 -48.5q-9 -25 -25 -62q-2 -4 -2 -10q0 -4 -1 -9q35 5 68 11q110 25 202 16t165 -111q28 -35 18 -80q-21 0 -28 9t-9 21t-10 21.5t-32 11.5t-74.5 -10.5t-138.5 -44.5t-224 -90q-4 -3 -20 -48t-26.5 -107.5t0 -118.5t59.5 -82q82 -35 193.5 18t214.5 142t160 163
q31 35 75 12.5t65.5 -74t-15.5 -103.5q-123 -150 -280 -242t-272 -83q-144 17 -260 123t-148 310q-9 -3 -17 -6l-24 -8q-32 -5 -72 40.5t-54.5 98.5t28.5 71q34 10 61 17q82 20 106.5 43t33.5 100q-27 -8 -54 -21q-19 -9 -38 -15q-34 -8 -58.5 47t-30 119t17.5 83
q103 58 210 92q83 27 97 42q127 241 240.5 362t212.5 137z" />
    <glyph glyph-name="minus" unicode="&#x2212;" horiz-adv-x="802" 
d="M690 837v0q52 -3 47.5 -46t-41.5 -87t-76 -44h-556q-45 0 -54.5 25t3 57.5t37.5 58t50 25.5q74 1 147 2q222 5 443 9z" />
    <glyph glyph-name="approxequal" unicode="&#x2248;" horiz-adv-x="955" 
d="M875 867v0q20 0 16 -36t-27 -88.5t-61.5 -104.5t-89 -88t-108.5 -36q-83 0 -151.5 33.5t-125.5 72.5q-42 27 -78.5 46.5t-68.5 19.5q-42 0 -69.5 -21.5t-47.5 -44.5q-11 -13 -21 -21.5t-18 -8.5q-25 0 -12.5 48.5t52 109t96.5 102.5t122 35q45 -11 114 -55
q57 -36 125 -68t143 -37q41 0 69.5 15t48.5 36.5t36 42.5q14 20 27.5 34t28.5 14zM875 495v0q20 0 16 -36t-27 -88.5t-61.5 -104.5t-89 -88t-108.5 -36q-83 0 -151.5 33.5t-125.5 72.5q-42 27 -78.5 46.5t-68.5 19.5q-42 0 -69.5 -21.5t-47.5 -44.5q-11 -13 -21 -21.5
t-18 -8.5q-25 0 -12.5 48.5t52 109t96.5 102.5t122 35q45 -11 114 -55q57 -36 125 -68t143 -37q41 0 69.5 15t48.5 36.5t36 42.5q14 20 27.5 34t28.5 14z" />
    <glyph glyph-name="lessequal" unicode="&#x2264;" horiz-adv-x="927" 
d="M690 177v0q52 -3 47.5 -46t-41.5 -87t-76 -44h-556q-45 0 -54.5 25t3 57.5t37.5 58t50 25.5q74 1 147 2q222 5 443 9z" />
    <glyph glyph-name="greaterequal" unicode="&#x2265;" horiz-adv-x="926" 
d="M690 177v0q52 -3 47.5 -46t-41.5 -87t-76 -44h-556q-45 0 -54.5 25t3 57.5t37.5 58t50 25.5q74 1 147 2q222 5 443 9z" />
    <glyph glyph-name="a.1" unicode="&#xe019;" horiz-adv-x="662" 
d="M482 911v0q22 21 64.5 8.5t73.5 -41.5t18 -58q-15 -27 -69 -137.5t-92 -218.5t-64.5 -212.5t-14 -184t69.5 -82.5q-43 -33 -110 9t-99 125q-26 92 -3.5 195t53.5 182q-32 -38 -72 -95q-73 -109 -168 -204q-27 -21 -75 -9.5t-87.5 42.5t-38.5 68q18 149 103.5 309
t189.5 248q57 45 105 31.5t96 -49.5q18 -12 37 -23q24 26 47 54q18 22 36 43zM298 681v0q6 9 9 29t0.5 38.5t-13 24t-32.5 -14.5q-74 -75 -133.5 -183.5t-69.5 -179.5q6 2 35.5 36.5t69 83t76.5 94.5t58 72z" />
    <glyph glyph-name="b.1" unicode="&#xe01a;" horiz-adv-x="659" 
d="M429 926v0q42 -21 72 -33q41 -16 61 -33t25 -59q11 -141 -70.5 -335t-187.5 -297q-70 -59 -155 -56t-143 45.5t-49 102.5q52 -69 115 -40t124.5 115.5t109.5 189t69.5 181.5t4.5 93q-50 -14 -119.5 -103t-130.5 -200t-85 -190q-12 -29 -58.5 -24t-85 32t-27.5 66
q49 127 101 278q74 216 159.5 425t191.5 347q20 22 57.5 15t73.5 -31t51 -52t-10 -47q-67 -51 -145 -190t-136 -298q24 18 47 42q32 33 66.5 53.5t73.5 2.5z" />
    <glyph glyph-name="c.1" unicode="&#xe01b;" horiz-adv-x="544" 
d="M432 997v0q15 6 43.5 -6t56.5 -33t43 -42.5t3 -33.5q-68 -59 -119.5 -148.5t-38.5 -134.5q-4 -9 -25 -6.5t-46.5 15.5t-44.5 35.5t-18 52.5q3 32 21.5 80t35.5 77q-40 -20 -89 -109.5t-88.5 -200.5t-48 -194.5t33.5 -90.5q43 0 82 39t72 87t50 70t44 7.5t6 -69.5
t-91.5 -157t-150.5 -103q-79 2 -158.5 53t-91.5 110q-8 102 48.5 251t143.5 271.5t173 144.5q25 3 56 -10t49 -25q8 11 20 30q9 14 17 25.5t12 14.5z" />
    <glyph glyph-name="d.1" unicode="&#xe01c;" horiz-adv-x="673" 
d="M728 1385v0q37 17 79.5 -5t65 -57.5t-1.5 -57.5q-117 -99 -218.5 -291t-163 -391t-57.5 -319q35 25 111.5 151t136.5 250q1 3 2 5q11 17 32 12.5t36.5 -21.5t9.5 -37q-53 -106 -100 -197t-98 -174t-104 -131q-35 -16 -82.5 -7t-78 32t-38.5 49.5t-3.5 84.5t28.5 160
q-3 3 -8 -5q-36 -65 -72.5 -124t-73.5 -109t-59 -59q-24 -7 -65.5 7.5t-76.5 47t-39 78.5q-1 98 56 248t147.5 270.5t192.5 131.5q37 0 71.5 -14.5t64.5 -33.5q21 47 75 157t117.5 214t113.5 135zM348 739v0q13 36 8.5 60.5t-29.5 9.5q-35 -25 -82.5 -97.5t-91 -158.5
t-66 -152t-7.5 -78q14 -4 53 49t85.5 130t83 144.5t46.5 92.5z" />
    <glyph glyph-name="e.1" unicode="&#xe01d;" horiz-adv-x="559" 
d="M473 929v0q46 -26 44 -67q-2 -32 -28.5 -105t-76.5 -144t-123 -95q-72 -19 -138 11q-14 -28 -32.5 -86.5t-23.5 -111.5t20 -64q28 -6 89.5 43t99.5 95.5t56.5 49.5t37 -15t-16.5 -75.5t-102 -128t-121 -87.5q-58 -11 -118.5 18.5t-92.5 60.5q-53 58 -38 166.5t73 231
t135 221t146 135.5q46 22 87 9t92 -44q15 -9 31 -18zM185 605v0q46 -4 84 39.5t62 102.5t28 100q-26 -20 -66.5 -72t-73 -103t-34.5 -67z" />
    <glyph glyph-name="f.1" unicode="&#xe01e;" horiz-adv-x="429" 
d="M166 996v0q82 109 188 122.5t171 -29t25 -100.5q-44 69 -115 24t-138 -151.5t-100 -221.5q38 -10 126.5 7t157.5 70q16 9 26.5 -8.5t9.5 -42.5t-20 -39q-71 -64 -140.5 -85t-153.5 -30q57 -46 62 -135t-22.5 -193t-68.5 -195t-75 -140q-40 -55 -92 -63t-118 10
q-73 22 -86 85.5t-2 126.5q12 88 71 280t138.5 392.5t155.5 315.5zM-24 -87v0q54 69 109 215t57 238q2 43 -24 88q-10 -20 -25.5 -61.5t-30 -83t-21.5 -65.5q-21 -64 -44 -164t-21 -167z" />
    <glyph glyph-name="g.1" unicode="&#xe01f;" horiz-adv-x="663" 
d="M452 937v0q23 18 59 13.5t64 -23t26 -42.5q-21 -139 -88.5 -363.5t-171.5 -433.5t-236 -300q-65 -35 -152 -17.5t-129 82t3 133.5q15 -74 100.5 -72t177 122t158 271.5t112.5 326.5q-54 -103 -85 -153q-54 -84 -116.5 -173t-114.5 -131q-29 -19 -77.5 -7.5t-86 41.5
t-34.5 68q24 154 122.5 342t207.5 282q60 45 106.5 32.5t93.5 -47.5q10 -7 20 -13q4 6 10 17q9 14 17 27t14 18zM324 728v0q12 23 16 48.5t-6 34.5t-40 -19q-77 -81 -148 -220.5t-94 -216.5q-1 -19 10 -18q17 5 61.5 66t98.5 150t102 175z" />
    <glyph glyph-name="h.1" unicode="&#xe020;" horiz-adv-x="663" 
d="M420 1411v0q38 29 86.5 14t78.5 -49t13 -62q-37 -18 -128 -138t-192.5 -298t-142.5 -312q39 36 127 137t158 149q36 20 81.5 7t74.5 -45t16 -67q-3 -9 -10 -23q-28 -60 -77 -179.5t-85 -250.5t-25.5 -224t102.5 -101q-17 -21 -76 -21t-117.5 40.5t-75.5 142.5
q-8 87 24.5 198.5t71.5 213.5q22 58 37 105q-84 -77 -188.5 -226t-154.5 -248q-15 -24 -56 -19t-76.5 26.5t-32.5 46.5q40 167 138 411.5t223.5 469t205.5 302.5z" />
    <glyph glyph-name="i.1" unicode="&#xe021;" horiz-adv-x="314" 
d="M334 922v0q-16 -20 -51.5 -13.5t-65 25.5t-25.5 39q15 50 39.5 107t40.5 81q21 21 65 9.5t77 -37.5t21 -50q-10 -16 -26 -42q-18 -29 -38 -61.5t-37 -57.5zM277 791v0q-120 -211 -175 -383.5t-45 -271.5t85 -89q-30 -43 -103 -27.5t-128 85.5t-31 190q29 115 101 295
t133 272q17 19 61 10.5t78.5 -31.5t23.5 -50z" />
    <glyph glyph-name="j.1" unicode="&#xe022;" horiz-adv-x="298" 
d="M52 789v0q13 37 57 38t81 -22.5t30 -61.5q-2 -6 -4 -13q-34 -128 -93.5 -313t-143.5 -355.5t-193 -256.5q-78 -52 -173 -39t-140 82.5t1 137.5q14 -63 83 -69t151 68q73 74 142.5 226t123 313.5t78.5 264.5zM163 1141v0q19 21 62.5 12.5t77.5 -32.5t24 -49
q-7 -14 -19 -37q-15 -31 -33.5 -66.5t-33.5 -63.5q-14 -20 -49.5 -16t-65 21.5t-27.5 37.5q11 50 31 108.5t33 84.5z" />
    <glyph glyph-name="k.1" unicode="&#xe023;" horiz-adv-x="563" 
d="M617 1477v0q3 -2 5 -3q28 -12 47 -29t7 -46q-73 -33 -168 -159t-187.5 -290.5t-157.5 -313.5q88 96 181 175.5t154 113.5q23 10 47 -6.5t41.5 -46t20 -56t-19.5 -36.5q-75 -27 -168 -96t-182 -157q40 -116 111.5 -244.5t139 -178.5t143.5 5q0 -24 -38.5 -58.5t-101 -49
t-134.5 22.5q-66 40 -137.5 155.5t-108.5 209.5q-35 -37 -80.5 -133.5t-52.5 -122.5q-9 -27 -53.5 -27.5t-81 24t-32.5 50.5q58 181 173.5 444t247.5 511.5t222 335.5q36 32 76.5 31t86.5 -25z" />
    <glyph glyph-name="l.1" unicode="&#xe024;" horiz-adv-x="380" 
d="M419 1423v0q37 20 83.5 -3.5t72.5 -61.5t2 -60q-115 -93 -226 -308t-185 -441t-81 -351q93 52 191.5 216.5t150.5 265.5q1 3 3 6q10 17 32 12.5t38 -21.5t10 -38q-30 -76 -113 -223t-157 -240t-127 -123q-37 -16 -88 -7.5t-91 32.5t-44 53q-3 185 94.5 467t224 522.5
t210.5 302.5z" />
    <glyph glyph-name="m.1" unicode="&#xe025;" horiz-adv-x="935" 
d="M863 985q33 -34 42 -60.5t-11 -69.5q-20 -44 -56.5 -142t-73.5 -219t-59.5 -234.5t-14.5 -189t62 -81.5q-14 -37 -72.5 -27.5t-112.5 60.5t-54 142q10 135 65.5 312.5t90.5 256.5q-76 -77 -156.5 -209.5t-130.5 -266.5q-8 -15 -37.5 -13t-57.5 19t-32 47q0 38 17 118.5
t37 156t28 97.5q-49 -55 -144 -214t-173 -315q-13 -21 -48.5 -17t-67 23t-33.5 41q11 137 80.5 352.5t135.5 317.5q12 15 38 10.5t53 -20t43 -34.5t8 -33q-25 -37 -65.5 -113t-73.5 -172q34 57 95 152.5t123 182.5t97 119q22 16 57 6t62.5 -35t25.5 -53q-1 -7 -8.5 -29
t-17.5 -51q-15 -43 -26.5 -79t-9.5 -42q6 8 22 31q44 63 119.5 160t132.5 139q52 33 101 -24z" />
    <glyph glyph-name="n.1" unicode="&#xe026;" horiz-adv-x="658" 
d="M469 989v0q36 20 82.5 5t77.5 -47.5t20 -65.5q-7 -16 -16 -37q-38 -85 -89.5 -217t-87 -266.5t-24 -228t100.5 -100.5q-18 -22 -77.5 -23t-119 40.5t-77.5 146.5q-6 82 35.5 226.5t86.5 271.5l28 84q-88 -82 -198.5 -251.5t-162.5 -274.5q-15 -25 -58.5 -20t-80 27
t-32.5 49q25 102 84.5 282.5t152.5 356.5q16 28 46.5 28.5t61.5 -14.5t49.5 -36.5t12.5 -37.5q-43 -85 -81 -149q-37 -63 -45 -86q68 97 153.5 193.5t157.5 143.5z" />
    <glyph glyph-name="o.1" unicode="&#xe027;" horiz-adv-x="654" 
d="M66 973v0q61 55 159 66.5t196 -16.5t156.5 -92t39.5 -158q-26 -110 -102.5 -283.5t-162.5 -263.5q-54 -46 -142 -42t-163 45t-89 107q-12 104 17.5 219t70 206t61.5 120q-31 26 -45 49.5t4 42.5zM136 305v0q40 -9 94.5 63.5t106 182t76.5 208.5t17 155q-8 37 -41 42
t-68 -3.5t-65.5 -26.5t-33.5 -26q26 -9 47.5 -26t8.5 -40q-37 -61 -82.5 -181.5t-68 -226t8.5 -121.5z" />
    <glyph glyph-name="p.1" unicode="&#xe028;" horiz-adv-x="645" 
d="M415 900v0q15 -5 28 -9q59 -17 89 -37t36 -69q9 -110 -63 -285t-181 -274q-55 -43 -125 -44t-116.5 27.5t-29.5 75.5q42 -47 109.5 13t132 167.5t97.5 204.5t6 125q-90 -28 -181 -165t-171 -315.5t-134.5 -331.5t-69.5 -212q-10 -27 -54 -22.5t-81.5 30.5t-27.5 63
q36 98 130.5 334.5t191.5 477.5t143 354q10 22 37 24t56 -9.5t47.5 -28.5t12.5 -32q0 -2 -1 -3q-8 -17 -18.5 -41.5t-24.5 -64.5q6 5 12 9q34 27 67.5 40t82.5 -2z" />
    <glyph glyph-name="q.1" unicode="&#xe029;" horiz-adv-x="649" 
d="M497 981v0q21 20 61.5 8t70.5 -40t17 -56q-60 -112 -141.5 -320t-156.5 -429q18 -1 34 -5q56 -18 84 -57t29.5 -74t-20.5 -41q-7 27 -49 40.5t-126 -6.5q-67 -204 -92 -310q-14 -41 -69.5 -46.5t-95 20t-20.5 79.5q26 61 72 177q-50 -34 -87 -57q-21 -9 -48 18.5
t-39.5 64.5t9.5 55q95 62 229 109q62 159 108.5 283t52.5 143q-30 -36 -68 -89q-74 -106 -168 -200q-25 -19 -71.5 -8t-84 40.5t-36.5 65.5q18 146 107 319.5t190 261.5q67 49 130 23.5t109 -66.5q19 23 34 48t35 49zM341 754v0q6 9 6.5 30t-4.5 41t-17.5 27t-33.5 -13
q-47 -48 -98.5 -136t-89 -172.5t-42.5 -122.5q10 -2 45 37.5t80.5 98.5t87.5 117t66 93z" />
    <glyph glyph-name="r.1" unicode="&#xe02a;" horiz-adv-x="612" 
d="M281 1023v0q122 -57 191 -127.5t45 -214.5q-14 -65 -57 -191t-80.5 -262t-35 -232t79.5 -102q-26 -44 -94.5 -28t-122.5 82.5t-37 176.5q37 163 105 361q32 95 51 162q32 102 10 169.5t-122 102.5q1 -147 -67.5 -390t-163.5 -389q-29 -38 -76 -44.5t-92.5 6t-68.5 31.5
t-3 33q58 -9 126 103t120 272.5t60.5 297t-52.5 176.5q-26 16 -18.5 50t35 67.5t58.5 47.5t52 -11q16 -21 26 -37q18 -30 42.5 -53t88.5 -57z" />
    <glyph glyph-name="s.1" unicode="&#xe02b;" horiz-adv-x="538" 
d="M461 1103v0q14 8 39.5 -8.5t51 -44t38.5 -53t1 -35.5q-61 -46 -112 -124t-73.5 -152t3.5 -107q-26 -17 -62 2t-61 60.5t-17 90.5q12 53 32.5 103.5t29.5 66.5q-49 0 -88 -55.5t-47 -134.5q-4 -71 24 -122t65 -94q31 -35 54 -73t27 -86q0 -58 -45.5 -122.5t-134.5 -118
t-176 -46.5q-72 5 -130 71.5t-44.5 101t31 16t48 -23.5t81 8t109.5 59.5t53 104.5q-16 63 -68 129q-54 69 -80 151q-22 99 22.5 191.5t130.5 150.5q30 17 69.5 10.5t75.5 -23.5t55 -31q22 41 47.5 79.5t50.5 58.5z" />
    <glyph glyph-name="t.1" unicode="&#xe02c;" horiz-adv-x="306" 
d="M788 1234v0q55 -31 74 -83.5t10.5 -98.5t-35.5 -59q17 77 -96.5 129.5t-287.5 65.5q-106 -162 -193.5 -361.5t-136.5 -389t-41.5 -317.5t90.5 -143q-30 -27 -87 -14.5t-109 70t-68 166.5q-12 162 86 444t232 541q-337 -5 -509 -104q-16 -8 -37 13t-37 52t-15 58t16 34
q220 80 657 77q88 145 157 199q23 16 50.5 0.5t55.5 -41.5l10 -8q33 -28 44 -53.5t-7 -41.5q-33 -28 -67 -65q147 -22 244 -70z" />
    <glyph glyph-name="u.1" unicode="&#xe02d;" horiz-adv-x="678" 
d="M512 932v0q21 30 66.5 17t80 -44.5t22.5 -57.5q-30 -47 -87 -172.5t-104 -270.5t-48.5 -249.5t79.5 -109.5q-30 -33 -86 -16.5t-106 64.5t-61 109q-4 39 14 105.5t39 125.5q-19 -21 -36 -42q-52 -71 -151 -154q-37 -25 -95.5 -17t-106 39t-50.5 74q2 74 53.5 200
t112.5 235t93 134q25 13 64 -0.5t66.5 -37t15.5 -42.5q-28 -37 -78 -127t-93 -184t-52 -142q30 -14 105.5 67t168 215.5t174.5 280.5z" />
    <glyph glyph-name="v.1" unicode="&#xe02e;" horiz-adv-x="654" 
d="M453 944v0q9 40 56 33t89.5 -39.5t35.5 -70.5q-55 -184 -195 -409.5t-244 -312.5q-38 -28 -96.5 -26t-106.5 29.5t-58 76.5q-8 87 23 240t74 287.5t72 167.5q22 18 62 7.5t70.5 -34.5t22.5 -48q-22 -47 -57.5 -160.5t-64 -231t-29.5 -174.5q20 8 95.5 114.5t151.5 257.5
t99 293z" />
    <glyph glyph-name="w.1" unicode="&#xe02f;" horiz-adv-x="898" 
d="M687 924v0q-2 33 26 34t70 -19t67 -50t18 -59q-51 -160 -123 -295.5t-143 -240.5t-105 -135q-55 -41 -114 6.5t-118 142.5q-29 -32 -53 -62q-45 -55 -88 -94q-34 -25 -86 -2.5t-93.5 70t-45.5 97.5q1 76 43.5 202.5t98 240t93.5 150.5q29 21 71.5 -2t68.5 -61.5t4 -66.5
q-40 -43 -88 -133.5t-81 -182.5t-31 -139q71 57 154 181.5t138 224.5q20 30 53 15.5t58 -46.5t21 -53q-5 -18 -20 -54q-27 -65 -51 -146t-7 -128q100 98 183.5 295.5t79.5 309.5z" />
    <glyph glyph-name="x.1" unicode="&#xe030;" horiz-adv-x="477" 
d="M437 1053v0q27 14 61 -7.5t53 -53.5t0 -51q-64 -53 -174 -176t-172 -233q4 -173 42 -285.5t86.5 -150t82.5 14.5q15 -50 -40.5 -83t-131 -18t-122.5 110q-40 99 -53 180q-4 18 -8 33q-56 -87 -87 -186q-12 -26 -50.5 -23t-70.5 25.5t-24 54.5q28 78 69 153.5t81 141.5
q27 45 48 82q3 267 30 328q15 22 54.5 23.5t73.5 -13t32 -38.5q-2 -13 -6 -35q-3 -13 -5 -25t-3.5 -20.5l-1.5 -8.5q22 30 65.5 84.5t91 105.5t79.5 71z" />
    <glyph glyph-name="y.1" unicode="&#xe031;" horiz-adv-x="696" 
d="M638 982v0q21 -10 32.5 -24.5t9.5 -30.5q-27 -137 -104 -358.5t-190 -426t-248 -289.5q-66 -33 -151 -16t-126 87.5t7 138.5q12 -75 98 -77.5t178.5 108t154.5 245t100 247.5q-97 -154 -189 -246.5t-140 -113.5q-34 -12 -85 4t-86 51q-35 50 5.5 177.5t106.5 254.5
t107 174q20 18 62.5 5t71.5 -41t10 -56q-46 -57 -90 -132.5t-75.5 -146t-39.5 -112t17 -30.5q71 41 163 157t170 248t109 220q10 23 48 14.5t74 -31.5z" />
    <glyph glyph-name="z.1" unicode="&#xe032;" horiz-adv-x="596" 
d="M421 1018v0q38 7 79.5 -29.5t65 -87.5t6.5 -88q-24 -41 -76 -96t-102 -103q-32 -30 -51 -51q7 -6 18 -13q30 -19 61.5 -49t36.5 -71q1 -89 -89.5 -222t-208.5 -244t-200 -134q-80 -17 -164.5 11.5t-120 84.5t31.5 124q10 -86 84 -79t176 78t197 179t146 225
q-28 9 -83 -17t-110 -62t-82 -58q-35 -24 -75 2.5t-57.5 69t13.5 67.5l123 68q-37 33 -69.5 87t3.5 115q69 88 210 176.5t237 116.5zM63 538v0q43 22 137.5 104t148.5 176q-9 1 -52.5 -30.5t-97.5 -78.5t-94 -94t-42 -77z" />
    <glyph glyph-name="a.2" unicode="&#xe033;" horiz-adv-x="1242" 
d="M997 775v0q21 41 67.5 31.5t82 -60.5t21.5 -133q-37 -130 -209.5 -284.5t-334.5 -193.5q-90 -14 -194 23.5t-145 122.5q-15 44 -5.5 94.5t24.5 93.5q-32 -38 -74 -95q-79 -114 -180 -214q-26 -21 -76 -9t-90.5 44t-40.5 70q19 154 107 319t196 257q59 46 108.5 32
t99.5 -51q19 -13 38 -25q24 26 47 55q18 23 38 46q24 22 67.5 9t75.5 -43t19 -60q-29 -50 -89.5 -172.5t-89.5 -239t36 -145.5q72 -17 189.5 59t222.5 186t141.5 195.5t-52.5 87.5zM294 664v0q6 9 7 27.5t-4 35.5t-18 20.5t-35 -17.5q-88 -95 -147.5 -216.5t-63.5 -173.5
q47 41 128.5 144.5t132.5 179.5z" />
    <glyph glyph-name="b.2" unicode="&#xe035;" horiz-adv-x="1377" 
d="M1142 793v0q93 -13 134 -75.5t38.5 -122.5t-38.5 -65q8 102 -111 120.5t-298.5 -32t-353.5 -156.5q-41 -93 -113 -199t-152 -164q-73 -42 -131.5 -0.5t-32.5 121.5q33 74 94.5 137t115.5 107q24 20 40 35q27 36 43 85.5t19 90.5t-9 52q-126 -69 -223 -243.5t-132 -300.5
q-12 -29 -58 -24t-85 32.5t-27 66.5q48 124 101 278q79 230 171 456t199 367q21 22 58.5 15t73 -31t50.5 -52.5t-9 -47.5q-67 -50 -141.5 -179.5t-129.5 -275.5q8 5 15 10q34 27 68 43t75 9q46 -10 101.5 -52.5t63.5 -103.5q2 -31 -2 -63q216 108 361 140t225 22z" />
    <glyph glyph-name="c.2" unicode="&#xe036;" horiz-adv-x="852" 
d="M617 759v0q27 39 76.5 30t78 -74.5t14.5 -125.5q-47 -111 -239 -270t-338 -192q-103 -21 -215 36.5t-122 154.5q2 105 70.5 238t161.5 237.5t170 124.5q18 3 32.5 -2t34.5 -17q11 -6 25 -13q5 5 12 14q13 17 27.5 33.5t20.5 19.5q34 11 69.5 -12t54 -55t1.5 -50
q-54 -45 -102 -113t-72 -123.5t-8 -63.5q-21 -15 -56.5 -0.5t-57.5 50t-4 85.5q13 28 33.5 65t42.5 69q-47 -24 -114.5 -130t-112.5 -225t-24 -182q38 -68 158.5 -7t241.5 181t180 223.5t-39 93.5z" />
    <glyph glyph-name="d.2" unicode="&#xe038;" horiz-adv-x="1025" 
d="M808 736v0q50 33 97 -1.5t65.5 -106.5t-16.5 -153q-54 -113 -197 -259t-298 -168q-55 -1 -118 33t-106 82q-40 52 -39 113.5t10 97.5q1 2 1 4q-2 -3 -9 -15q-13 -22 -39 -61.5t-56.5 -74.5t-58.5 -45q-52 -16 -117 10.5t-73 96.5q-1 97 53.5 242t142.5 261.5t190 126.5
q37 1 71.5 -14t64.5 -34q20 46 69.5 138t109 178t109.5 116q38 17 82.5 -6.5t69 -59.5t1.5 -57q-76 -64 -201 -284t-199 -438t3 -276q50 -19 140 52t174 179.5t114 202.5t-40 120zM301 731v0q8 27 2.5 44t-30.5 1q-35 -24 -79.5 -88.5t-84.5 -140.5t-60 -134t-5 -69
q14 -4 52 44.5t83 119.5t79.5 134.5t42.5 88.5z" />
    <glyph glyph-name="e.2" unicode="&#xe03a;" horiz-adv-x="815" 
d="M578 753v0q21 41 64.5 31.5t74 -60.5t12.5 -133q-42 -130 -213.5 -284.5t-326.5 -193.5q-95 -15 -201.5 35t-122.5 151q0 170 120 381t242 287q44 24 81.5 10.5t83.5 -47.5q14 -9 29 -19q42 -28 37 -71q-3 -34 -34.5 -112.5t-85 -154t-123.5 -101.5q-36 -11 -64 -6.5
t-58 19.5q-23 -46 -37 -119t3 -118q48 -56 159 4t227.5 178t161.5 219t-29 104zM311 822v0q-26 -20 -68 -76t-76.5 -110t-36.5 -71q43 -5 82 40t65.5 107.5t33.5 109.5z" />
    <glyph glyph-name="f.2" unicode="&#xe03c;" horiz-adv-x="1077" 
d="M976 668v0q45 -31 60 -91t3 -115t-47 -71q36 100 -99.5 151t-338 40.5t-368.5 -95.5q57 -67 42 -177.5t-64.5 -220t-95.5 -174.5q-40 -55 -90.5 -63.5t-111.5 8.5q-70 21 -79 84.5t3 126.5q24 162 156 486.5t357 539.5q90 69 173 45t118 -83t-18 -94q-22 71 -97 34.5
t-160.5 -135.5t-138.5 -218q201 68 436 79.5t360 -57.5zM-46 -22v0q53 65 101 176.5t53 197.5q3 43 -19 89q-11 -21 -27.5 -62.5t-32 -83.5t-24.5 -65q-48 -123 -51 -252z" />
    <glyph glyph-name="g.2" unicode="&#xe03d;" horiz-adv-x="1115" 
d="M875 622v0q63 1 120 -38t75.5 -90t-32.5 -87q16 85 -81 86.5t-241.5 -55.5t-269.5 -147q-78 -172 -205 -361.5t-265 -252.5q-36 -12 -95.5 10.5t-92.5 74t10 127.5q60 91 161.5 185.5t194.5 169.5q109 90 131 122q19 40 30.5 70.5t22.5 64.5q8 26 20 59
q-55 -71 -138.5 -162t-155.5 -141q-30 -18 -77.5 -4t-83.5 46t-31 70q31 148 130 295t211 229q62 43 108 27.5t91 -53.5q9 -7 19 -14q5 6 12 18q9 13 18 25t14 17q24 17 60.5 10.5t63 -26.5t22.5 -45q-37 -153 -81 -297q-9 -31 -18 -63q264 136 353 130zM336 712v0
q13 22 18.5 47t-3.5 34.5t-41 -16.5q-81 -71 -149 -172t-94 -171q-2 -19 9 -18q27 5 103.5 88t156.5 208zM-110 -206v0q65 49 134.5 132.5t120.5 168.5q-77 -73 -161 -164t-94 -137z" />
    <glyph glyph-name="h.2" unicode="&#xe03f;" horiz-adv-x="1100" 
d="M887 750v0q50 33 93 -2.5t57 -109t-24 -152.5q-67 -124 -232.5 -267t-323.5 -163q-73 -1 -129 48.5t-72 112.5q-15 77 4 156t48 154q13 36 24 70q-92 -77 -193.5 -231.5t-150.5 -254.5q-15 -24 -56.5 -19t-77 26.5t-32.5 46.5q38 154 135.5 394.5t209.5 455.5t192 293
q37 29 86 14.5t79 -48.5t13 -62q-60 -33 -206.5 -254t-253.5 -513q66 94 150 195t154 149q36 21 81.5 7.5t74.5 -45.5t17 -67q-6 -12 -14 -29q-30 -65 -69 -163.5t-53.5 -185t30.5 -115.5q50 -20 147.5 52t191.5 181.5t132 204t-32 121.5z" />
    <glyph glyph-name="i.2" unicode="&#xe041;" horiz-adv-x="727" 
d="M537 785v0q50 33 93 -2.5t56.5 -109t-24.5 -152.5q-67 -123 -232 -266t-323 -164q-73 -1 -129 48.5t-72 112.5q-17 92 24 246t106 311q14 26 59 20t82 -31t27 -55q-83 -184 -119.5 -333t12.5 -184q50 -20 148 52t192 181.5t131.5 204.5t-31.5 121zM259 930v0
q-14 -20 -50 -13.5t-65.5 26t-27.5 39.5q13 50 34.5 108.5t35.5 82.5q19 21 63 10t78 -37.5t24 -51.5q-7 -12 -17 -31q-17 -30 -37.5 -67t-37.5 -66z" />
    <glyph glyph-name="j.2" unicode="&#xe043;" horiz-adv-x="805" 
d="M510 711v0q64 5 122.5 -30.5t80.5 -85.5t-27 -89q11 86 -86 82t-238 -69t-260 -163q-69 -175 -184.5 -372t-250.5 -268q-35 -14 -95.5 5t-96.5 69t2 127q55 95 151 195t184 181q104 95 124 129q40 98 65 193.5t52 220.5q9 27 52 30t83 -10.5t39 -37.5q-12 -63 -35 -149
q-14 -53 -27 -107q256 151 345 149zM-425 -172v0q62 53 126.5 140.5t110.5 174.5q-72 -77 -151 -172.5t-86 -142.5zM239 948v0q-10 -23 -44.5 -24t-65.5 12.5t-32 33.5q4 51 14.5 112t20.5 88q15 24 58 21.5t78.5 -21.5t30.5 -45q-6 -16 -14 -42q-11 -33 -23 -69.5
t-23 -65.5z" />
    <glyph glyph-name="k.2" unicode="&#xe045;" horiz-adv-x="797" 
d="M693 389v0q75 -43 84 -114.5t-20.5 -122.5t-70.5 -32q55 102 -71.5 157.5t-306 57.5t-284.5 -57q-20 -82 -28 -127q-4 -20 -32 -22.5t-62.5 7t-58.5 26t-22 35.5q28 127 119 371.5t200 472.5t190 308q33 29 65 24.5t78 -32.5q10 -5 19 -10q24 -11 38 -24t5 -37
q-64 -29 -158.5 -172t-170 -294.5t-83.5 -207.5q57 80 136.5 175t150.5 156q13 12 32 20.5t37 1.5q64 -25 90 -50.5t3 -66.5q-50 -82 -153.5 -201t-164.5 -180q102 5 228 -8.5t211 -53.5zM67 435v0q77 77 156.5 182.5t107.5 151.5q-82 -68 -158 -168.5t-106 -165.5z" />
    <glyph glyph-name="l.2" unicode="&#xe047;" horiz-adv-x="780" 
d="M532 744v0q50 33 93.5 -2t58 -108t-23.5 -153q-65 -124 -229 -268.5t-322 -166.5q-73 -2 -129 47t-73 112q-26 137 51 367t189 444.5t191 306.5q31 29 80.5 6t80 -66t4.5 -73q-128 -128 -243.5 -351.5t-168.5 -419t7 -238.5q50 -20 147.5 53t190 183.5t129.5 205.5
t-33 121z" />
    <glyph glyph-name="m.2" unicode="&#xe049;" horiz-adv-x="1430" 
d="M1116 530v0q93 37 158.5 6t87 -80.5t-16.5 -65.5q-25 71 -89.5 48.5t-148.5 -95.5t-165 -155q-85 -85 -144 -133q-45 -31 -108.5 -19t-116 46.5t-65.5 70.5q-13 48 11.5 152t61.5 212.5t65 170.5q-78 -77 -160.5 -208.5t-133.5 -264.5q-8 -15 -38.5 -13t-59 19t-31.5 47
q-1 37 16.5 117t38 155t28.5 97q-51 -55 -147.5 -212.5t-177.5 -312.5q-13 -21 -49.5 -17t-69 23t-33.5 41q11 136 82 350t139 315q13 14 39.5 10t54 -19.5t44 -34.5t8.5 -33q-26 -37 -67.5 -112.5t-75.5 -170.5q35 57 97.5 152t126 181t99.5 118q22 16 58 6t64 -34.5
t26 -52.5q-1 -7 -8.5 -29t-17.5 -50q-15 -43 -27 -79t-10 -42l20 28q45 62 123 159.5t137 139.5q54 33 104 -23q33 -34 42.5 -60.5t-10.5 -68.5q-26 -55 -82 -198t-96 -279t-17 -171q25 -20 80 30.5t125 129.5q60 67 120 126t109 83z" />
    <glyph glyph-name="n.2" unicode="&#xe04b;" horiz-adv-x="1176" 
d="M852 547v0q93 37 158.5 6t87 -80.5t-16.5 -65.5q-24 71 -89 48.5t-149 -96t-166 -155.5q-84 -85 -143 -132q-45 -31 -108 -19t-116 46.5t-66 70.5q-14 65 22 195.5t73 239.5q10 28 17 50q-98 -67 -196 -222t-146 -256q-15 -24 -56.5 -19t-77 26.5t-31.5 46.5
q25 101 88.5 289.5t154.5 360.5q16 26 45 27t59 -14t48 -35t12 -36q-40 -81 -82 -154q-44 -80 -54 -106q137 196 283 295q34 18 79 -3t75 -59t20 -70q-6 -14 -14 -34q-31 -73 -74 -183t-68 -206t-3 -125q25 -20 80.5 30.5t125.5 129.5q60 67 119.5 126t108.5 83z" />
    <glyph glyph-name="o.2" unicode="&#xe04d;" horiz-adv-x="1014" 
d="M928 489v0q23 17 31 -14.5t-5.5 -83t-54 -96t-116.5 -54.5q-126 -6 -249.5 43.5t-173.5 89.5q-24 -54 -74.5 -126t-127.5 -117q-47 -23 -111 -6t-115.5 60.5t-61.5 98.5q-9 120 47.5 264t121.5 207q11 10 30.5 13t35.5 2q-12 92 32 175q28 39 95 48t134.5 -20.5
t97.5 -102.5q18 -67 -1.5 -182.5t-48.5 -195.5q71 -60 189.5 -90t216.5 -12.5t108 99.5zM27 229v0q75 46 130.5 122t77.5 131q-25 19 -48.5 55.5t-38.5 75.5q-16 -17 -48 -89.5t-56 -157t-17 -137.5zM283 611v0q13 25 20.5 69t8 89t-8.5 72t-29 18q-23 -15 -29 -61.5
t4 -99.5t34 -87z" />
    <glyph glyph-name="p.2" unicode="&#xe04e;" horiz-adv-x="1395" 
d="M1130 804v0q93 -16 131 -80t33.5 -124t-40.5 -63q13 101 -105.5 124.5t-300 -20t-359.5 -142.5q-26 -55 -105 -165.5t-173 -177.5q-91 -52 -146 -7.5t3 152.5q51 78 125.5 144t141.5 116q2 2 5 3q16 20 26 57.5t10 72.5t-14 49q-121 -43 -241 -260.5t-207 -448.5
t-108 -316q-11 -27 -55 -22.5t-81 30.5t-27 63q36 98 130 334.5t191.5 478t143.5 354.5q10 22 36.5 23.5t56 -9.5t48 -28t12.5 -33q-1 -2 -2 -5q-15 -30 -43 -104l14 10q34 27 67 40t82 -3q14 -4 27 -9q76 -20 104.5 -50t23.5 -125q222 101 369 127.5t227 13.5z" />
    <glyph glyph-name="q.2" unicode="&#xe04f;" horiz-adv-x="1013" 
d="M852 284v0q58 -19 91 -72.5t34 -108.5t-35 -79q12 118 -198 124.5t-465 -80.5q-103 -270 -142 -412q-16 -41 -70 -44t-96.5 25.5t-22.5 82.5q46 103 105 240q-50 -32 -90 -69q-14 -12 -34.5 3t-39 42t-25.5 52.5t6 35.5q109 73 269 137q95 223 143 322q-31 -34 -71 -84
q-78 -102 -173 -190q-26 -18 -71 -5t-81 43.5t-34 65.5q24 143 119 310t198 250q56 39 100.5 24.5t88.5 -50.5q17 -12 34 -23q24 23 47 50q17 19 35 38q22 19 61.5 6t67 -42t15.5 -56q-135 -241 -275 -589q316 94 509 53zM263 656v0q6 8 14.5 32t13.5 48.5t0 35.5t-26 -8
q-73 -70 -140 -184.5t-88 -183.5q5 2 31 31.5t62 71.5t71 83q39 47 62 74z" />
    <glyph glyph-name="r.2" unicode="&#xe050;" horiz-adv-x="1119" 
d="M799 530v0q70 29 125 16.5t88.5 -46t39 -66.5t-23.5 -44q-24 71 -89 48.5t-149 -95.5t-165 -155q-85 -86 -144 -133q-45 -31 -108 -19t-116 46.5t-66 70.5q-13 50 8 144t52 199q47 149 56 238q13 122 -122 173q1 -112 -43.5 -283t-108.5 -327.5t-122 -224.5
q-19 -15 -49.5 -4t-59 35t-42 48.5t2.5 37.5q90 67 168.5 242.5t101.5 346.5t-53 225q-25 16 -17 50.5t34 68t55.5 47t49.5 -11.5q14 -21 24 -37q16 -29 39 -52t85 -57l10 -6q107 -53 175.5 -124.5t38.5 -206.5q-42 -165 -73 -269q-69 -215 -36 -244q25 -20 80.5 30.5
t125.5 129.5q60 67 119.5 126t108.5 83z" />
    <glyph glyph-name="s.2" unicode="&#xe052;" horiz-adv-x="1147" 
d="M809 835v0q119 36 188 10.5t96 -79t20.5 -103t-37.5 -60.5q20 124 -125 108.5t-330.5 -100.5t-286.5 -168q137 -221 -169 -429q-77 -47 -165.5 -44.5t-135 52t1.5 144.5q101 155 263 281q4 4 8 7q-14 18 -28 35q-66 69 -94 157q-21 104 25.5 207.5t136.5 173.5
q31 21 73 17t80 -19.5t57 -28.5q104 173 153 214q14 10 42.5 -1t57.5 -32.5t42 -44t-4 -35.5q-59 -40 -125.5 -117t-107 -156.5t-22.5 -126.5q-9 -2 -37 17t-52 49t-22 60q9 48 42 103q-52 -6 -92 -77t-47 -159.5t41 -147.5q331 224 553 293zM-10 86v0q40 9 93 57
t88.5 103.5t24.5 88.5q-17 -17 -36 -35q-54 -49 -104.5 -105t-65.5 -109z" />
    <glyph glyph-name="t.2" unicode="&#xe053;" horiz-adv-x="745" 
d="M745 1121v0q56 -26 76.5 -75t14 -94.5t-32.5 -60.5q14 86 -132 125t-351 21q-73 -153 -153 -344.5t-119.5 -342t9.5 -180.5q51 -17 145.5 61t183.5 193.5t122.5 212.5t-37.5 119q49 36 93.5 3.5t61.5 -105t-18 -153.5q-61 -128 -220 -281t-316 -184q-75 -6 -138 39
t-69 109q0 119 79 357t171 460q-130 -34 -224 -98q-16 -9 -34.5 7t-34 44t-19.5 52.5t10 32.5q156 68 361 101q37 87 60 133q15 23 58.5 14t79 -34.5t26.5 -52.5l-19 -38q224 12 366 -41z" />
    <glyph glyph-name="u.2" unicode="&#xe055;" horiz-adv-x="1183" 
d="M849 644v0q69 31 123.5 18.5t88.5 -46.5t40 -68t-23 -45q-32 90 -124.5 38.5t-212.5 -155.5q-134 -118 -257 -185q-89 -34 -169.5 22t-67.5 140q-1 -2 -2 -3q-32 -51 -65.5 -97t-88.5 -105q-31 -30 -85 -28t-99 28t-51 68q-3 75 33.5 206t83 246.5t74.5 143.5
q21 15 57.5 6t63 -29.5t17.5 -40.5q-23 -40 -61 -135.5t-70 -194t-36 -147.5q21 8 82.5 103t138 232.5t141.5 275.5q18 32 60.5 23.5t75.5 -36t23 -53.5q-142 -288 -157 -411.5t36 -105.5q66 32 185 144q132 125 246 191z" />
    <glyph glyph-name="v.2" unicode="&#xe057;" horiz-adv-x="1303" 
d="M1186 746v0q37 13 56.5 -21.5t15.5 -89.5t-37 -104t-100 -65q-109 -22 -280.5 17.5t-346.5 160.5q-40 -122 -138.5 -262.5t-192.5 -213.5q-34 -24 -87.5 -22.5t-99 25t-55.5 66.5q-11 74 7 205t47.5 246.5t54.5 143.5q19 15 58.5 6t70 -29.5t24.5 -40.5
q-19 -40 -44 -137.5t-43.5 -198t-17.5 -149.5q24 7 81.5 70.5t114 153.5t77.5 178t-28 145q-26 32 -5 68.5t61.5 58.5t70.5 9q23 -13 36.5 -47.5t20 -70.5t8.5 -56q0 -3 1 -5q103 -105 273.5 -147t297.5 -16.5t99 122.5z" />
    <glyph glyph-name="w.2" unicode="&#xe058;" horiz-adv-x="1515" 
d="M1402 706v0q38 13 57 -21.5t15 -89.5t-37 -104t-100 -65q-109 -22 -280.5 17.5t-346.5 160.5q-45 -143 -140 -289.5t-175 -175.5q-85 -10 -179 152q-28 -31 -51 -60q-44 -54 -86 -92q-33 -25 -83.5 -3t-91 68.5t-44.5 94.5q0 74 41.5 197.5t95.5 234t92 146.5
q27 20 69 -2t67.5 -59.5t3.5 -64.5q-39 -42 -85.5 -130t-79 -178t-29.5 -136q69 56 149.5 177t134.5 219q19 30 51 15.5t56.5 -45.5t20.5 -52q-8 -27 -32 -87t-44.5 -118t-18.5 -78q56 12 125 92.5t97.5 182t-35.5 177.5q-26 32 -4.5 68.5t61.5 58.5t71 9q23 -14 37 -49.5
t20 -72.5t8 -55v-2q103 -105 273.5 -147t297.5 -16.5t99 122.5z" />
    <glyph glyph-name="x.2" unicode="&#xe059;" horiz-adv-x="1063" 
d="M851 951v0q32 38 78.5 -2t64 -118.5t-35.5 -154.5q-157 -197 -364.5 -335t-376 -156t-207.5 144q-86 -108 -129.5 -234.5t10.5 -178.5q-81 -5 -136 57.5t-24 167.5q33 90 93 184t120 176q25 34 45 64q30 265 63 323q17 21 56 18.5t72 -20t29 -41.5q-4 -12 -10 -32
q-4 -13 -7.5 -25.5t-5.5 -21l-2 -8.5q24 28 73 77.5t101 96t86 63.5q28 11 60 -14t47.5 -58.5t-4.5 -50.5q-70 -47 -191.5 -158.5t-193.5 -214.5q-21 -155 47 -184q73 -17 207 64.5t263.5 204t189 228.5t-17.5 139z" />
    <glyph glyph-name="y.2" unicode="&#xe05a;" horiz-adv-x="1140" 
d="M867 644v0q64 1 120.5 -38t75.5 -90t-32 -87q16 85 -81.5 86.5t-241.5 -55.5t-269 -147q-79 -172 -206 -361.5t-265 -252.5q-36 -12 -95 10.5t-92 74t9 127.5q60 91 162 185.5t194 169.5q110 90 131 122q21 43 47 111.5t42 113.5q-63 -99 -144.5 -192.5t-153.5 -141.5
q-30 -18 -77.5 -4t-83.5 46t-31 70q21 106 79 240.5t135 230.5q19 19 61.5 8t71.5 -37.5t9 -53.5q-24 -29 -56.5 -85t-61 -116t-40 -101t5.5 -39q40 15 125 131.5t167 244.5t111 177q17 23 57 14.5t74 -32.5t32 -49q-12 -62 -36.5 -146t-49.5 -161q-17 -55 -28 -92
q132 72 212 95t123 24zM-118 -184v0q66 49 135.5 132.5t120.5 168.5q-49 -47 -107 -106t-101 -112.5t-48 -82.5z" />
    <glyph glyph-name="z.2" unicode="&#xe05c;" horiz-adv-x="1260" 
d="M1076 517v0q57 -22 86.5 -76t25 -107t-49.5 -71q27 92 -85 114.5t-290 -15t-349 -126.5q-78 -163 -193.5 -309t-238.5 -222q-87 -47 -155 -16t-88.5 102t36.5 146q112 129 267.5 235t227.5 143q16 24 30.5 53t29.5 75q-55 5 -117 -50t-103 -104q-11 -12 -19 -21
q-19 -18 -50.5 -7.5t-61.5 36.5t-44 54t3 45l102 99l-5 5q-40 26 -71 68t-3 103q57 96 186 201.5t221 145.5q36 12 82 -19t76 -79t17 -87q-18 -43 -63 -104t-89 -116q-27 -34 -44 -57q8 -4 19 -10q38 -17 77.5 -49t36.5 -83q256 91 401 107t195 -4zM59 515v0q17 18 40 42
q47 49 103.5 111.5t99.5 125.5q-9 0 -47.5 -31.5t-85 -78t-79.5 -93t-31 -76.5zM-182 -200v0q66 20 142.5 89t135.5 139t73 93q-42 -25 -120.5 -84.5t-148 -126t-82.5 -110.5z" />
    <glyph glyph-name="r.3" unicode="&#xe05e;" horiz-adv-x="614" 
d="M199 867v0v0q-25 -133 -99 -327.5t-179 -360t-223 -210.5q-98 -28 -178 8.5t-119.5 96.5t-15.5 103q14 -76 88.5 -85.5t150.5 37.5q207 151 330.5 448t68.5 467q-8 23 14.5 44t59 33t68.5 6t42 -39q23 -80 73.5 -120t103.5 -64t87 -55.5t27 -92.5q-22 -116 -60 -233
q-46 -135 -67 -271q-4 -29 11.5 -17.5t44 50.5t72.5 109.5t89 162.5t67 125q10 12 29 2.5t32.5 -27.5t5.5 -31q-114 -224 -170 -314q-130 -215 -175 -230q-55 0 -98.5 24t-69.5 53.5t-28 47.5q-4 42 18.5 123t52.5 173q26 82 45.5 151.5t20.5 107.5q-2 28 -19.5 43.5
t-45.5 29.5q-25 12 -54 32z" />
    </font>
</defs>
</svg>
